<svg xmlns="http://www.w3.org/2000/svg" viewBox="0 0 240 300" width="240" height="300">
<g id="stín"><ellipse cx="120" cy="292" rx="110" ry="8" fill="#2F2E3F" stroke="none" opacity="0.14"/></g>
<g id="skříň"><rect x="8" y="120" width="224" height="172" rx="6" fill="#C9AD84" stroke="#2F2E3F" stroke-width="3" stroke-linejoin="round" stroke-linecap="round"/><path d="M 13.81 136.06 L 12.74 150.48 L 12.16 164.89 L 12.31 179.31 L 13.13 193.73 L 14.28 208.15 L 15.29 222.57 L 15.73 236.99 L 15.42 251.41 L 14.5 265.83 L 13.33 280.25" fill="none" stroke="#8A7052" stroke-width="1.1" stroke-linejoin="round" stroke-linecap="round" opacity="0.5"/><path d="M 225.83 131.02 L 225.64 145.76 L 224.87 160.51 L 223.86 175.25 L 223.04 189.99 L 222.76 204.74 L 223.16 219.48 L 224.05 234.23 L 225.05 248.97 L 225.72 263.72" fill="none" stroke="#8A7052" stroke-width="1.1" stroke-linejoin="round" stroke-linecap="round" opacity="0.5"/><rect x="20" y="134" width="200" height="150" rx="3" fill="#8A7052" stroke="#2F2E3F" stroke-width="2" stroke-linejoin="round" stroke-linecap="round"/><path d="M 60 136 L 60 282" stroke="#6F5A41" stroke-width="1.2" stroke-linejoin="round" stroke-linecap="round" opacity="0.45"/><path d="M 100 136 L 100 282" stroke="#6F5A41" stroke-width="1.2" stroke-linejoin="round" stroke-linecap="round" opacity="0.45"/><path d="M 140 136 L 140 282" stroke="#6F5A41" stroke-width="1.2" stroke-linejoin="round" stroke-linecap="round" opacity="0.45"/><path d="M 180 136 L 180 282" stroke="#6F5A41" stroke-width="1.2" stroke-linejoin="round" stroke-linecap="round" opacity="0.45"/><rect x="20" y="188" width="200" height="6" fill="#C9AD84" stroke="#2F2E3F" stroke-width="2" stroke-linejoin="round" stroke-linecap="round"/><rect x="20" y="234" width="200" height="6" fill="#C9AD84" stroke="#2F2E3F" stroke-width="2" stroke-linejoin="round" stroke-linecap="round"/><path d="M 22 189.5 L 218 189.5" stroke="#D8BF9A" stroke-width="1.2" stroke-linejoin="round" stroke-linecap="round" opacity="0.8"/><path d="M 22 235.5 L 218 235.5" stroke="#D8BF9A" stroke-width="1.2" stroke-linejoin="round" stroke-linecap="round" opacity="0.8"/><rect x="8" y="116" width="224" height="14" rx="4" fill="#D8BF9A" stroke="#2F2E3F" stroke-width="3" stroke-linejoin="round" stroke-linecap="round"/><path d="M 40.59 121.24 L 55.86 121.54 L 71.13 121.28 L 86.39 120.59 L 101.66 119.77 L 116.93 119.04 L 132.2 118.16 L 147.47 118.54 M 178 121.2 L 193.27 121.53 L 208.54 121.31 M 37.74 125.3 L 52.49 125.42 L 67.24 125.98 L 81.99 126.71 L 96.73 127.31 L 111.48 127.52 L 126.23 127.24 L 140.98 126.6 L 155.72 125.87 L 170.47 125.37 L 185.22 125.32 L 199.97 125.73 L 214.71 126.44 M 137.22 121.53 A 3.6 1.4 0 1 0 144.42 121.53 A 3.6 1.4 0 1 0 137.22 121.53" fill="none" stroke="#A88C66" stroke-width="1" stroke-linejoin="round" stroke-linecap="round" opacity="0.45"/><rect x="12" y="280" width="216" height="10" rx="4" fill="#8A7052" stroke="none" opacity="0.5"/><rect x="16" y="290" width="10" height="4" rx="1" fill="#8A7052" stroke="#2F2E3F" stroke-width="1.4" stroke-linejoin="round" stroke-linecap="round"/><rect x="214" y="290" width="10" height="4" rx="1" fill="#8A7052" stroke="#2F2E3F" stroke-width="1.4" stroke-linejoin="round" stroke-linecap="round"/></g>
<g id="knihy"><rect x="24" y="150" width="11" height="40" rx="2" fill="#A9CDBE" stroke="#2F2E3F" stroke-width="1.8" stroke-linejoin="round" stroke-linecap="round"/><path d="M 25.5 155 L 33.5 155" stroke="#2F2E3F" stroke-width="1.2" stroke-linejoin="round" stroke-linecap="round" opacity="0.45"/><path d="M 25.5 185 L 33.5 185" stroke="#2F2E3F" stroke-width="1.2" stroke-linejoin="round" stroke-linecap="round" opacity="0.45"/><path d="M 26.2 152.5 L 26.2 187.5" stroke="#FFFFFF" stroke-width="1.1" stroke-linejoin="round" stroke-linecap="round" opacity="0.45"/><rect x="36" y="146" width="14" height="44" rx="2" fill="#B7CBE6" stroke="#2F2E3F" stroke-width="1.8" stroke-linejoin="round" stroke-linecap="round"/><rect x="38.5" y="159.2" width="9" height="9.68" rx="0.8" fill="#FBF9F5" stroke="#2F2E3F" stroke-width="0.9" stroke-linejoin="round" stroke-linecap="round"/><path d="M 38.2 148.5 L 38.2 187.5" stroke="#FFFFFF" stroke-width="1.1" stroke-linejoin="round" stroke-linecap="round" opacity="0.45"/><rect x="51" y="154" width="9" height="36" rx="2" fill="#F2CF7A" stroke="#2F2E3F" stroke-width="1.8" stroke-linejoin="round" stroke-linecap="round"/><path d="M 53.2 156.5 L 53.2 187.5" stroke="#FFFFFF" stroke-width="1.1" stroke-linejoin="round" stroke-linecap="round" opacity="0.45"/><rect x="61" y="148" width="13" height="42" rx="2" fill="#EFA79A" stroke="#2F2E3F" stroke-width="1.8" stroke-linejoin="round" stroke-linecap="round"/><path d="M 62.5 152 L 72.5 152" stroke="#F2CF7A" stroke-width="1.6" stroke-linejoin="round" stroke-linecap="round" opacity="0.9"/><path d="M 62.5 184 L 72.5 184" stroke="#F2CF7A" stroke-width="1.6" stroke-linejoin="round" stroke-linecap="round" opacity="0.9"/><path d="M 67.5 158 L 67.5 178" stroke="#F2CF7A" stroke-width="1.2" stroke-linejoin="round" stroke-linecap="round" opacity="0.7"/><path d="M 63.2 150.5 L 63.2 187.5" stroke="#FFFFFF" stroke-width="1.1" stroke-linejoin="round" stroke-linecap="round" opacity="0.45"/><rect x="75" y="152" width="10" height="38" rx="2" fill="#C9B8E8" stroke="#2F2E3F" stroke-width="1.8" stroke-linejoin="round" stroke-linecap="round"/><path d="M 76.5 157 L 83.5 157" stroke="#2F2E3F" stroke-width="1.2" stroke-linejoin="round" stroke-linecap="round" opacity="0.45"/><path d="M 76.5 185 L 83.5 185" stroke="#2F2E3F" stroke-width="1.2" stroke-linejoin="round" stroke-linecap="round" opacity="0.45"/><path d="M 77.2 154.5 L 77.2 187.5" stroke="#FFFFFF" stroke-width="1.1" stroke-linejoin="round" stroke-linecap="round" opacity="0.45"/><ellipse cx="98" cy="184" rx="8" ry="6" fill="#FFFFFF" stroke="#2F2E3F" stroke-width="1.6" stroke-linejoin="round" stroke-linecap="round"/><circle cx="98" cy="175" r="5.2" fill="#FFFFFF" stroke="#2F2E3F" stroke-width="1.6" stroke-linejoin="round" stroke-linecap="round"/><path d="M 93.5 172 l 1 -5 l 3 3.5 M 102.5 172 l -1 -5 l -3 3.5" fill="#FFFFFF" stroke="#2F2E3F" stroke-width="1.3" stroke-linejoin="round" stroke-linecap="round"/><path d="M 106 186 q 5 -2 3 -9" fill="none" stroke="#2F2E3F" stroke-width="1.5" stroke-linejoin="round" stroke-linecap="round"/><circle cx="96" cy="174.5" r="0.8" fill="#2F2E3F" stroke="none"/><circle cx="100" cy="174.5" r="0.8" fill="#2F2E3F" stroke="none"/><path d="M 95 179.5 l 3 1.5 l 3 -1.5" fill="#B7CBE6" stroke="#2F2E3F" stroke-width="1" stroke-linejoin="round" stroke-linecap="round"/><rect x="115" y="149" width="12" height="41" rx="2" fill="#F3B9C8" stroke="#2F2E3F" stroke-width="1.8" stroke-linejoin="round" stroke-linecap="round"/><rect x="117.5" y="161.3" width="7" height="9.02" rx="0.8" fill="#FBF9F5" stroke="#2F2E3F" stroke-width="0.9" stroke-linejoin="round" stroke-linecap="round"/><path d="M 117.2 151.5 L 117.2 187.5" stroke="#FFFFFF" stroke-width="1.1" stroke-linejoin="round" stroke-linecap="round" opacity="0.45"/><rect x="128" y="145" width="15" height="45" rx="2" fill="#84AF9F" stroke="#2F2E3F" stroke-width="1.8" stroke-linejoin="round" stroke-linecap="round"/><path d="M 129.5 149 L 141.5 149" stroke="#F2CF7A" stroke-width="1.6" stroke-linejoin="round" stroke-linecap="round" opacity="0.9"/><path d="M 129.5 184 L 141.5 184" stroke="#F2CF7A" stroke-width="1.6" stroke-linejoin="round" stroke-linecap="round" opacity="0.9"/><path d="M 135.5 155 L 135.5 178" stroke="#F2CF7A" stroke-width="1.2" stroke-linejoin="round" stroke-linecap="round" opacity="0.7"/><path d="M 130.2 147.5 L 130.2 187.5" stroke="#FFFFFF" stroke-width="1.1" stroke-linejoin="round" stroke-linecap="round" opacity="0.45"/><rect x="144" y="153" width="10" height="37" rx="2" fill="#FFE9B0" stroke="#2F2E3F" stroke-width="1.8" stroke-linejoin="round" stroke-linecap="round"/><path d="M 145.5 158 L 152.5 158" stroke="#2F2E3F" stroke-width="1.2" stroke-linejoin="round" stroke-linecap="round" opacity="0.45"/><path d="M 145.5 185 L 152.5 185" stroke="#2F2E3F" stroke-width="1.2" stroke-linejoin="round" stroke-linecap="round" opacity="0.45"/><path d="M 146.2 155.5 L 146.2 187.5" stroke="#FFFFFF" stroke-width="1.1" stroke-linejoin="round" stroke-linecap="round" opacity="0.45"/><rect x="155" y="150" width="12" height="40" rx="2" fill="#9FC0E6" stroke="#2F2E3F" stroke-width="1.8" stroke-linejoin="round" stroke-linecap="round"/><path d="M 157.2 152.5 L 157.2 187.5" stroke="#FFFFFF" stroke-width="1.1" stroke-linejoin="round" stroke-linecap="round" opacity="0.45"/><g transform="rotate(-14 180 190)"><rect x="170" y="151" width="12" height="39" rx="2" fill="#E7B9C8" stroke="#2F2E3F" stroke-width="1.8" stroke-linejoin="round" stroke-linecap="round"/><path d="M 171.5 156 L 180.5 156" stroke="#2F2E3F" stroke-width="1.2" stroke-linejoin="round" stroke-linecap="round" opacity="0.45"/><path d="M 171.5 185 L 180.5 185" stroke="#2F2E3F" stroke-width="1.2" stroke-linejoin="round" stroke-linecap="round" opacity="0.45"/><path d="M 172.2 153.5 L 172.2 187.5" stroke="#FFFFFF" stroke-width="1.1" stroke-linejoin="round" stroke-linecap="round" opacity="0.45"/></g><rect x="24" y="198" width="13" height="38" rx="2" fill="#B7CBE6" stroke="#2F2E3F" stroke-width="1.8" stroke-linejoin="round" stroke-linecap="round"/><path d="M 25.5 202 L 35.5 202" stroke="#F2CF7A" stroke-width="1.6" stroke-linejoin="round" stroke-linecap="round" opacity="0.9"/><path d="M 25.5 230 L 35.5 230" stroke="#F2CF7A" stroke-width="1.6" stroke-linejoin="round" stroke-linecap="round" opacity="0.9"/><path d="M 30.5 208 L 30.5 224" stroke="#F2CF7A" stroke-width="1.2" stroke-linejoin="round" stroke-linecap="round" opacity="0.7"/><path d="M 26.2 200.5 L 26.2 233.5" stroke="#FFFFFF" stroke-width="1.1" stroke-linejoin="round" stroke-linecap="round" opacity="0.45"/><rect x="38" y="202" width="10" height="34" rx="2" fill="#F2CF7A" stroke="#2F2E3F" stroke-width="1.8" stroke-linejoin="round" stroke-linecap="round"/><path d="M 39.5 207 L 46.5 207" stroke="#2F2E3F" stroke-width="1.2" stroke-linejoin="round" stroke-linecap="round" opacity="0.45"/><path d="M 39.5 231 L 46.5 231" stroke="#2F2E3F" stroke-width="1.2" stroke-linejoin="round" stroke-linecap="round" opacity="0.45"/><path d="M 40.2 204.5 L 40.2 233.5" stroke="#FFFFFF" stroke-width="1.1" stroke-linejoin="round" stroke-linecap="round" opacity="0.45"/><rect x="49" y="200" width="12" height="36" rx="2" fill="#C9B8E8" stroke="#2F2E3F" stroke-width="1.8" stroke-linejoin="round" stroke-linecap="round"/><rect x="51.5" y="210.8" width="7" height="7.92" rx="0.8" fill="#FBF9F5" stroke="#2F2E3F" stroke-width="0.9" stroke-linejoin="round" stroke-linecap="round"/><path d="M 51.2 202.5 L 51.2 233.5" stroke="#FFFFFF" stroke-width="1.1" stroke-linejoin="round" stroke-linecap="round" opacity="0.45"/><rect x="62" y="204" width="9" height="32" rx="2" fill="#A9CDBE" stroke="#2F2E3F" stroke-width="1.8" stroke-linejoin="round" stroke-linecap="round"/><path d="M 64.2 206.5 L 64.2 233.5" stroke="#FFFFFF" stroke-width="1.1" stroke-linejoin="round" stroke-linecap="round" opacity="0.45"/><rect x="72" y="199" width="14" height="37" rx="2" fill="#EFA79A" stroke="#2F2E3F" stroke-width="1.8" stroke-linejoin="round" stroke-linecap="round"/><path d="M 73.5 204 L 84.5 204" stroke="#2F2E3F" stroke-width="1.2" stroke-linejoin="round" stroke-linecap="round" opacity="0.45"/><path d="M 73.5 231 L 84.5 231" stroke="#2F2E3F" stroke-width="1.2" stroke-linejoin="round" stroke-linecap="round" opacity="0.45"/><path d="M 74.2 201.5 L 74.2 233.5" stroke="#FFFFFF" stroke-width="1.1" stroke-linejoin="round" stroke-linecap="round" opacity="0.45"/><rect x="87" y="201" width="11" height="35" rx="2" fill="#E7B9C8" stroke="#2F2E3F" stroke-width="1.8" stroke-linejoin="round" stroke-linecap="round"/><path d="M 89.2 203.5 L 89.2 233.5" stroke="#FFFFFF" stroke-width="1.1" stroke-linejoin="round" stroke-linecap="round" opacity="0.45"/><rect x="102" y="230" width="30" height="6" rx="1.5" fill="#B9AECB" stroke="#2F2E3F" stroke-width="1.6" stroke-linejoin="round" stroke-linecap="round"/><path d="M 105 233 L 129 233" stroke="#FFFFFF" stroke-width="1.1" stroke-linejoin="round" stroke-linecap="round" opacity="0.5"/><rect x="100.5" y="223" width="33" height="7" rx="1.5" fill="#FFE9B0" stroke="#2F2E3F" stroke-width="1.6" stroke-linejoin="round" stroke-linecap="round"/><path d="M 103.5 226.5 L 130.5 226.5" stroke="#FFFFFF" stroke-width="1.1" stroke-linejoin="round" stroke-linecap="round" opacity="0.5"/><rect x="99" y="217" width="36" height="6" rx="1.5" fill="#A9CDBE" stroke="#2F2E3F" stroke-width="1.6" stroke-linejoin="round" stroke-linecap="round"/><path d="M 102 220 L 132 220" stroke="#FFFFFF" stroke-width="1.1" stroke-linejoin="round" stroke-linecap="round" opacity="0.5"/><rect x="149" y="199" width="12" height="37" rx="2" fill="#84AF9F" stroke="#2F2E3F" stroke-width="1.8" stroke-linejoin="round" stroke-linecap="round"/><rect x="151.5" y="210.1" width="7" height="8.14" rx="0.8" fill="#FBF9F5" stroke="#2F2E3F" stroke-width="0.9" stroke-linejoin="round" stroke-linecap="round"/><path d="M 151.2 201.5 L 151.2 233.5" stroke="#FFFFFF" stroke-width="1.1" stroke-linejoin="round" stroke-linecap="round" opacity="0.45"/><rect x="162" y="204" width="10" height="32" rx="2" fill="#C9B8E8" stroke="#2F2E3F" stroke-width="1.8" stroke-linejoin="round" stroke-linecap="round"/><path d="M 163.5 209 L 170.5 209" stroke="#2F2E3F" stroke-width="1.2" stroke-linejoin="round" stroke-linecap="round" opacity="0.45"/><path d="M 163.5 231 L 170.5 231" stroke="#2F2E3F" stroke-width="1.2" stroke-linejoin="round" stroke-linecap="round" opacity="0.45"/><path d="M 164.2 206.5 L 164.2 233.5" stroke="#FFFFFF" stroke-width="1.1" stroke-linejoin="round" stroke-linecap="round" opacity="0.45"/><rect x="173" y="200" width="14" height="36" rx="2" fill="#F2CF7A" stroke="#2F2E3F" stroke-width="1.8" stroke-linejoin="round" stroke-linecap="round"/><path d="M 174.5 204 L 185.5 204" stroke="#F2CF7A" stroke-width="1.6" stroke-linejoin="round" stroke-linecap="round" opacity="0.9"/><path d="M 174.5 230 L 185.5 230" stroke="#F2CF7A" stroke-width="1.6" stroke-linejoin="round" stroke-linecap="round" opacity="0.9"/><path d="M 180 210 L 180 224" stroke="#F2CF7A" stroke-width="1.2" stroke-linejoin="round" stroke-linecap="round" opacity="0.7"/><path d="M 175.2 202.5 L 175.2 233.5" stroke="#FFFFFF" stroke-width="1.1" stroke-linejoin="round" stroke-linecap="round" opacity="0.45"/><rect x="188" y="203" width="11" height="33" rx="2" fill="#B7CBE6" stroke="#2F2E3F" stroke-width="1.8" stroke-linejoin="round" stroke-linecap="round"/><path d="M 190.2 205.5 L 190.2 233.5" stroke="#FFFFFF" stroke-width="1.1" stroke-linejoin="round" stroke-linecap="round" opacity="0.45"/><rect x="200" y="201" width="13" height="35" rx="2" fill="#EFA79A" stroke="#2F2E3F" stroke-width="1.8" stroke-linejoin="round" stroke-linecap="round"/><path d="M 201.5 206 L 211.5 206" stroke="#2F2E3F" stroke-width="1.2" stroke-linejoin="round" stroke-linecap="round" opacity="0.45"/><path d="M 201.5 231 L 211.5 231" stroke="#2F2E3F" stroke-width="1.2" stroke-linejoin="round" stroke-linecap="round" opacity="0.45"/><path d="M 202.2 203.5 L 202.2 233.5" stroke="#FFFFFF" stroke-width="1.1" stroke-linejoin="round" stroke-linecap="round" opacity="0.45"/><path d="M 25 282 L 28 256 L 48 256 L 47 282 Z" fill="#A88C66" stroke="#2F2E3F" stroke-width="1.6" stroke-linejoin="round" stroke-linecap="round"/><path d="M 29 278 L 31 260 L 45 260 L 44 278 Z" fill="#E8EEF4" stroke="#2F2E3F" stroke-width="1" stroke-linejoin="round" stroke-linecap="round"/><path d="M 30 278 Q 36 268 44 278 Z" fill="#A9CDBE" stroke="none" opacity="0.8"/><circle cx="39" cy="266" r="2.4" fill="#F3B9C8" stroke="none"/><rect x="52" y="244" width="12" height="38" rx="2" fill="#F3B9C8" stroke="#2F2E3F" stroke-width="1.8" stroke-linejoin="round" stroke-linecap="round"/><path d="M 53.5 249 L 62.5 249" stroke="#2F2E3F" stroke-width="1.2" stroke-linejoin="round" stroke-linecap="round" opacity="0.45"/><path d="M 53.5 277 L 62.5 277" stroke="#2F2E3F" stroke-width="1.2" stroke-linejoin="round" stroke-linecap="round" opacity="0.45"/><path d="M 54.2 246.5 L 54.2 279.5" stroke="#FFFFFF" stroke-width="1.1" stroke-linejoin="round" stroke-linecap="round" opacity="0.45"/><rect x="65" y="242" width="14" height="40" rx="2" fill="#A9CDBE" stroke="#2F2E3F" stroke-width="1.8" stroke-linejoin="round" stroke-linecap="round"/><path d="M 66.5 246 L 77.5 246" stroke="#F2CF7A" stroke-width="1.6" stroke-linejoin="round" stroke-linecap="round" opacity="0.9"/><path d="M 66.5 276 L 77.5 276" stroke="#F2CF7A" stroke-width="1.6" stroke-linejoin="round" stroke-linecap="round" opacity="0.9"/><path d="M 72 252 L 72 270" stroke="#F2CF7A" stroke-width="1.2" stroke-linejoin="round" stroke-linecap="round" opacity="0.7"/><path d="M 67.2 244.5 L 67.2 279.5" stroke="#FFFFFF" stroke-width="1.1" stroke-linejoin="round" stroke-linecap="round" opacity="0.45"/><rect x="80" y="248" width="10" height="34" rx="2" fill="#F2CF7A" stroke="#2F2E3F" stroke-width="1.8" stroke-linejoin="round" stroke-linecap="round"/><path d="M 82.2 250.5 L 82.2 279.5" stroke="#FFFFFF" stroke-width="1.1" stroke-linejoin="round" stroke-linecap="round" opacity="0.45"/><rect x="91" y="243" width="13" height="39" rx="2" fill="#B9AECB" stroke="#2F2E3F" stroke-width="1.8" stroke-linejoin="round" stroke-linecap="round"/><rect x="93.5" y="254.7" width="8" height="8.58" rx="0.8" fill="#FBF9F5" stroke="#2F2E3F" stroke-width="0.9" stroke-linejoin="round" stroke-linecap="round"/><path d="M 93.2 245.5 L 93.2 279.5" stroke="#FFFFFF" stroke-width="1.1" stroke-linejoin="round" stroke-linecap="round" opacity="0.45"/><rect x="105" y="246" width="11" height="36" rx="2" fill="#B7CBE6" stroke="#2F2E3F" stroke-width="1.8" stroke-linejoin="round" stroke-linecap="round"/><path d="M 106.5 251 L 114.5 251" stroke="#2F2E3F" stroke-width="1.2" stroke-linejoin="round" stroke-linecap="round" opacity="0.45"/><path d="M 106.5 277 L 114.5 277" stroke="#2F2E3F" stroke-width="1.2" stroke-linejoin="round" stroke-linecap="round" opacity="0.45"/><path d="M 107.2 248.5 L 107.2 279.5" stroke="#FFFFFF" stroke-width="1.1" stroke-linejoin="round" stroke-linecap="round" opacity="0.45"/><rect x="120" y="276" width="28" height="6" rx="1.5" fill="#EFA79A" stroke="#2F2E3F" stroke-width="1.6" stroke-linejoin="round" stroke-linecap="round"/><path d="M 123 279 L 145 279" stroke="#FFFFFF" stroke-width="1.1" stroke-linejoin="round" stroke-linecap="round" opacity="0.5"/><rect x="118.5" y="269" width="31" height="7" rx="1.5" fill="#9FC0E6" stroke="#2F2E3F" stroke-width="1.6" stroke-linejoin="round" stroke-linecap="round"/><path d="M 121.5 272.5 L 146.5 272.5" stroke="#FFFFFF" stroke-width="1.1" stroke-linejoin="round" stroke-linecap="round" opacity="0.5"/><rect x="153" y="244" width="12" height="38" rx="2" fill="#FFE9B0" stroke="#2F2E3F" stroke-width="1.8" stroke-linejoin="round" stroke-linecap="round"/><path d="M 154.5 248 L 163.5 248" stroke="#F2CF7A" stroke-width="1.6" stroke-linejoin="round" stroke-linecap="round" opacity="0.9"/><path d="M 154.5 276 L 163.5 276" stroke="#F2CF7A" stroke-width="1.6" stroke-linejoin="round" stroke-linecap="round" opacity="0.9"/><path d="M 159 254 L 159 270" stroke="#F2CF7A" stroke-width="1.2" stroke-linejoin="round" stroke-linecap="round" opacity="0.7"/><path d="M 155.2 246.5 L 155.2 279.5" stroke="#FFFFFF" stroke-width="1.1" stroke-linejoin="round" stroke-linecap="round" opacity="0.45"/><rect x="166" y="249" width="10" height="33" rx="2" fill="#E7B9C8" stroke="#2F2E3F" stroke-width="1.8" stroke-linejoin="round" stroke-linecap="round"/><path d="M 168.2 251.5 L 168.2 279.5" stroke="#FFFFFF" stroke-width="1.1" stroke-linejoin="round" stroke-linecap="round" opacity="0.45"/><path d="M 183 256 Q 186 251 180 247" fill="none" stroke="#8A7052" stroke-width="1.3" stroke-linejoin="round" stroke-linecap="round"/><circle cx="180" cy="246" r="2.4" fill="#F2CF7A" stroke="#2F2E3F" stroke-width="1" stroke-linejoin="round" stroke-linecap="round"/><path d="M 180 282 Q 176 270 181 262 L 181 256 L 186 256 L 186 262 Q 191 270 187 282 Z" fill="#BFD9D3" stroke="#2F2E3F" stroke-width="1.5" stroke-linejoin="round" stroke-linecap="round"/><path d="M 181 276 Q 179.5 270 182 265" fill="none" stroke="#FFFFFF" stroke-width="1.4" stroke-linejoin="round" stroke-linecap="round" opacity="0.7"/></g>
<g id="kniha"><rect x="134" y="202" width="14" height="34" rx="2" fill="#F3B9C8" stroke="#2F2E3F" stroke-width="2" stroke-linejoin="round" stroke-linecap="round"/><path d="M 135.5 207 L 146.5 207" stroke="#2F2E3F" stroke-width="1.2" stroke-linejoin="round" stroke-linecap="round" opacity="0.45"/><path d="M 135.5 231 L 146.5 231" stroke="#2F2E3F" stroke-width="1.2" stroke-linejoin="round" stroke-linecap="round" opacity="0.45"/><rect x="136.5" y="213" width="9" height="7" rx="0.8" fill="#FBF9F5" stroke="#2F2E3F" stroke-width="0.9" stroke-linejoin="round" stroke-linecap="round"/><path d="M 136.2 204.5 L 136.2 233.5" stroke="#FFFFFF" stroke-width="1.1" stroke-linejoin="round" stroke-linecap="round" opacity="0.45"/></g>
<g id="vrch"><rect x="14" y="122" width="212" height="8" rx="3" fill="#D8BF9A" stroke="none" opacity="0.9"/><path d="M 70 122.5 L 220 122.5" fill="none" stroke="#FFFFFF" stroke-width="1.6" stroke-linejoin="round" stroke-linecap="round" opacity="0.5"/></g>
<g id="květina"><path d="M 26 118 L 28 102 L 54 102 L 52 118 Z" fill="#C5D6E8" stroke="#2F2E3F" stroke-width="2" stroke-linejoin="round" stroke-linecap="round"/><rect x="25" y="99" width="31" height="6" rx="2" fill="#DCE6F2" stroke="#2F2E3F" stroke-width="1.8" stroke-linejoin="round" stroke-linecap="round"/><path d="M 29 110 L 53 110" fill="none" stroke="#9FC0E6" stroke-width="2" stroke-linejoin="round" stroke-linecap="round" opacity="0.6"/><path d="M 31 104 L 31 115" fill="none" stroke="#FFFFFF" stroke-width="1.6" stroke-linejoin="round" stroke-linecap="round" opacity="0.5"/><path d="M 37.6 101.0 Q 26.6 74.6 10.0 96.0 Q 25.4 81.4 42.4 101.0 Z" fill="#7FB06F" stroke="#2F2E3F" stroke-width="1.4" stroke-linejoin="round" stroke-linecap="round"/><path d="M 40.0 100.0 Q 26.0 78.0 10.0 96.0" fill="none" stroke="#FBF9F5" stroke-width="1.1" stroke-linejoin="round" stroke-linecap="round" opacity="0.7"/><path d="M 37.6 101.0 Q 36.8 68.1 22.0 74.0 Q 31.2 71.9 42.4 101.0 Z" fill="#9FCB8F" stroke="#2F2E3F" stroke-width="1.4" stroke-linejoin="round" stroke-linecap="round"/><path d="M 40.0 100.0 Q 34.0 70.0 22.0 74.0" fill="none" stroke="#FBF9F5" stroke-width="1.1" stroke-linejoin="round" stroke-linecap="round" opacity="0.7"/><path d="M 37.6 101.0 Q 47.1 65.3 52.0 72.0 Q 40.9 62.7 42.4 101.0 Z" fill="#7FB06F" stroke="#2F2E3F" stroke-width="1.4" stroke-linejoin="round" stroke-linecap="round"/><path d="M 40.0 100.0 Q 44.0 64.0 52.0 72.0" fill="none" stroke="#FBF9F5" stroke-width="1.1" stroke-linejoin="round" stroke-linecap="round" opacity="0.7"/><path d="M 37.6 101.0 Q 59.4 77.1 72.0 86.0 Q 56.6 70.9 42.4 101.0 Z" fill="#9FCB8F" stroke="#2F2E3F" stroke-width="1.4" stroke-linejoin="round" stroke-linecap="round"/><path d="M 40.0 100.0 Q 58.0 74.0 72.0 86.0" fill="none" stroke="#FBF9F5" stroke-width="1.1" stroke-linejoin="round" stroke-linecap="round" opacity="0.7"/><path d="M 37.6 101.0 Q 69.0 88.1 86.0 112.0 Q 71.0 79.9 42.4 101.0 Z" fill="#7FB06F" stroke="#2F2E3F" stroke-width="1.4" stroke-linejoin="round" stroke-linecap="round"/><path d="M 40.0 100.0 Q 70.0 84.0 86.0 112.0" fill="none" stroke="#FBF9F5" stroke-width="1.1" stroke-linejoin="round" stroke-linecap="round" opacity="0.7"/><path d="M 37.6 101.0 Q 13.6 88.5 6.0 124.0 Q 18.4 95.5 42.4 101.0 Z" fill="#9FCB8F" stroke="#2F2E3F" stroke-width="1.4" stroke-linejoin="round" stroke-linecap="round"/><path d="M 40.0 100.0 Q 16.0 92.0 6.0 124.0" fill="none" stroke="#FBF9F5" stroke-width="1.1" stroke-linejoin="round" stroke-linecap="round" opacity="0.7"/><path d="M 37.6 101.0 Q 60.7 100.6 70.0 140.0 Q 67.3 95.4 42.4 101.0 Z" fill="#7FB06F" stroke="#2F2E3F" stroke-width="1.4" stroke-linejoin="round" stroke-linecap="round"/><path d="M 40.0 100.0 Q 64.0 98.0 70.0 140.0" fill="none" stroke="#FBF9F5" stroke-width="1.1" stroke-linejoin="round" stroke-linecap="round" opacity="0.7"/><path d="M 37.6 101.0 Q 22.1 102.5 22.0 148.0 Q 29.9 105.5 42.4 101.0 Z" fill="#9FCB8F" stroke="#2F2E3F" stroke-width="1.4" stroke-linejoin="round" stroke-linecap="round"/><path d="M 40.0 100.0 Q 26.0 104.0 22.0 148.0" fill="none" stroke="#FBF9F5" stroke-width="1.1" stroke-linejoin="round" stroke-linecap="round" opacity="0.7"/><path d="M 37.6 101.0 Q 43.8 110.4 46.0 160.0 Q 52.2 109.6 42.4 101.0 Z" fill="#7FB06F" stroke="#2F2E3F" stroke-width="1.4" stroke-linejoin="round" stroke-linecap="round"/><path d="M 40.0 100.0 Q 48.0 110.0 46.0 160.0" fill="none" stroke="#FBF9F5" stroke-width="1.1" stroke-linejoin="round" stroke-linecap="round" opacity="0.7"/><path d="M 30 104 Q 6 100 4 132 L 4 166" fill="none" stroke="#5C8C4E" stroke-width="1.8" stroke-linejoin="round" stroke-linecap="round"/><path d="M 1.6 168.0 Q -2.3 168.8 -4.0 184.0 Q 2.3 171.2 6.4 168.0 Z" fill="#9FCB8F" stroke="#2F2E3F" stroke-width="1.4" stroke-linejoin="round" stroke-linecap="round"/><path d="M 4.0 167.0 Q 0.0 170.0 -4.0 184.0" fill="none" stroke="#FBF9F5" stroke-width="1.1" stroke-linejoin="round" stroke-linecap="round" opacity="0.7"/><path d="M 1.6 168.0 Q 5.9 169.5 14.0 182.0 Q 10.1 166.5 6.4 168.0 Z" fill="#9FCB8F" stroke="#2F2E3F" stroke-width="1.4" stroke-linejoin="round" stroke-linecap="round"/><path d="M 4.0 167.0 Q 8.0 168.0 14.0 182.0" fill="none" stroke="#FBF9F5" stroke-width="1.1" stroke-linejoin="round" stroke-linecap="round" opacity="0.7"/><path d="M 1.6 168.0 Q 1.4 174.0 4.0 190.0 Q 6.6 174.0 6.4 168.0 Z" fill="#9FCB8F" stroke="#2F2E3F" stroke-width="1.4" stroke-linejoin="round" stroke-linecap="round"/><path d="M 4.0 167.0 Q 4.0 174.0 4.0 190.0" fill="none" stroke="#FBF9F5" stroke-width="1.1" stroke-linejoin="round" stroke-linecap="round" opacity="0.7"/></g>
<g id="stav: spadlá kniha" data-state="hidden" data-replaces="kniha"><path d="M 170 289 L 204 289 L 209 282 L 175 282 Z" fill="#F3B9C8" stroke="#2F2E3F" stroke-width="2" stroke-linejoin="round" stroke-linecap="round"/><path d="M 170 289 L 204 289 L 204 295 L 170 295 Z" fill="#D48FA6" stroke="#2F2E3F" stroke-width="2" stroke-linejoin="round" stroke-linecap="round"/><path d="M 204 289 L 209 282 L 209 288 L 204 295 Z" fill="#FBF9F5" stroke="#2F2E3F" stroke-width="2" stroke-linejoin="round" stroke-linecap="round"/><path d="M 176 284.5 L 203 284.5" stroke="#2F2E3F" stroke-width="1" stroke-linejoin="round" stroke-linecap="round" opacity="0.35"/></g>
<g id="stav: prach" data-state="hidden"><ellipse cx="40" cy="130" rx="12" ry="3" fill="#B8B3C4" stroke="none" opacity="0.5"/><ellipse cx="86" cy="134" rx="12" ry="3" fill="#B8B3C4" stroke="none" opacity="0.5"/><ellipse cx="132" cy="130" rx="12" ry="3" fill="#B8B3C4" stroke="none" opacity="0.5"/><ellipse cx="178" cy="134" rx="12" ry="3" fill="#B8B3C4" stroke="none" opacity="0.5"/></g>
<rect id="@pata" x="8" y="264" width="224" height="32" fill="#FFB13D" opacity="0.2"/>
<rect id="@plošina" x="66" y="120" width="160" height="20" fill="#3DFF9A" opacity="0.2"/>
<rect id="@dotyk knihy" x="20" y="134" width="200" height="150" fill="#FF3D9A" opacity="0.2"/>
<circle id="@čep květina" cx="40" cy="118" r="6" fill="#FF3D9A" opacity="0.5"/>
</svg>
