<svg xmlns="http://www.w3.org/2000/svg" viewBox="0 0 160 200" width="160" height="200">
<g id="stín" data-box="13 183 134 18"><ellipse cx="80" cy="192" rx="66" ry="8" fill="#2F2E3F" stroke="none" opacity="0.14"/></g>
<g id="podstavec" data-box="15.25 125.75 129.5 73"><path d="M 80 166 L 22 188" fill="none" stroke="#2F2E3F" stroke-width="10" stroke-linejoin="round" stroke-linecap="round"/><path d="M 80 166 L 54 192" fill="none" stroke="#2F2E3F" stroke-width="10" stroke-linejoin="round" stroke-linecap="round"/><path d="M 80 166 L 106 192" fill="none" stroke="#2F2E3F" stroke-width="10" stroke-linejoin="round" stroke-linecap="round"/><path d="M 80 166 L 138 188" fill="none" stroke="#2F2E3F" stroke-width="10" stroke-linejoin="round" stroke-linecap="round"/><path d="M 80 166 L 22 188" fill="none" stroke="#8A7052" stroke-width="6" stroke-linejoin="round" stroke-linecap="round"/><path d="M 80 166 L 54 192" fill="none" stroke="#8A7052" stroke-width="6" stroke-linejoin="round" stroke-linecap="round"/><path d="M 80 166 L 106 192" fill="none" stroke="#8A7052" stroke-width="6" stroke-linejoin="round" stroke-linecap="round"/><path d="M 80 166 L 138 188" fill="none" stroke="#8A7052" stroke-width="6" stroke-linejoin="round" stroke-linecap="round"/><rect x="73" y="128" width="14" height="42" rx="3" fill="#8A7052" stroke="#2F2E3F" stroke-width="2.5" stroke-linejoin="round" stroke-linecap="round"/><rect x="70" y="150" width="20" height="8" rx="3" fill="#9A94A8" stroke="#2F2E3F" stroke-width="1.6" stroke-linejoin="round" stroke-linecap="round"/><circle cx="22" cy="188" r="5" fill="#6E6880" stroke="#2F2E3F" stroke-width="1.5" stroke-linejoin="round" stroke-linecap="round"/><circle cx="54" cy="192" r="5" fill="#6E6880" stroke="#2F2E3F" stroke-width="1.5" stroke-linejoin="round" stroke-linecap="round"/><circle cx="106" cy="192" r="5" fill="#6E6880" stroke="#2F2E3F" stroke-width="1.5" stroke-linejoin="round" stroke-linecap="round"/><circle cx="138" cy="188" r="5" fill="#6E6880" stroke="#2F2E3F" stroke-width="1.5" stroke-linejoin="round" stroke-linecap="round"/></g>
<g id="opěradlo" data-box="19.75 17.75 120.5 92.25"><rect x="24" y="40" width="10" height="68" rx="3" fill="#A88C66" stroke="#2F2E3F" stroke-width="2" stroke-linejoin="round" stroke-linecap="round"/><rect x="126" y="40" width="10" height="68" rx="3" fill="#A88C66" stroke="#2F2E3F" stroke-width="2" stroke-linejoin="round" stroke-linecap="round"/><rect x="44" y="50" width="7" height="56" rx="2" fill="#A88C66" stroke="#2F2E3F" stroke-width="1.8" stroke-linejoin="round" stroke-linecap="round"/><rect x="62" y="50" width="7" height="56" rx="2" fill="#A88C66" stroke="#2F2E3F" stroke-width="1.8" stroke-linejoin="round" stroke-linecap="round"/><rect x="80" y="50" width="7" height="56" rx="2" fill="#A88C66" stroke="#2F2E3F" stroke-width="1.8" stroke-linejoin="round" stroke-linecap="round"/><rect x="98" y="50" width="7" height="56" rx="2" fill="#A88C66" stroke="#2F2E3F" stroke-width="1.8" stroke-linejoin="round" stroke-linecap="round"/><rect x="116" y="50" width="7" height="56" rx="2" fill="#A88C66" stroke="#2F2E3F" stroke-width="1.8" stroke-linejoin="round" stroke-linecap="round"/><path d="M 46 54 L 46 100" stroke="#D8BF9A" stroke-width="1.4" stroke-linejoin="round" stroke-linecap="round" opacity="0.7"/><path d="M 64 54 L 64 100" stroke="#D8BF9A" stroke-width="1.4" stroke-linejoin="round" stroke-linecap="round" opacity="0.7"/><path d="M 82 54 L 82 100" stroke="#D8BF9A" stroke-width="1.4" stroke-linejoin="round" stroke-linecap="round" opacity="0.7"/><path d="M 100 54 L 100 100" stroke="#D8BF9A" stroke-width="1.4" stroke-linejoin="round" stroke-linecap="round" opacity="0.7"/><path d="M 118 54 L 118 100" stroke="#D8BF9A" stroke-width="1.4" stroke-linejoin="round" stroke-linecap="round" opacity="0.7"/><path d="M 22 46 Q 80 20 138 46 L 138 60 Q 80 36 22 60 Z" fill="#C9AD84" stroke="#2F2E3F" stroke-width="2.5" stroke-linejoin="round" stroke-linecap="round"/><path d="M 34 44 Q 80 26 126 44" fill="none" stroke="#FFFFFF" stroke-width="2.5" stroke-linejoin="round" stroke-linecap="round" opacity="0.5"/><path d="M 30 54 Q 80 32 130 54" fill="none" stroke="#8A7052" stroke-width="1.2" stroke-linejoin="round" stroke-linecap="round" opacity="0.5"/></g>
<g id="sedák" data-box="15.75 94 128.5 38.25"><rect x="18" y="104" width="124" height="26" rx="10" fill="#C9AD84" stroke="#2F2E3F" stroke-width="2.5" stroke-linejoin="round" stroke-linecap="round"/><rect x="24" y="106" width="112" height="6" rx="3" fill="#D8BF9A" stroke="none"/><rect x="24" y="122" width="112" height="6" rx="3" fill="#8A7052" stroke="none" opacity="0.45"/><path d="M 30 106 Q 30 96 44 96 L 116 96 Q 130 96 130 106 L 130 110 Q 80 116 30 110 Z" fill="#E8C86E" stroke="#2F2E3F" stroke-width="2" stroke-linejoin="round" stroke-linecap="round"/><path d="M 41.5 104 L 46 104" stroke="#C9A24E" stroke-width="1.2" stroke-linejoin="round" stroke-linecap="round"/><path d="M 51.5 104 L 56 104" stroke="#C9A24E" stroke-width="1.2" stroke-linejoin="round" stroke-linecap="round"/><path d="M 61.5 104 L 66 104" stroke="#C9A24E" stroke-width="1.2" stroke-linejoin="round" stroke-linecap="round"/><path d="M 71.5 104 L 76 104" stroke="#C9A24E" stroke-width="1.2" stroke-linejoin="round" stroke-linecap="round"/><path d="M 81.5 104 L 86 104" stroke="#C9A24E" stroke-width="1.2" stroke-linejoin="round" stroke-linecap="round"/><path d="M 91.5 104 L 96 104" stroke="#C9A24E" stroke-width="1.2" stroke-linejoin="round" stroke-linecap="round"/><path d="M 101.5 104 L 106 104" stroke="#C9A24E" stroke-width="1.2" stroke-linejoin="round" stroke-linecap="round"/><path d="M 111.5 104 L 116 104" stroke="#C9A24E" stroke-width="1.2" stroke-linejoin="round" stroke-linecap="round"/><path d="M 34 108 q -6 4 -8 10 M 126 108 q 6 4 8 10" fill="none" stroke="#C9A24E" stroke-width="1.8" stroke-linejoin="round" stroke-linecap="round"/></g>
<g id="područky" data-box="6 76 148 31.75"><rect x="8" y="78" width="34" height="10" rx="4" fill="#C9AD84" stroke="#2F2E3F" stroke-width="2" stroke-linejoin="round" stroke-linecap="round"/><rect x="118" y="78" width="34" height="10" rx="4" fill="#C9AD84" stroke="#2F2E3F" stroke-width="2" stroke-linejoin="round" stroke-linecap="round"/><path d="M 12 81 L 36 81" fill="none" stroke="#FFFFFF" stroke-width="1.6" stroke-linejoin="round" stroke-linecap="round" opacity="0.5"/><path d="M 122 81 L 146 81" fill="none" stroke="#FFFFFF" stroke-width="1.6" stroke-linejoin="round" stroke-linecap="round" opacity="0.5"/><rect x="18" y="86" width="7" height="20" rx="2" fill="#A88C66" stroke="#2F2E3F" stroke-width="1.5" stroke-linejoin="round" stroke-linecap="round"/><rect x="135" y="86" width="7" height="20" rx="2" fill="#A88C66" stroke="#2F2E3F" stroke-width="1.5" stroke-linejoin="round" stroke-linecap="round"/></g>
<g id="stav: roztočené" data-state="hidden" data-box="37.75 135.75 104.5 16.5"><path d="M 40 150 q 10 -12 20 0" fill="none" stroke="#9A94A8" stroke-width="2.5" stroke-linejoin="round" stroke-linecap="round" opacity="0.7"/><path d="M 80 150 q 10 -12 20 0" fill="none" stroke="#9A94A8" stroke-width="2.5" stroke-linejoin="round" stroke-linecap="round" opacity="0.7"/><path d="M 120 150 q 10 -12 20 0" fill="none" stroke="#9A94A8" stroke-width="2.5" stroke-linejoin="round" stroke-linecap="round" opacity="0.7"/></g>
<rect id="@pata" x="18" y="160" width="124" height="28" fill="#FFB13D" opacity="0.2"/>
<rect id="@plošina" x="24" y="108" width="112" height="16" fill="#3DFF9A" opacity="0.2"/>
</svg>
