<svg xmlns="http://www.w3.org/2000/svg" viewBox="0 0 110 120" width="110" height="120">
<g id="stav: světlo" data-state="hidden" data-box="-1 45 102 74"><path d="M 16 54 L 58 46 L 100 118 L 0 118 Z" fill="#FFE9B0" stroke="none" opacity="0.32"/><path d="M 22 54 L 52 49 L 74 118 L 10 118 Z" fill="#FBEFD6" stroke="none" opacity="0.3"/></g>
<g id="noha" data-box="39.5 34.2 61 84.3"><ellipse cx="70" cy="108" rx="28" ry="8" fill="#E0B95E" stroke="#2F2E3F" stroke-width="3" stroke-linejoin="round" stroke-linecap="round"/><ellipse cx="66" cy="106" rx="16" ry="3" fill="#FFE9B0" stroke="none" opacity="0.7"/><circle cx="70" cy="100" r="5" fill="#9A94A8" stroke="#2F2E3F" stroke-width="1.6" stroke-linejoin="round" stroke-linecap="round"/><path d="M 70 100 L 84 66" fill="none" stroke="#2F2E3F" stroke-width="7" stroke-linejoin="round" stroke-linecap="round"/><path d="M 70 100 L 84 66" fill="none" stroke="#9A94A8" stroke-width="3.6" stroke-linejoin="round" stroke-linecap="round"/><circle cx="84" cy="66" r="4.2" fill="#9A94A8" stroke="#2F2E3F" stroke-width="1.6" stroke-linejoin="round" stroke-linecap="round"/><path d="M 84 66 L 54 40" fill="none" stroke="#2F2E3F" stroke-width="7" stroke-linejoin="round" stroke-linecap="round"/><path d="M 84 66 L 54 40" fill="none" stroke="#9A94A8" stroke-width="3.6" stroke-linejoin="round" stroke-linecap="round"/><path d="M 74 96 q 6 -14 12 -26" fill="none" stroke="#6E6880" stroke-width="1.2" stroke-linejoin="round" stroke-linecap="round" opacity="0.7"/><circle cx="54" cy="40" r="4" fill="#9A94A8" stroke="#2F2E3F" stroke-width="1.6" stroke-linejoin="round" stroke-linecap="round"/></g>
<g id="stínítko" data-box="9.5 15.5 59 50.3"><path d="M 12 58 Q 14 30 36 22 Q 56 18 62 40 L 66 50 Q 40 62 12 58 Z" fill="#E8C86E" stroke="#2F2E3F" stroke-width="3" stroke-linejoin="round" stroke-linecap="round"/><path d="M 14 56 Q 40 60 64 48 L 62 52 Q 40 64 16 60 Z" fill="#FFF4DA" stroke="#2F2E3F" stroke-width="1.6" stroke-linejoin="round" stroke-linecap="round"/><path d="M 22 40 Q 26 30 36 26" fill="none" stroke="#FFFFFF" stroke-width="2.5" stroke-linejoin="round" stroke-linecap="round" opacity="0.6"/><circle cx="54" cy="34" r="3" fill="#9A94A8" stroke="#2F2E3F" stroke-width="1.2" stroke-linejoin="round" stroke-linecap="round"/></g>
<rect id="@dotyk stínítko" x="10" y="20" width="70" height="36" fill="#FF3D9A" opacity="0.2"/>
</svg>
