<svg xmlns="http://www.w3.org/2000/svg" viewBox="0 0 280 170" width="280" height="170">
<g id="stín"><ellipse cx="140" cy="162" rx="130" ry="10" fill="#2F2E3F" stroke="none" opacity="0.14"/></g>
<g id="vnitřek"><path d="M 20 70 Q 20 40 50 40 L 230 40 Q 260 40 260 70 L 260 110 L 20 110 Z" fill="#FBEFD6" stroke="#2F2E3F" stroke-width="3" stroke-linejoin="round" stroke-linecap="round"/><path d="M 34 60 Q 34 50 46 50 L 234 50 Q 246 50 246 60 L 246 100 L 34 100 Z" fill="#FFF4DA" stroke="#F2CF7A" stroke-width="2" stroke-linejoin="round" stroke-linecap="round"/></g>
<g id="stav: voda" data-state="hidden"><path d="M 36 62 L 244 62 L 244 100 L 36 100 Z" fill="#9FC0E6" stroke="none" opacity="0.55"/><ellipse cx="110" cy="66" rx="30" ry="4" fill="#FFFFFF" stroke="none" opacity="0.6"/></g>
<g id="kohoutek"><rect x="220" y="4" width="12" height="40" rx="4" fill="#B8B3C4" stroke="#2F2E3F" stroke-width="2" stroke-linejoin="round" stroke-linecap="round"/><path d="M 226 8 q 26 0 26 22" fill="none" stroke="#B8B3C4" stroke-width="8" stroke-linejoin="round" stroke-linecap="round"/><path d="M 226 8 q 26 0 26 22" fill="none" stroke="#2F2E3F" stroke-width="2" stroke-linejoin="round" stroke-linecap="round"/><circle cx="210" cy="12" r="8" fill="#B7CBE6" stroke="#2F2E3F" stroke-width="2" stroke-linejoin="round" stroke-linecap="round"/><circle cx="242" cy="12" r="8" fill="#EFA79A" stroke="#2F2E3F" stroke-width="2" stroke-linejoin="round" stroke-linecap="round"/></g>
<g id="stav: kape" data-state="hidden"><circle cx="252" cy="40" r="3" fill="#9FC0E6" stroke="none"/><circle cx="252" cy="52" r="2.5" fill="#9FC0E6" stroke="none" opacity="0.6"/></g>
<g id="před: přední stěna"><path d="M 10 96 Q 10 84 24 84 L 256 84 Q 270 84 270 96 L 270 150 L 10 150 Z" fill="#FFE9B0" stroke="#2F2E3F" stroke-width="3" stroke-linejoin="round" stroke-linecap="round"/><rect x="14" y="134" width="252" height="12" rx="4" fill="#F2CF7A" stroke="none" opacity="0.6"/><rect x="36" y="150" width="22" height="10" rx="3" fill="#9A94A8" stroke="#2F2E3F" stroke-width="2" stroke-linejoin="round" stroke-linecap="round"/><rect x="222" y="150" width="22" height="10" rx="3" fill="#9A94A8" stroke="#2F2E3F" stroke-width="2" stroke-linejoin="round" stroke-linecap="round"/><path d="M 30 96 L 120 96" fill="none" stroke="#FFFFFF" stroke-width="3" stroke-linejoin="round" stroke-linecap="round" opacity="0.7"/></g>
<rect id="@pata" x="10" y="120" width="260" height="40" fill="#FFB13D" opacity="0.2"/>
<rect id="@plošina" x="10" y="75" width="260" height="20" fill="#3DFF9A" opacity="0.2"/>
<rect id="@plošina dno" x="40" y="130" width="200" height="20" fill="#3DFF9A" opacity="0.2"/>
<rect id="@úkryt v" x="40" y="50" width="200" height="50" fill="#3DA9FF" opacity="0.2"/>
<rect id="@dotyk kohoutek" x="200" y="4" width="60" height="50" fill="#FF3D9A" opacity="0.2"/>
</svg>
