<svg xmlns="http://www.w3.org/2000/svg" viewBox="0 0 130 170" width="130" height="170">
<g id="stín" data-box="4 157 122 14"><ellipse cx="65" cy="164" rx="60" ry="6" fill="#2F2E3F" stroke="none" opacity="0.14"/></g>
<g id="skříň" data-box="5.5 57.5 119 105"><rect x="8" y="60" width="114" height="100" rx="8" fill="#F6F4F9" stroke="#2F2E3F" stroke-width="3" stroke-linejoin="round" stroke-linecap="round"/><rect x="8" y="60" width="114" height="18" rx="6" fill="#CFCBD8" stroke="#2F2E3F" stroke-width="3" stroke-linejoin="round" stroke-linecap="round"/><circle cx="28" cy="69" r="5.5" fill="#FBF9F5" stroke="#2F2E3F" stroke-width="1.5" stroke-linejoin="round" stroke-linecap="round"/><path d="M 28 69 L 28 65" stroke="#2F2E3F" stroke-width="1.5" stroke-linejoin="round" stroke-linecap="round"/><circle cx="21.07" cy="65" r="0.9" fill="#9A94A8" stroke="none"/><circle cx="26.61" cy="61.12" r="0.9" fill="#9A94A8" stroke="none"/><circle cx="33.14" cy="62.87" r="0.9" fill="#9A94A8" stroke="none"/><circle cx="36" cy="69" r="0.9" fill="#9A94A8" stroke="none"/><circle cx="33.14" cy="75.13" r="0.9" fill="#9A94A8" stroke="none"/><circle cx="26.61" cy="76.88" r="0.9" fill="#9A94A8" stroke="none"/><circle cx="21.07" cy="73" r="0.9" fill="#9A94A8" stroke="none"/><rect x="70" y="65" width="40" height="8" rx="2" fill="#C9DAF0" stroke="#2F2E3F" stroke-width="1.5" stroke-linejoin="round" stroke-linecap="round"/><circle cx="46" cy="69" r="3" fill="#EFA79A" stroke="#2F2E3F" stroke-width="1.2" stroke-linejoin="round" stroke-linecap="round"/><rect x="12" y="150" width="106" height="6" rx="3" fill="#D8C7C0" stroke="none" opacity="0.6"/><path d="M 16 86 L 16 140" fill="none" stroke="#FFFFFF" stroke-width="3" stroke-linejoin="round" stroke-linecap="round" opacity="0.5"/></g>
<g id="dvířka" data-box="32.5 85.5 65 65"><circle cx="65" cy="118" r="30" fill="#B8B3C4" stroke="#2F2E3F" stroke-width="3" stroke-linejoin="round" stroke-linecap="round"/><circle cx="65" cy="118" r="22" fill="#E3EDF8" stroke="#2F2E3F" stroke-width="2.5" stroke-linejoin="round" stroke-linecap="round"/><ellipse cx="58" cy="110" rx="7" ry="4" fill="#FFFFFF" stroke="none" opacity="0.6"/></g>
<g id="vrch" data-box="1.5 49.5 127 17"><rect x="4" y="52" width="122" height="12" rx="6" fill="#FBF9F5" stroke="#2F2E3F" stroke-width="3" stroke-linejoin="round" stroke-linecap="round"/></g>
<g id="stav: pere" data-state="hidden" data-box="40.75 65 63.25 77.25"><circle cx="65" cy="118" r="22" fill="#B7CBE6" stroke="#2F2E3F" stroke-width="2.5" stroke-linejoin="round" stroke-linecap="round"/><path d="M 48 124 q 9 -12 17 0 q 9 12 17 0" fill="none" stroke="#FFFFFF" stroke-width="3" stroke-linejoin="round" stroke-linecap="round"/><circle cx="52" cy="110" r="3" fill="#FFFFFF" stroke="none"/><circle cx="78" cy="108" r="2" fill="#FFFFFF" stroke="none"/><circle cx="100" cy="69" r="3" fill="#7FB06F" stroke="none"/></g>
<rect id="@pata" x="8" y="146" width="114" height="20" fill="#FFB13D" opacity="0.2"/>
<rect id="@plošina" x="4" y="54" width="122" height="16" fill="#3DFF9A" opacity="0.2"/>
<rect id="@úkryt za" x="96" y="80" width="30" height="80" fill="#3DA9FF" opacity="0.2"/>
<rect id="@dotyk dvířka" x="35" y="88" width="60" height="60" fill="#FF3D9A" opacity="0.2"/>
</svg>
