<svg xmlns="http://www.w3.org/2000/svg" viewBox="0 0 220 150" width="220" height="150">
<g id="stín" data-box="5 125 210 18"><ellipse cx="110" cy="134" rx="104" ry="8" fill="#2F2E3F" stroke="none" opacity="0.14"/></g>
<g id="vnitřek" data-box="19 39 182 72"><rect x="20" y="40" width="180" height="70" fill="#6F5A41" stroke="none"/></g>
<g id="víko" data-box="9.5 27.5 201 50.5"><path d="M 12 60 Q 12 30 40 30 L 180 30 Q 208 30 208 60 L 208 70 L 12 70 Z" fill="#A88C66" stroke="#2F2E3F" stroke-width="3" stroke-linejoin="round" stroke-linecap="round"/><path d="M 12 40 L 208 40" stroke="#8A7052" stroke-width="1.3" stroke-linejoin="round" stroke-linecap="round" opacity="0.5"/><path d="M 12 49 L 208 49" stroke="#8A7052" stroke-width="1.3" stroke-linejoin="round" stroke-linecap="round" opacity="0.5"/><path d="M 12 58 L 208 58" stroke="#8A7052" stroke-width="1.3" stroke-linejoin="round" stroke-linecap="round" opacity="0.5"/><path d="M 30 38 Q 40 33 60 33" fill="none" stroke="#FFFFFF" stroke-width="2.5" stroke-linejoin="round" stroke-linecap="round" opacity="0.5"/><rect x="45" y="31" width="10" height="38" rx="1" fill="#9A94A8" stroke="#2F2E3F" stroke-width="1.8" stroke-linejoin="round" stroke-linecap="round"/><circle cx="50" cy="37" r="1.6" fill="#CFCBD8" stroke="none"/><circle cx="50" cy="47" r="1.6" fill="#CFCBD8" stroke="none"/><circle cx="50" cy="57" r="1.6" fill="#CFCBD8" stroke="none"/><rect x="165" y="31" width="10" height="38" rx="1" fill="#9A94A8" stroke="#2F2E3F" stroke-width="1.8" stroke-linejoin="round" stroke-linecap="round"/><circle cx="170" cy="37" r="1.6" fill="#CFCBD8" stroke="none"/><circle cx="170" cy="47" r="1.6" fill="#CFCBD8" stroke="none"/><circle cx="170" cy="57" r="1.6" fill="#CFCBD8" stroke="none"/><rect x="105" y="30" width="10" height="32" rx="1" fill="#9A94A8" stroke="#2F2E3F" stroke-width="1.8" stroke-linejoin="round" stroke-linecap="round"/><circle cx="110" cy="36" r="1.6" fill="#CFCBD8" stroke="none"/><circle cx="110" cy="46" r="1.6" fill="#CFCBD8" stroke="none"/><circle cx="110" cy="56" r="1.6" fill="#CFCBD8" stroke="none"/><rect x="100" y="62" width="20" height="14" rx="3" fill="#F2CF7A" stroke="#2F2E3F" stroke-width="2" stroke-linejoin="round" stroke-linecap="round"/></g>
<g id="stav: otevřená" data-state="hidden" data-replaces="před: klobouk" data-box="9.5 -8.5 201 80.2"><path d="M 12 60 Q 12 30 40 30 L 180 30 Q 208 30 208 60 L 208 70 L 12 70 Z" fill="#6F5A41" stroke="none" opacity="0"/><path d="M 12 36 Q 20 4 48 2 L 172 -6 Q 204 -6 208 26 L 208 36 L 12 46 Z" fill="#A88C66" stroke="#2F2E3F" stroke-width="3" stroke-linejoin="round" stroke-linecap="round"/><path d="M 22 34 Q 28 12 50 10 L 170 4 Q 196 4 198 26 L 198 32 L 22 40 Z" fill="#B79A73" stroke="none" opacity="0.8"/><rect x="30" y="40" width="160" height="30" fill="#6F5A41" stroke="none"/><rect x="36" y="54" width="54" height="16" rx="2" fill="#F4EEE4" stroke="#2F2E3F" stroke-width="1.4" stroke-linejoin="round" stroke-linecap="round"/><path d="M 36 58 q 4 -3 8 0 t 8 0 t 8 0 t 8 0 t 8 0 t 8 0 t 6 0" fill="none" stroke="#D9CFC6" stroke-width="1.2" stroke-linejoin="round" stroke-linecap="round"/><rect x="98" y="50" width="46" height="20" rx="2" fill="#B9AECB" stroke="#2F2E3F" stroke-width="1.4" stroke-linejoin="round" stroke-linecap="round"/><rect x="100" y="52" width="8" height="16" rx="1" fill="#8F84A8" stroke="none"/><rect x="152" y="56" width="30" height="14" rx="1" fill="#F4E8CF" stroke="#2F2E3F" stroke-width="1.2" stroke-linejoin="round" stroke-linecap="round"/><path d="M 152 63 L 182 63" stroke="#E07E6D" stroke-width="1.4" stroke-linejoin="round" stroke-linecap="round"/></g>
<g id="před: přední stěna" data-box="9.5 67.5 201 66.5"><rect x="12" y="70" width="196" height="54" fill="#C9AD84" stroke="#2F2E3F" stroke-width="3" stroke-linejoin="round" stroke-linecap="round"/><path d="M 12 84 L 208 84" stroke="#A88C66" stroke-width="1.4" stroke-linejoin="round" stroke-linecap="round" opacity="0.6"/><path d="M 12 97 L 208 97" stroke="#A88C66" stroke-width="1.4" stroke-linejoin="round" stroke-linecap="round" opacity="0.6"/><path d="M 12 110 L 208 110" stroke="#A88C66" stroke-width="1.4" stroke-linejoin="round" stroke-linecap="round" opacity="0.6"/><path d="M 17.0 80.3 q 48.0 4.0 96.0 0 t 90.0 0" fill="none" stroke="#A88C66" stroke-width="1.1" stroke-linejoin="round" stroke-linecap="round" opacity="0.35"/><path d="M 17.0 97.0 q 48.0 4.0 96.0 0 t 90.0 0" fill="none" stroke="#A88C66" stroke-width="1.1" stroke-linejoin="round" stroke-linecap="round" opacity="0.35"/><path d="M 17.0 113.7 q 48.0 4.0 96.0 0 t 90.0 0" fill="none" stroke="#A88C66" stroke-width="1.1" stroke-linejoin="round" stroke-linecap="round" opacity="0.35"/><rect x="16" y="112" width="188" height="8" rx="3" fill="#8A7052" stroke="none" opacity="0.5"/><rect x="45" y="71" width="10" height="52" rx="1" fill="#9A94A8" stroke="#2F2E3F" stroke-width="1.8" stroke-linejoin="round" stroke-linecap="round"/><circle cx="50" cy="77" r="1.6" fill="#CFCBD8" stroke="none"/><circle cx="50" cy="87" r="1.6" fill="#CFCBD8" stroke="none"/><circle cx="50" cy="97" r="1.6" fill="#CFCBD8" stroke="none"/><circle cx="50" cy="107" r="1.6" fill="#CFCBD8" stroke="none"/><circle cx="50" cy="117" r="1.6" fill="#CFCBD8" stroke="none"/><rect x="165" y="71" width="10" height="52" rx="1" fill="#9A94A8" stroke="#2F2E3F" stroke-width="1.8" stroke-linejoin="round" stroke-linecap="round"/><circle cx="170" cy="77" r="1.6" fill="#CFCBD8" stroke="none"/><circle cx="170" cy="87" r="1.6" fill="#CFCBD8" stroke="none"/><circle cx="170" cy="97" r="1.6" fill="#CFCBD8" stroke="none"/><circle cx="170" cy="107" r="1.6" fill="#CFCBD8" stroke="none"/><circle cx="170" cy="117" r="1.6" fill="#CFCBD8" stroke="none"/><rect x="105" y="76" width="10" height="47" rx="1" fill="#9A94A8" stroke="#2F2E3F" stroke-width="1.8" stroke-linejoin="round" stroke-linecap="round"/><circle cx="110" cy="82" r="1.6" fill="#CFCBD8" stroke="none"/><circle cx="110" cy="92" r="1.6" fill="#CFCBD8" stroke="none"/><circle cx="110" cy="102" r="1.6" fill="#CFCBD8" stroke="none"/><circle cx="110" cy="112" r="1.6" fill="#CFCBD8" stroke="none"/><path d="M 13 71 L 30 71 L 13 88 Z" fill="#9A94A8" stroke="#2F2E3F" stroke-width="1.6" stroke-linejoin="round" stroke-linecap="round"/><path d="M 207 71 L 190 71 L 207 88 Z" fill="#9A94A8" stroke="#2F2E3F" stroke-width="1.6" stroke-linejoin="round" stroke-linecap="round"/><path d="M 13 123 L 30 123 L 13 106 Z" fill="#9A94A8" stroke="#2F2E3F" stroke-width="1.6" stroke-linejoin="round" stroke-linecap="round"/><path d="M 207 123 L 190 123 L 207 106 Z" fill="#9A94A8" stroke="#2F2E3F" stroke-width="1.6" stroke-linejoin="round" stroke-linecap="round"/><rect x="100" y="70" width="20" height="22" rx="3" fill="#F2CF7A" stroke="#2F2E3F" stroke-width="2" stroke-linejoin="round" stroke-linecap="round"/><path d="M 110 78 a 2.4 2.4 0 1 1 0.1 0 l 1.6 7 l -3.4 0 Z" fill="#2F2E3F" stroke="none"/><rect x="20" y="124" width="20" height="8" rx="2" fill="#8A7052" stroke="#2F2E3F" stroke-width="2" stroke-linejoin="round" stroke-linecap="round"/><rect x="180" y="124" width="20" height="8" rx="2" fill="#8A7052" stroke="#2F2E3F" stroke-width="2" stroke-linejoin="round" stroke-linecap="round"/></g>
<g id="před: klobouk" data-box="131.75 5.75 52.5 32.05"><path d="M 144 31 C 143 20 145 12 150 11 Q 158 8 166 11 C 171 12 173 20 172 31 Z" fill="#9A94A8" stroke="#2F2E3F" stroke-width="2.5" stroke-linejoin="round" stroke-linecap="round"/><path d="M 150 12 Q 158 17 166 12" fill="none" stroke="#6E6880" stroke-width="2" stroke-linejoin="round" stroke-linecap="round"/><rect x="144" y="24" width="28" height="5" rx="1" fill="#D48FA6" stroke="#2F2E3F" stroke-width="1.5" stroke-linejoin="round" stroke-linecap="round"/><ellipse cx="158" cy="31" rx="24" ry="4.5" fill="#B8B3C4" stroke="#2F2E3F" stroke-width="2.5" stroke-linejoin="round" stroke-linecap="round"/><path d="M 138 31 Q 158 36 178 31" fill="none" stroke="#6E6880" stroke-width="1.6" stroke-linejoin="round" stroke-linecap="round" opacity="0.7"/></g>
<g id="před: stav: spadlý klobouk" data-state="hidden" data-replaces="před: klobouk" data-box="133.75 112.19 52.5 33.31"><ellipse cx="160" cy="142" rx="22" ry="2.5" fill="#2F2E3F" stroke="none" opacity="0.14"/><g data-pose="158 22 160 128 3.1416 1 1" transform="translate(160 128) rotate(180.000) scale(1 1) translate(-158 -22)"><path d="M 144 31 C 143 20 145 12 150 11 Q 158 8 166 11 C 171 12 173 20 172 31 Z" fill="#9A94A8" stroke="#2F2E3F" stroke-width="2.5" stroke-linejoin="round" stroke-linecap="round"/><path d="M 150 12 Q 158 17 166 12" fill="none" stroke="#6E6880" stroke-width="2" stroke-linejoin="round" stroke-linecap="round"/><rect x="144" y="24" width="28" height="5" rx="1" fill="#D48FA6" stroke="#2F2E3F" stroke-width="1.5" stroke-linejoin="round" stroke-linecap="round"/><ellipse cx="158" cy="31" rx="24" ry="4.5" fill="#B8B3C4" stroke="#2F2E3F" stroke-width="2.5" stroke-linejoin="round" stroke-linecap="round"/><path d="M 138 31 Q 158 36 178 31" fill="none" stroke="#6E6880" stroke-width="1.6" stroke-linejoin="round" stroke-linecap="round" opacity="0.7"/></g></g>
<rect id="@pata" x="12" y="100" width="196" height="30" fill="#FFB13D" opacity="0.2"/>
<rect id="@plošina" x="12" y="50" width="196" height="20" fill="#3DFF9A" opacity="0.2"/>
<rect id="@úkryt v" x="30" y="44" width="160" height="60" fill="#3DA9FF" opacity="0.2"/>
<rect id="@dotyk víko" x="12" y="30" width="196" height="40" fill="#FF3D9A" opacity="0.2"/>
<circle id="@čep klobouk" cx="158" cy="35.5" r="6" fill="#FF3D9A" opacity="0.5"/>
</svg>
