<svg xmlns="http://www.w3.org/2000/svg" viewBox="0 0 200 90" width="200" height="90">
<g id="deka" data-box="3.5 11.5 193 77"><path d="M 10 30 Q 100 14 190 30 L 194 74 Q 100 86 6 74 Z" fill="#FBF6EC" stroke="#2F2E3F" stroke-width="3" stroke-linejoin="round" stroke-linecap="round"/><rect x="14" y="30.5" width="25.6" height="11.5" rx="2" fill="#F3B9C8" stroke="none" opacity="0.9"/><rect x="19" y="33.1" width="15.6" height="5.9" rx="1.5" fill="#C9B8E8" stroke="none" opacity="0.9"/><rect x="43.6" y="31.1" width="25.6" height="11.5" rx="2" fill="#F2D06E" stroke="none" opacity="0.9"/><rect x="48.6" y="33.7" width="15.6" height="5.9" rx="1.5" fill="#EFA79A" stroke="none" opacity="0.9"/><rect x="73.2" y="31.7" width="25.6" height="11.5" rx="2" fill="#A9CDBE" stroke="none" opacity="0.9"/><rect x="78.2" y="34.3" width="15.6" height="5.9" rx="1.5" fill="#B7CBE6" stroke="none" opacity="0.9"/><rect x="102.8" y="31.7" width="25.6" height="11.5" rx="2" fill="#C9B8E8" stroke="none" opacity="0.9"/><rect x="107.8" y="34.3" width="15.6" height="5.9" rx="1.5" fill="#F3B9C8" stroke="none" opacity="0.9"/><rect x="132.4" y="31.1" width="25.6" height="11.5" rx="2" fill="#EFA79A" stroke="none" opacity="0.9"/><rect x="137.4" y="33.7" width="15.6" height="5.9" rx="1.5" fill="#F2D06E" stroke="none" opacity="0.9"/><rect x="162" y="30.5" width="25.6" height="11.5" rx="2" fill="#B7CBE6" stroke="none" opacity="0.9"/><rect x="167" y="33.1" width="15.6" height="5.9" rx="1.5" fill="#A9CDBE" stroke="none" opacity="0.9"/><rect x="12.8" y="45" width="25.6" height="11.5" rx="2" fill="#A9CDBE" stroke="none" opacity="0.9"/><rect x="17.8" y="47.6" width="15.6" height="5.9" rx="1.5" fill="#B7CBE6" stroke="none" opacity="0.9"/><rect x="42.4" y="45.6" width="25.6" height="11.5" rx="2" fill="#C9B8E8" stroke="none" opacity="0.9"/><rect x="47.4" y="48.2" width="15.6" height="5.9" rx="1.5" fill="#F3B9C8" stroke="none" opacity="0.9"/><rect x="72" y="46.2" width="25.6" height="11.5" rx="2" fill="#EFA79A" stroke="none" opacity="0.9"/><rect x="77" y="48.8" width="15.6" height="5.9" rx="1.5" fill="#F2D06E" stroke="none" opacity="0.9"/><rect x="101.6" y="46.2" width="25.6" height="11.5" rx="2" fill="#B7CBE6" stroke="none" opacity="0.9"/><rect x="106.6" y="48.8" width="15.6" height="5.9" rx="1.5" fill="#A9CDBE" stroke="none" opacity="0.9"/><rect x="131.2" y="45.6" width="25.6" height="11.5" rx="2" fill="#F3B9C8" stroke="none" opacity="0.9"/><rect x="136.2" y="48.2" width="15.6" height="5.9" rx="1.5" fill="#C9B8E8" stroke="none" opacity="0.9"/><rect x="160.8" y="45" width="25.6" height="11.5" rx="2" fill="#F2D06E" stroke="none" opacity="0.9"/><rect x="165.8" y="47.6" width="15.6" height="5.9" rx="1.5" fill="#EFA79A" stroke="none" opacity="0.9"/><rect x="11.6" y="59.5" width="25.6" height="11.5" rx="2" fill="#EFA79A" stroke="none" opacity="0.9"/><rect x="16.6" y="62.1" width="15.6" height="5.9" rx="1.5" fill="#F2D06E" stroke="none" opacity="0.9"/><rect x="41.2" y="60.1" width="25.6" height="11.5" rx="2" fill="#B7CBE6" stroke="none" opacity="0.9"/><rect x="46.2" y="62.7" width="15.6" height="5.9" rx="1.5" fill="#A9CDBE" stroke="none" opacity="0.9"/><rect x="70.8" y="60.7" width="25.6" height="11.5" rx="2" fill="#F3B9C8" stroke="none" opacity="0.9"/><rect x="75.8" y="63.3" width="15.6" height="5.9" rx="1.5" fill="#C9B8E8" stroke="none" opacity="0.9"/><rect x="100.4" y="60.7" width="25.6" height="11.5" rx="2" fill="#F2D06E" stroke="none" opacity="0.9"/><rect x="105.4" y="63.3" width="15.6" height="5.9" rx="1.5" fill="#EFA79A" stroke="none" opacity="0.9"/><rect x="130" y="60.1" width="25.6" height="11.5" rx="2" fill="#A9CDBE" stroke="none" opacity="0.9"/><rect x="135" y="62.7" width="15.6" height="5.9" rx="1.5" fill="#B7CBE6" stroke="none" opacity="0.9"/><rect x="159.6" y="59.5" width="25.6" height="11.5" rx="2" fill="#C9B8E8" stroke="none" opacity="0.9"/><rect x="164.6" y="62.1" width="15.6" height="5.9" rx="1.5" fill="#F3B9C8" stroke="none" opacity="0.9"/><path d="M 6 76 L 6 84" stroke="#E8C86E" stroke-width="1.6" stroke-linejoin="round" stroke-linecap="round"/><path d="M 10 77 L 10 84" stroke="#E8C86E" stroke-width="1.6" stroke-linejoin="round" stroke-linecap="round"/><path d="M 14 76 L 14 84" stroke="#E8C86E" stroke-width="1.6" stroke-linejoin="round" stroke-linecap="round"/><path d="M 184 76 L 184 84" stroke="#E8C86E" stroke-width="1.6" stroke-linejoin="round" stroke-linecap="round"/><path d="M 188 77 L 188 84" stroke="#E8C86E" stroke-width="1.6" stroke-linejoin="round" stroke-linecap="round"/><path d="M 192 76 L 192 84" stroke="#E8C86E" stroke-width="1.6" stroke-linejoin="round" stroke-linecap="round"/><path d="M 10 30 Q 100 14 190 30 L 194 74 Q 100 86 6 74 Z" fill="none" stroke="#2F2E3F" stroke-width="3" stroke-linejoin="round" stroke-linecap="round"/></g>
<g id="stav: důlek" data-state="hidden" data-box="59 39 82 26"><ellipse cx="100" cy="52" rx="40" ry="12" fill="#B9A8A0" stroke="none" opacity="0.3"/></g>
<rect id="@pata" x="8" y="32" width="184" height="42" fill="#FFB13D" opacity="0.2"/>
<rect id="@plošina" x="20" y="34" width="160" height="36" fill="#3DFF9A" opacity="0.2"/>
</svg>
