<svg xmlns="http://www.w3.org/2000/svg" viewBox="0 0 180 230" width="180" height="230">
<g id="stín"><ellipse cx="90" cy="224" rx="48" ry="7" fill="#2F2E3F" stroke="none" opacity="0.16"/></g>
<g id="kvítník"><path d="M 68 196 L 112 196 L 106 220 L 74 220 Z" fill="#E07E6D" stroke="#2F2E3F" stroke-width="2.5" stroke-linejoin="round" stroke-linecap="round"/><path d="M 66 194 L 114 194 L 112 202 L 68 202 Z" fill="#EFA79A" stroke="#2F2E3F" stroke-width="2" stroke-linejoin="round" stroke-linecap="round"/><path d="M 76 205 L 79 218 M 90 204 L 90 219 M 103 205 L 100 218" fill="none" stroke="#F7C9C0" stroke-width="1.4" stroke-linejoin="round" stroke-linecap="round" opacity="0.7"/></g>
<g id="kmínek"><rect x="84" y="176" width="12" height="26" rx="3" fill="#8A7052" stroke="#2F2E3F" stroke-width="3" stroke-linejoin="round" stroke-linecap="round"/></g>
<g id="jehličí"><path d="M 90 14 L 128 78 L 112 78 L 144 132 L 122 132 L 156 180 L 24 180 L 58 132 L 36 132 L 68 78 L 52 78 Z" fill="#7FB06F" stroke="#2F2E3F" stroke-width="3" stroke-linejoin="round" stroke-linecap="round"/><path d="M 90 26 L 118 74 L 90 74 Z" fill="#9FCB8F" stroke="none" opacity="0.7"/><path d="M 90 60 L 132 128 L 90 128 Z M 90 108 L 146 176 L 90 176 Z" fill="#5C8C4E" stroke="none" opacity="0.25"/><path d="M 89.4 21.1 l 4.0 5 M 90.6 21.1 l -4.0 5 M 94.9 30.3 l 4.0 5 M 85.1 30.3 l -4.0 5 M 100.3 39.4 l 4.0 5 M 79.7 39.4 l -4.0 5 M 105.7 48.6 l 4.0 5 M 74.3 48.6 l -4.0 5 M 111.1 57.7 l 4.0 5 M 68.9 57.7 l -4.0 5 M 116.6 66.9 l 4.0 5 M 63.4 66.9 l -4.0 5 M 107.1 83.1 l 4.0 5 M 72.9 83.1 l -4.0 5 M 114.9 94.9 l 4.0 5 M 65.1 94.9 l -4.0 5 M 122.6 106.6 l 4.0 5 M 57.4 106.6 l -4.0 5 M 130.3 118.3 l 4.0 5 M 49.7 118.3 l -4.0 5 M 112.3 131.1 l 4.0 5 M 67.7 131.1 l -4.0 5 M 121.7 142.9 l 4.0 5 M 58.3 142.9 l -4.0 5 M 131.1 154.6 l 4.0 5 M 48.9 154.6 l -4.0 5 M 140.6 166.3 l 4.0 5 M 39.4 166.3 l -4.0 5" fill="none" stroke="#5C8C4E" stroke-width="1.3" stroke-linejoin="round" stroke-linecap="round" opacity="0.75"/><path d="M 84 22 L 60 72 M 82 60 L 46 126 M 80 108 L 34 174" fill="none" stroke="#9FCB8F" stroke-width="2.4" stroke-linejoin="round" stroke-linecap="round" opacity="0.6"/><circle cx="64" cy="66" r="1.9" fill="#F2CF7A" stroke="#2F2E3F" stroke-width="0.8" stroke-linejoin="round" stroke-linecap="round"/><circle cx="69" cy="68.07" r="1.9" fill="#F2CF7A" stroke="#2F2E3F" stroke-width="0.8" stroke-linejoin="round" stroke-linecap="round"/><circle cx="74" cy="69.9" r="1.9" fill="#F2CF7A" stroke="#2F2E3F" stroke-width="0.8" stroke-linejoin="round" stroke-linecap="round"/><circle cx="79" cy="71.27" r="1.9" fill="#F2CF7A" stroke="#2F2E3F" stroke-width="0.8" stroke-linejoin="round" stroke-linecap="round"/><circle cx="84" cy="72.01" r="1.9" fill="#F2CF7A" stroke="#2F2E3F" stroke-width="0.8" stroke-linejoin="round" stroke-linecap="round"/><circle cx="89" cy="72" r="1.9" fill="#F2CF7A" stroke="#2F2E3F" stroke-width="0.8" stroke-linejoin="round" stroke-linecap="round"/><circle cx="94" cy="71.21" r="1.9" fill="#F2CF7A" stroke="#2F2E3F" stroke-width="0.8" stroke-linejoin="round" stroke-linecap="round"/><circle cx="99" cy="69.67" r="1.9" fill="#F2CF7A" stroke="#2F2E3F" stroke-width="0.8" stroke-linejoin="round" stroke-linecap="round"/><circle cx="104" cy="67.5" r="1.9" fill="#F2CF7A" stroke="#2F2E3F" stroke-width="0.8" stroke-linejoin="round" stroke-linecap="round"/><circle cx="109" cy="64.87" r="1.9" fill="#F2CF7A" stroke="#2F2E3F" stroke-width="0.8" stroke-linejoin="round" stroke-linecap="round"/><circle cx="114" cy="62" r="1.9" fill="#F2CF7A" stroke="#2F2E3F" stroke-width="0.8" stroke-linejoin="round" stroke-linecap="round"/><circle cx="52" cy="116" r="1.9" fill="#F2CF7A" stroke="#2F2E3F" stroke-width="0.8" stroke-linejoin="round" stroke-linecap="round"/><circle cx="59.6" cy="118.49" r="1.9" fill="#F2CF7A" stroke="#2F2E3F" stroke-width="0.8" stroke-linejoin="round" stroke-linecap="round"/><circle cx="67.2" cy="120.68" r="1.9" fill="#F2CF7A" stroke="#2F2E3F" stroke-width="0.8" stroke-linejoin="round" stroke-linecap="round"/><circle cx="74.8" cy="122.29" r="1.9" fill="#F2CF7A" stroke="#2F2E3F" stroke-width="0.8" stroke-linejoin="round" stroke-linecap="round"/><circle cx="82.4" cy="123.11" r="1.9" fill="#F2CF7A" stroke="#2F2E3F" stroke-width="0.8" stroke-linejoin="round" stroke-linecap="round"/><circle cx="90" cy="123" r="1.9" fill="#F2CF7A" stroke="#2F2E3F" stroke-width="0.8" stroke-linejoin="round" stroke-linecap="round"/><circle cx="97.6" cy="121.91" r="1.9" fill="#F2CF7A" stroke="#2F2E3F" stroke-width="0.8" stroke-linejoin="round" stroke-linecap="round"/><circle cx="105.2" cy="119.89" r="1.9" fill="#F2CF7A" stroke="#2F2E3F" stroke-width="0.8" stroke-linejoin="round" stroke-linecap="round"/><circle cx="112.8" cy="117.08" r="1.9" fill="#F2CF7A" stroke="#2F2E3F" stroke-width="0.8" stroke-linejoin="round" stroke-linecap="round"/><circle cx="120.4" cy="113.69" r="1.9" fill="#F2CF7A" stroke="#2F2E3F" stroke-width="0.8" stroke-linejoin="round" stroke-linecap="round"/><circle cx="128" cy="110" r="1.9" fill="#F2CF7A" stroke="#2F2E3F" stroke-width="0.8" stroke-linejoin="round" stroke-linecap="round"/><circle cx="40" cy="164" r="1.9" fill="#F2CF7A" stroke="#2F2E3F" stroke-width="0.8" stroke-linejoin="round" stroke-linecap="round"/><circle cx="49.5" cy="167.11" r="1.9" fill="#F2CF7A" stroke="#2F2E3F" stroke-width="0.8" stroke-linejoin="round" stroke-linecap="round"/><circle cx="59" cy="169.85" r="1.9" fill="#F2CF7A" stroke="#2F2E3F" stroke-width="0.8" stroke-linejoin="round" stroke-linecap="round"/><circle cx="68.5" cy="171.91" r="1.9" fill="#F2CF7A" stroke="#2F2E3F" stroke-width="0.8" stroke-linejoin="round" stroke-linecap="round"/><circle cx="78" cy="173.01" r="1.9" fill="#F2CF7A" stroke="#2F2E3F" stroke-width="0.8" stroke-linejoin="round" stroke-linecap="round"/><circle cx="87.5" cy="173" r="1.9" fill="#F2CF7A" stroke="#2F2E3F" stroke-width="0.8" stroke-linejoin="round" stroke-linecap="round"/><circle cx="97" cy="171.81" r="1.9" fill="#F2CF7A" stroke="#2F2E3F" stroke-width="0.8" stroke-linejoin="round" stroke-linecap="round"/><circle cx="106.5" cy="169.51" r="1.9" fill="#F2CF7A" stroke="#2F2E3F" stroke-width="0.8" stroke-linejoin="round" stroke-linecap="round"/><circle cx="116" cy="166.25" r="1.9" fill="#F2CF7A" stroke="#2F2E3F" stroke-width="0.8" stroke-linejoin="round" stroke-linecap="round"/><circle cx="125.5" cy="162.31" r="1.9" fill="#F2CF7A" stroke="#2F2E3F" stroke-width="0.8" stroke-linejoin="round" stroke-linecap="round"/><circle cx="135" cy="158" r="1.9" fill="#F2CF7A" stroke="#2F2E3F" stroke-width="0.8" stroke-linejoin="round" stroke-linecap="round"/></g>
<g id="špička"><path d="M 90 4 l 7 12 l 13 3 l -10 9 l 3 13 l -13 -7 l -13 7 l 3 -13 l -10 -9 l 13 -3 Z" fill="#FFE9B0" stroke="#2F2E3F" stroke-width="2" stroke-linejoin="round" stroke-linecap="round"/><path d="M 90 10 L 90 30 M 80 20 L 100 20" fill="none" stroke="#C9A24E" stroke-width="1.2" stroke-linejoin="round" stroke-linecap="round" opacity="0.6"/></g>
<g id="ozdoby"><circle cx="58" cy="96" r="6" fill="#EFA79A" stroke="#2F2E3F" stroke-width="1.8" stroke-linejoin="round" stroke-linecap="round"/><rect x="55.8" y="87" width="4.4" height="3.5" rx="1" fill="#F2CF7A" stroke="#2F2E3F" stroke-width="1" stroke-linejoin="round" stroke-linecap="round"/><circle cx="56" cy="94" r="1.6" fill="#FFFFFF" stroke="none" opacity="0.8"/><circle cx="96" cy="74" r="6" fill="#F2CF7A" stroke="#2F2E3F" stroke-width="1.8" stroke-linejoin="round" stroke-linecap="round"/><rect x="93.8" y="65" width="4.4" height="3.5" rx="1" fill="#F2CF7A" stroke="#2F2E3F" stroke-width="1" stroke-linejoin="round" stroke-linecap="round"/><circle cx="94" cy="72" r="1.6" fill="#FFFFFF" stroke="none" opacity="0.8"/><circle cx="120" cy="108" r="6" fill="#9FC0E6" stroke="#2F2E3F" stroke-width="1.8" stroke-linejoin="round" stroke-linecap="round"/><rect x="117.8" y="99" width="4.4" height="3.5" rx="1" fill="#F2CF7A" stroke="#2F2E3F" stroke-width="1" stroke-linejoin="round" stroke-linecap="round"/><circle cx="118" cy="106" r="1.6" fill="#FFFFFF" stroke="none" opacity="0.8"/><circle cx="74" cy="136" r="6" fill="#F2CF7A" stroke="#2F2E3F" stroke-width="1.8" stroke-linejoin="round" stroke-linecap="round"/><rect x="71.8" y="127" width="4.4" height="3.5" rx="1" fill="#F2CF7A" stroke="#2F2E3F" stroke-width="1" stroke-linejoin="round" stroke-linecap="round"/><circle cx="72" cy="134" r="1.6" fill="#FFFFFF" stroke="none" opacity="0.8"/><circle cx="112" cy="142" r="6" fill="#EFA79A" stroke="#2F2E3F" stroke-width="1.8" stroke-linejoin="round" stroke-linecap="round"/><rect x="109.8" y="133" width="4.4" height="3.5" rx="1" fill="#F2CF7A" stroke="#2F2E3F" stroke-width="1" stroke-linejoin="round" stroke-linecap="round"/><circle cx="110" cy="140" r="1.6" fill="#FFFFFF" stroke="none" opacity="0.8"/></g>
<g id="stav: světýlka" data-state="hidden"><circle cx="52" cy="70" r="3.5" fill="#FBEFD6" stroke="none" opacity="0.95"/><circle cx="75" cy="101" r="3.5" fill="#FBEFD6" stroke="none" opacity="0.95"/><circle cx="98" cy="132" r="3.5" fill="#FBEFD6" stroke="none" opacity="0.95"/><circle cx="121" cy="163" r="3.5" fill="#FBEFD6" stroke="none" opacity="0.95"/><circle cx="68" cy="94" r="3.5" fill="#FBEFD6" stroke="none" opacity="0.95"/><circle cx="91" cy="125" r="3.5" fill="#FBEFD6" stroke="none" opacity="0.95"/><circle cx="114" cy="156" r="3.5" fill="#FBEFD6" stroke="none" opacity="0.95"/><circle cx="61" cy="87" r="3.5" fill="#FBEFD6" stroke="none" opacity="0.95"/><circle cx="84" cy="118" r="3.5" fill="#FBEFD6" stroke="none" opacity="0.95"/><circle cx="107" cy="149" r="3.5" fill="#FBEFD6" stroke="none" opacity="0.95"/></g>
<rect id="@pata" x="66" y="206" width="48" height="14" fill="#FFB13D" opacity="0.2"/>
<rect id="@dotyk jehličí" x="30" y="60" width="120" height="120" fill="#FF3D9A" opacity="0.2"/>
</svg>
