<svg xmlns="http://www.w3.org/2000/svg" viewBox="0 0 800 700" width="800" height="700">
<g id="stěna" data-box="-1 -1 802 472"><rect x="0" y="0" width="800" height="470" fill="#F6F4F9" stroke="none"/><rect x="0" y="0" width="800" height="36" fill="#F0E6DC" stroke="none" opacity="0.6"/></g>
<g id="podlaha" data-box="-51.75 468.25 1141 233.5"><rect x="0" y="470" width="800" height="230" fill="#D8BF9A" stroke="none"/><path d="M 0 508 L 800 508" stroke="#C9AD84" stroke-width="2" stroke-linejoin="round" stroke-linecap="round"/><path d="M 0 549.8 L 800 549.8" stroke="#C9AD84" stroke-width="2" stroke-linejoin="round" stroke-linecap="round"/><path d="M 0 595.4 L 800 595.4" stroke="#C9AD84" stroke-width="2" stroke-linejoin="round" stroke-linecap="round"/><path d="M 0 641 L 800 641" stroke="#C9AD84" stroke-width="2" stroke-linejoin="round" stroke-linecap="round"/><path d="M 40 470 L -50 700" stroke="#C9AD84" stroke-width="1.5" stroke-linejoin="round" stroke-linecap="round"/><path d="M 170 470 L 112.5 700" stroke="#C9AD84" stroke-width="1.5" stroke-linejoin="round" stroke-linecap="round"/><path d="M 300 470 L 275 700" stroke="#C9AD84" stroke-width="1.5" stroke-linejoin="round" stroke-linecap="round"/><path d="M 430 470 L 437.5 700" stroke="#C9AD84" stroke-width="1.5" stroke-linejoin="round" stroke-linecap="round"/><path d="M 560 470 L 600 700" stroke="#C9AD84" stroke-width="1.5" stroke-linejoin="round" stroke-linecap="round"/><path d="M 690 470 L 762.5 700" stroke="#C9AD84" stroke-width="1.5" stroke-linejoin="round" stroke-linecap="round"/><path d="M 820 470 L 925 700" stroke="#C9AD84" stroke-width="1.5" stroke-linejoin="round" stroke-linecap="round"/><path d="M 950 470 L 1087.5 700" stroke="#C9AD84" stroke-width="1.5" stroke-linejoin="round" stroke-linecap="round"/></g>
<g id="lišta" data-box="-1 439 802 34"><rect x="0" y="440" width="800" height="26" fill="#F6F4F9" stroke="none"/><rect x="0" y="462" width="800" height="4" fill="#D9CDEB" stroke="none"/><rect x="0" y="466" width="800" height="6" fill="#DCD4E8" stroke="none" opacity="0.7"/></g>
<g id="průchod levý" data-box="-2.5 -2.5 19 477.5"><rect x="0" y="0" width="14" height="150" fill="#F0E6DC" stroke="none"/><path d="M 14 0 L 14 152" stroke="#2F2E3F" stroke-width="3" stroke-linejoin="round" stroke-linecap="round"/><path d="M 0 150 L 14 150" stroke="#2F2E3F" stroke-width="3" stroke-linejoin="round" stroke-linecap="round"/><rect x="0" y="150" width="14" height="324" fill="#6F5A41" stroke="none" opacity="0.3"/><path d="M 14 150 L 14 470" stroke="#2F2E3F" stroke-width="2" stroke-linejoin="round" stroke-linecap="round" opacity="0.4"/></g>
<g id="průchod pravý" data-box="783.5 -2.5 19 477.5"><rect x="786" y="0" width="14" height="150" fill="#F0E6DC" stroke="none"/><path d="M 786 0 L 786 152" stroke="#2F2E3F" stroke-width="3" stroke-linejoin="round" stroke-linecap="round"/><path d="M 786 150 L 800 150" stroke="#2F2E3F" stroke-width="3" stroke-linejoin="round" stroke-linecap="round"/><rect x="786" y="150" width="14" height="324" fill="#6F5A41" stroke="none" opacity="0.3"/><path d="M 786 150 L 786 470" stroke="#2F2E3F" stroke-width="2" stroke-linejoin="round" stroke-linecap="round" opacity="0.4"/></g>
<g id="lampa" data-box="393.75 -2.25 52.5 68.5"><path d="M 420 0 L 420 40" stroke="#9A94A8" stroke-width="2.5" stroke-linejoin="round" stroke-linecap="round"/><path d="M 396 40 L 444 40 L 434 64 L 406 64 Z" fill="#FBEFD6" stroke="#2F2E3F" stroke-width="2.5" stroke-linejoin="round" stroke-linecap="round"/></g>
<rect id="@slot žebřík" x="26" y="0" width="110" height="470" fill="#FF8C3D" opacity="0.2"/>
<rect id="@slot obrazy" x="250" y="150" width="140" height="110" fill="#FF8C3D" opacity="0.2"/>
<rect id="@slot schodiště" x="535" y="470" width="255" height="99" fill="#FF8C3D" opacity="0.2"/>
</svg>
