<svg xmlns="http://www.w3.org/2000/svg" viewBox="0 0 700 700" width="700" height="700">
<g id="stěna"><rect x="0" y="0" width="700" height="470" fill="#E3EDF8" stroke="none"/><rect x="0" y="0" width="700" height="36" fill="#C9DAF0" stroke="none" opacity="0.6"/></g>
<g id="kachličky"><rect x="0" y="0" width="50" height="50" fill="#E3EDF8" stroke="none"/><rect x="50" y="0" width="50" height="50" fill="#F2F6FB" stroke="none"/><rect x="100" y="0" width="50" height="50" fill="#E3EDF8" stroke="none"/><rect x="150" y="0" width="50" height="50" fill="#F2F6FB" stroke="none"/><rect x="200" y="0" width="50" height="50" fill="#E3EDF8" stroke="none"/><rect x="250" y="0" width="50" height="50" fill="#F2F6FB" stroke="none"/><rect x="300" y="0" width="50" height="50" fill="#E3EDF8" stroke="none"/><rect x="350" y="0" width="50" height="50" fill="#F2F6FB" stroke="none"/><rect x="400" y="0" width="50" height="50" fill="#E3EDF8" stroke="none"/><rect x="450" y="0" width="50" height="50" fill="#F2F6FB" stroke="none"/><rect x="500" y="0" width="50" height="50" fill="#E3EDF8" stroke="none"/><rect x="550" y="0" width="50" height="50" fill="#F2F6FB" stroke="none"/><rect x="600" y="0" width="50" height="50" fill="#E3EDF8" stroke="none"/><rect x="650" y="0" width="50" height="50" fill="#F2F6FB" stroke="none"/><rect x="-50" y="50" width="50" height="50" fill="#E3EDF8" stroke="none"/><rect x="0" y="50" width="50" height="50" fill="#F2F6FB" stroke="none"/><rect x="50" y="50" width="50" height="50" fill="#E3EDF8" stroke="none"/><rect x="100" y="50" width="50" height="50" fill="#F2F6FB" stroke="none"/><rect x="150" y="50" width="50" height="50" fill="#E3EDF8" stroke="none"/><rect x="200" y="50" width="50" height="50" fill="#F2F6FB" stroke="none"/><rect x="250" y="50" width="50" height="50" fill="#E3EDF8" stroke="none"/><rect x="300" y="50" width="50" height="50" fill="#F2F6FB" stroke="none"/><rect x="350" y="50" width="50" height="50" fill="#E3EDF8" stroke="none"/><rect x="400" y="50" width="50" height="50" fill="#F2F6FB" stroke="none"/><rect x="450" y="50" width="50" height="50" fill="#E3EDF8" stroke="none"/><rect x="500" y="50" width="50" height="50" fill="#F2F6FB" stroke="none"/><rect x="550" y="50" width="50" height="50" fill="#E3EDF8" stroke="none"/><rect x="600" y="50" width="50" height="50" fill="#F2F6FB" stroke="none"/><rect x="650" y="50" width="50" height="50" fill="#E3EDF8" stroke="none"/><rect x="0" y="100" width="50" height="50" fill="#E3EDF8" stroke="none"/><rect x="50" y="100" width="50" height="50" fill="#F2F6FB" stroke="none"/><rect x="100" y="100" width="50" height="50" fill="#E3EDF8" stroke="none"/><rect x="150" y="100" width="50" height="50" fill="#F2F6FB" stroke="none"/><rect x="200" y="100" width="50" height="50" fill="#E3EDF8" stroke="none"/><rect x="250" y="100" width="50" height="50" fill="#F2F6FB" stroke="none"/><rect x="300" y="100" width="50" height="50" fill="#E3EDF8" stroke="none"/><rect x="350" y="100" width="50" height="50" fill="#F2F6FB" stroke="none"/><rect x="400" y="100" width="50" height="50" fill="#E3EDF8" stroke="none"/><rect x="450" y="100" width="50" height="50" fill="#F2F6FB" stroke="none"/><rect x="500" y="100" width="50" height="50" fill="#E3EDF8" stroke="none"/><rect x="550" y="100" width="50" height="50" fill="#F2F6FB" stroke="none"/><rect x="600" y="100" width="50" height="50" fill="#E3EDF8" stroke="none"/><rect x="650" y="100" width="50" height="50" fill="#F2F6FB" stroke="none"/><rect x="-50" y="150" width="50" height="50" fill="#E3EDF8" stroke="none"/><rect x="0" y="150" width="50" height="50" fill="#F2F6FB" stroke="none"/><rect x="50" y="150" width="50" height="50" fill="#E3EDF8" stroke="none"/><rect x="100" y="150" width="50" height="50" fill="#F2F6FB" stroke="none"/><rect x="150" y="150" width="50" height="50" fill="#E3EDF8" stroke="none"/><rect x="200" y="150" width="50" height="50" fill="#F2F6FB" stroke="none"/><rect x="250" y="150" width="50" height="50" fill="#E3EDF8" stroke="none"/><rect x="300" y="150" width="50" height="50" fill="#F2F6FB" stroke="none"/><rect x="350" y="150" width="50" height="50" fill="#E3EDF8" stroke="none"/><rect x="400" y="150" width="50" height="50" fill="#F2F6FB" stroke="none"/><rect x="450" y="150" width="50" height="50" fill="#E3EDF8" stroke="none"/><rect x="500" y="150" width="50" height="50" fill="#F2F6FB" stroke="none"/><rect x="550" y="150" width="50" height="50" fill="#E3EDF8" stroke="none"/><rect x="600" y="150" width="50" height="50" fill="#F2F6FB" stroke="none"/><rect x="650" y="150" width="50" height="50" fill="#E3EDF8" stroke="none"/><rect x="0" y="200" width="50" height="50" fill="#E3EDF8" stroke="none"/><rect x="50" y="200" width="50" height="50" fill="#F2F6FB" stroke="none"/><rect x="100" y="200" width="50" height="50" fill="#E3EDF8" stroke="none"/><rect x="150" y="200" width="50" height="50" fill="#F2F6FB" stroke="none"/><rect x="200" y="200" width="50" height="50" fill="#E3EDF8" stroke="none"/><rect x="250" y="200" width="50" height="50" fill="#F2F6FB" stroke="none"/><rect x="300" y="200" width="50" height="50" fill="#E3EDF8" stroke="none"/><rect x="350" y="200" width="50" height="50" fill="#F2F6FB" stroke="none"/><rect x="400" y="200" width="50" height="50" fill="#E3EDF8" stroke="none"/><rect x="450" y="200" width="50" height="50" fill="#F2F6FB" stroke="none"/><rect x="500" y="200" width="50" height="50" fill="#E3EDF8" stroke="none"/><rect x="550" y="200" width="50" height="50" fill="#F2F6FB" stroke="none"/><rect x="600" y="200" width="50" height="50" fill="#E3EDF8" stroke="none"/><rect x="650" y="200" width="50" height="50" fill="#F2F6FB" stroke="none"/><rect x="-50" y="250" width="50" height="50" fill="#E3EDF8" stroke="none"/><rect x="0" y="250" width="50" height="50" fill="#F2F6FB" stroke="none"/><rect x="50" y="250" width="50" height="50" fill="#E3EDF8" stroke="none"/><rect x="100" y="250" width="50" height="50" fill="#F2F6FB" stroke="none"/><rect x="150" y="250" width="50" height="50" fill="#E3EDF8" stroke="none"/><rect x="200" y="250" width="50" height="50" fill="#F2F6FB" stroke="none"/><rect x="250" y="250" width="50" height="50" fill="#E3EDF8" stroke="none"/><rect x="300" y="250" width="50" height="50" fill="#F2F6FB" stroke="none"/><rect x="350" y="250" width="50" height="50" fill="#E3EDF8" stroke="none"/><rect x="400" y="250" width="50" height="50" fill="#F2F6FB" stroke="none"/><rect x="450" y="250" width="50" height="50" fill="#E3EDF8" stroke="none"/><rect x="500" y="250" width="50" height="50" fill="#F2F6FB" stroke="none"/><rect x="550" y="250" width="50" height="50" fill="#E3EDF8" stroke="none"/><rect x="600" y="250" width="50" height="50" fill="#F2F6FB" stroke="none"/><rect x="650" y="250" width="50" height="50" fill="#E3EDF8" stroke="none"/><rect x="0" y="300" width="50" height="50" fill="#E3EDF8" stroke="none"/><rect x="50" y="300" width="50" height="50" fill="#F2F6FB" stroke="none"/><rect x="100" y="300" width="50" height="50" fill="#E3EDF8" stroke="none"/><rect x="150" y="300" width="50" height="50" fill="#F2F6FB" stroke="none"/><rect x="200" y="300" width="50" height="50" fill="#E3EDF8" stroke="none"/><rect x="250" y="300" width="50" height="50" fill="#F2F6FB" stroke="none"/><rect x="300" y="300" width="50" height="50" fill="#E3EDF8" stroke="none"/><rect x="350" y="300" width="50" height="50" fill="#F2F6FB" stroke="none"/><rect x="400" y="300" width="50" height="50" fill="#E3EDF8" stroke="none"/><rect x="450" y="300" width="50" height="50" fill="#F2F6FB" stroke="none"/><rect x="500" y="300" width="50" height="50" fill="#E3EDF8" stroke="none"/><rect x="550" y="300" width="50" height="50" fill="#F2F6FB" stroke="none"/><rect x="600" y="300" width="50" height="50" fill="#E3EDF8" stroke="none"/><rect x="650" y="300" width="50" height="50" fill="#F2F6FB" stroke="none"/><rect x="-50" y="350" width="50" height="50" fill="#E3EDF8" stroke="none"/><rect x="0" y="350" width="50" height="50" fill="#F2F6FB" stroke="none"/><rect x="50" y="350" width="50" height="50" fill="#E3EDF8" stroke="none"/><rect x="100" y="350" width="50" height="50" fill="#F2F6FB" stroke="none"/><rect x="150" y="350" width="50" height="50" fill="#E3EDF8" stroke="none"/><rect x="200" y="350" width="50" height="50" fill="#F2F6FB" stroke="none"/><rect x="250" y="350" width="50" height="50" fill="#E3EDF8" stroke="none"/><rect x="300" y="350" width="50" height="50" fill="#F2F6FB" stroke="none"/><rect x="350" y="350" width="50" height="50" fill="#E3EDF8" stroke="none"/><rect x="400" y="350" width="50" height="50" fill="#F2F6FB" stroke="none"/><rect x="450" y="350" width="50" height="50" fill="#E3EDF8" stroke="none"/><rect x="500" y="350" width="50" height="50" fill="#F2F6FB" stroke="none"/><rect x="550" y="350" width="50" height="50" fill="#E3EDF8" stroke="none"/><rect x="600" y="350" width="50" height="50" fill="#F2F6FB" stroke="none"/><rect x="650" y="350" width="50" height="50" fill="#E3EDF8" stroke="none"/><rect x="0" y="400" width="50" height="50" fill="#E3EDF8" stroke="none"/><rect x="50" y="400" width="50" height="50" fill="#F2F6FB" stroke="none"/><rect x="100" y="400" width="50" height="50" fill="#E3EDF8" stroke="none"/><rect x="150" y="400" width="50" height="50" fill="#F2F6FB" stroke="none"/><rect x="200" y="400" width="50" height="50" fill="#E3EDF8" stroke="none"/><rect x="250" y="400" width="50" height="50" fill="#F2F6FB" stroke="none"/><rect x="300" y="400" width="50" height="50" fill="#E3EDF8" stroke="none"/><rect x="350" y="400" width="50" height="50" fill="#F2F6FB" stroke="none"/><rect x="400" y="400" width="50" height="50" fill="#E3EDF8" stroke="none"/><rect x="450" y="400" width="50" height="50" fill="#F2F6FB" stroke="none"/><rect x="500" y="400" width="50" height="50" fill="#E3EDF8" stroke="none"/><rect x="550" y="400" width="50" height="50" fill="#F2F6FB" stroke="none"/><rect x="600" y="400" width="50" height="50" fill="#E3EDF8" stroke="none"/><rect x="650" y="400" width="50" height="50" fill="#F2F6FB" stroke="none"/><rect x="-50" y="450" width="50" height="20" fill="#E3EDF8" stroke="none"/><rect x="0" y="450" width="50" height="20" fill="#F2F6FB" stroke="none"/><rect x="50" y="450" width="50" height="20" fill="#E3EDF8" stroke="none"/><rect x="100" y="450" width="50" height="20" fill="#F2F6FB" stroke="none"/><rect x="150" y="450" width="50" height="20" fill="#E3EDF8" stroke="none"/><rect x="200" y="450" width="50" height="20" fill="#F2F6FB" stroke="none"/><rect x="250" y="450" width="50" height="20" fill="#E3EDF8" stroke="none"/><rect x="300" y="450" width="50" height="20" fill="#F2F6FB" stroke="none"/><rect x="350" y="450" width="50" height="20" fill="#E3EDF8" stroke="none"/><rect x="400" y="450" width="50" height="20" fill="#F2F6FB" stroke="none"/><rect x="450" y="450" width="50" height="20" fill="#E3EDF8" stroke="none"/><rect x="500" y="450" width="50" height="20" fill="#F2F6FB" stroke="none"/><rect x="550" y="450" width="50" height="20" fill="#E3EDF8" stroke="none"/><rect x="600" y="450" width="50" height="20" fill="#F2F6FB" stroke="none"/><rect x="650" y="450" width="50" height="20" fill="#E3EDF8" stroke="none"/></g>
<g id="podlaha"><rect x="0" y="470" width="700" height="230" fill="#E9EDF2" stroke="none"/><path d="M 0 508 L 700 508" stroke="#D4DAE3" stroke-width="2" stroke-linejoin="round" stroke-linecap="round"/><path d="M 0 549.8 L 700 549.8" stroke="#D4DAE3" stroke-width="2" stroke-linejoin="round" stroke-linecap="round"/><path d="M 0 595.4 L 700 595.4" stroke="#D4DAE3" stroke-width="2" stroke-linejoin="round" stroke-linecap="round"/><path d="M 0 641 L 700 641" stroke="#D4DAE3" stroke-width="2" stroke-linejoin="round" stroke-linecap="round"/><path d="M 40 470 L -37.5 700" stroke="#DDE2EA" stroke-width="1.5" stroke-linejoin="round" stroke-linecap="round"/><path d="M 170 470 L 125 700" stroke="#DDE2EA" stroke-width="1.5" stroke-linejoin="round" stroke-linecap="round"/><path d="M 300 470 L 287.5 700" stroke="#DDE2EA" stroke-width="1.5" stroke-linejoin="round" stroke-linecap="round"/><path d="M 430 470 L 450 700" stroke="#DDE2EA" stroke-width="1.5" stroke-linejoin="round" stroke-linecap="round"/><path d="M 560 470 L 612.5 700" stroke="#DDE2EA" stroke-width="1.5" stroke-linejoin="round" stroke-linecap="round"/><path d="M 690 470 L 775 700" stroke="#DDE2EA" stroke-width="1.5" stroke-linejoin="round" stroke-linecap="round"/><path d="M 820 470 L 937.5 700" stroke="#DDE2EA" stroke-width="1.5" stroke-linejoin="round" stroke-linecap="round"/></g>
<g id="lišta"><rect x="0" y="440" width="700" height="26" fill="#F6F4F9" stroke="none"/><rect x="0" y="462" width="700" height="4" fill="#D9CDEB" stroke="none"/><rect x="0" y="466" width="700" height="6" fill="#DCD4E8" stroke="none" opacity="0.7"/></g>
<g id="zeď levá"><rect x="0" y="0" width="14" height="700" fill="#C9DAF0" stroke="#2F2E3F" stroke-width="2.5" stroke-linejoin="round" stroke-linecap="round"/></g>
<g id="průchod pravý"><rect x="686" y="0" width="14" height="150" fill="#F0E6DC" stroke="none"/><path d="M 686 0 L 686 152" stroke="#2F2E3F" stroke-width="3" stroke-linejoin="round" stroke-linecap="round"/><path d="M 686 150 L 700 150" stroke="#2F2E3F" stroke-width="3" stroke-linejoin="round" stroke-linecap="round"/><rect x="686" y="150" width="14" height="324" fill="#6F5A41" stroke="none" opacity="0.3"/><path d="M 686 150 L 686 470" stroke="#2F2E3F" stroke-width="2" stroke-linejoin="round" stroke-linecap="round" opacity="0.4"/></g>
<rect id="@slot vana" x="350" y="480" width="260" height="40" fill="#FF8C3D" opacity="0.2"/>
<rect id="@slot umyvadlo" x="260" y="470" width="120" height="50" fill="#FF8C3D" opacity="0.2"/>
<rect id="@slot pračka" x="126" y="480" width="100" height="40" fill="#FF8C3D" opacity="0.2"/>
<rect id="@slot papír" x="232" y="380" width="60" height="80" fill="#FF8C3D" opacity="0.2"/>
<rect id="@slot rohož" x="360" y="545" width="240" height="30" fill="#FF8C3D" opacity="0.2"/>
<rect id="@slot police" x="356" y="212" width="240" height="140" fill="#FF8C3D" opacity="0.2"/>
<rect id="@slot okno" x="400" y="60" width="160" height="140" fill="#FF8C3D" opacity="0.2"/>
</svg>
