<svg xmlns="http://www.w3.org/2000/svg" viewBox="0 0 1000 700" width="1000" height="700">
<g id="stěna" data-box="-6.25 127.75 1008.5 345.25"><rect x="0" y="130" width="1000" height="340" fill="#E9D8BE" stroke="none"/><path d="M 0 179 L 1000 179" stroke="#D6BF9C" stroke-width="1.6" stroke-linejoin="round" stroke-linecap="round" opacity="0.9"/><path d="M 0 202 L 1000 202" stroke="#D6BF9C" stroke-width="1.6" stroke-linejoin="round" stroke-linecap="round" opacity="0.9"/><path d="M 0 225 L 1000 225" stroke="#D6BF9C" stroke-width="1.6" stroke-linejoin="round" stroke-linecap="round" opacity="0.9"/><path d="M 0 248 L 1000 248" stroke="#D6BF9C" stroke-width="1.6" stroke-linejoin="round" stroke-linecap="round" opacity="0.9"/><path d="M 0 271 L 1000 271" stroke="#D6BF9C" stroke-width="1.6" stroke-linejoin="round" stroke-linecap="round" opacity="0.9"/><path d="M 0 294 L 1000 294" stroke="#D6BF9C" stroke-width="1.6" stroke-linejoin="round" stroke-linecap="round" opacity="0.9"/><path d="M 0 317 L 1000 317" stroke="#D6BF9C" stroke-width="1.6" stroke-linejoin="round" stroke-linecap="round" opacity="0.9"/><path d="M 0 340 L 1000 340" stroke="#D6BF9C" stroke-width="1.6" stroke-linejoin="round" stroke-linecap="round" opacity="0.9"/><path d="M 0 363 L 1000 363" stroke="#D6BF9C" stroke-width="1.6" stroke-linejoin="round" stroke-linecap="round" opacity="0.9"/><ellipse cx="20" cy="242.39" rx="5" ry="2.6" fill="#CBAE88" stroke="none" opacity="0.6"/><ellipse cx="20" cy="242.39" rx="2" ry="1" fill="#B79A73" stroke="none" opacity="0.6"/><ellipse cx="613.31" cy="166" rx="5" ry="2.6" fill="#CBAE88" stroke="none" opacity="0.6"/><ellipse cx="613.31" cy="166" rx="2" ry="1" fill="#B79A73" stroke="none" opacity="0.6"/><ellipse cx="106.56" cy="260.43" rx="5" ry="2.6" fill="#CBAE88" stroke="none" opacity="0.6"/><ellipse cx="106.56" cy="260.43" rx="2" ry="1" fill="#B79A73" stroke="none" opacity="0.6"/><ellipse cx="699.88" cy="184.03" rx="5" ry="2.6" fill="#CBAE88" stroke="none" opacity="0.6"/><ellipse cx="699.88" cy="184.03" rx="2" ry="1" fill="#B79A73" stroke="none" opacity="0.6"/><ellipse cx="926.5" cy="231.25" rx="5" ry="2.6" fill="#CBAE88" stroke="none" opacity="0.6"/><ellipse cx="926.5" cy="231.25" rx="2" ry="1" fill="#B79A73" stroke="none" opacity="0.6"/><ellipse cx="559.81" cy="354.85" rx="5" ry="2.6" fill="#CBAE88" stroke="none" opacity="0.6"/><ellipse cx="559.81" cy="354.85" rx="2" ry="1" fill="#B79A73" stroke="none" opacity="0.6"/><ellipse cx="786.44" cy="202.07" rx="5" ry="2.6" fill="#CBAE88" stroke="none" opacity="0.6"/><ellipse cx="786.44" cy="202.07" rx="2" ry="1" fill="#B79A73" stroke="none" opacity="0.6"/><ellipse cx="646.38" cy="172.89" rx="5" ry="2.6" fill="#CBAE88" stroke="none" opacity="0.6"/><ellipse cx="646.38" cy="172.89" rx="2" ry="1" fill="#B79A73" stroke="none" opacity="0.6"/><ellipse cx="873" cy="220.1" rx="5" ry="2.6" fill="#CBAE88" stroke="none" opacity="0.6"/><ellipse cx="873" cy="220.1" rx="2" ry="1" fill="#B79A73" stroke="none" opacity="0.6"/><ellipse cx="139.63" cy="267.32" rx="5" ry="2.6" fill="#CBAE88" stroke="none" opacity="0.6"/><ellipse cx="139.63" cy="267.32" rx="2" ry="1" fill="#B79A73" stroke="none" opacity="0.6"/><ellipse cx="732.94" cy="190.92" rx="5" ry="2.6" fill="#CBAE88" stroke="none" opacity="0.6"/><ellipse cx="732.94" cy="190.92" rx="2" ry="1" fill="#B79A73" stroke="none" opacity="0.6"/><ellipse cx="959.57" cy="238.14" rx="5" ry="2.6" fill="#CBAE88" stroke="none" opacity="0.6"/><ellipse cx="959.57" cy="238.14" rx="2" ry="1" fill="#B79A73" stroke="none" opacity="0.6"/><ellipse cx="592.88" cy="361.74" rx="5" ry="2.6" fill="#CBAE88" stroke="none" opacity="0.6"/><ellipse cx="592.88" cy="361.74" rx="2" ry="1" fill="#B79A73" stroke="none" opacity="0.6"/><ellipse cx="819.5" cy="208.96" rx="5" ry="2.6" fill="#CBAE88" stroke="none" opacity="0.6"/><ellipse cx="819.5" cy="208.96" rx="2" ry="1" fill="#B79A73" stroke="none" opacity="0.6"/><rect x="0" y="130" width="1000" height="70" fill="#B99B74" stroke="none" opacity="0.18"/><rect x="0" y="130" width="1000" height="34" fill="#B99B74" stroke="none" opacity="0.14"/><rect x="30" y="148" width="26" height="230" rx="2" fill="#A88C66" stroke="#2F2E3F" stroke-width="2.5" stroke-linejoin="round" stroke-linecap="round"/><rect x="32" y="150" width="7.28" height="226" rx="1" fill="#D8BF9A" stroke="none" opacity="0.7"/><rect x="47.68" y="150" width="7.28" height="226" rx="1" fill="#8A7052" stroke="none" opacity="0.45"/><path d="M 36.5 151.0 q 2.6 57.5 0 115.0 t 0 109.0" fill="none" stroke="#8A7052" stroke-width="1.2" stroke-linejoin="round" stroke-linecap="round" opacity="0.4"/><path d="M 49.5 151.0 q 2.6 57.5 0 115.0 t 0 109.0" fill="none" stroke="#8A7052" stroke-width="1.2" stroke-linejoin="round" stroke-linecap="round" opacity="0.4"/><rect x="200" y="148" width="26" height="230" rx="2" fill="#A88C66" stroke="#2F2E3F" stroke-width="2.5" stroke-linejoin="round" stroke-linecap="round"/><rect x="202" y="150" width="7.28" height="226" rx="1" fill="#D8BF9A" stroke="none" opacity="0.7"/><rect x="217.68" y="150" width="7.28" height="226" rx="1" fill="#8A7052" stroke="none" opacity="0.45"/><path d="M 206.5 151.0 q 2.6 57.5 0 115.0 t 0 109.0" fill="none" stroke="#8A7052" stroke-width="1.2" stroke-linejoin="round" stroke-linecap="round" opacity="0.4"/><path d="M 219.5 151.0 q 2.6 57.5 0 115.0 t 0 109.0" fill="none" stroke="#8A7052" stroke-width="1.2" stroke-linejoin="round" stroke-linecap="round" opacity="0.4"/><rect x="488" y="148" width="26" height="230" rx="2" fill="#A88C66" stroke="#2F2E3F" stroke-width="2.5" stroke-linejoin="round" stroke-linecap="round"/><rect x="490" y="150" width="7.28" height="226" rx="1" fill="#D8BF9A" stroke="none" opacity="0.7"/><rect x="505.68" y="150" width="7.28" height="226" rx="1" fill="#8A7052" stroke="none" opacity="0.45"/><path d="M 494.5 151.0 q 2.6 57.5 0 115.0 t 0 109.0" fill="none" stroke="#8A7052" stroke-width="1.2" stroke-linejoin="round" stroke-linecap="round" opacity="0.4"/><path d="M 507.5 151.0 q 2.6 57.5 0 115.0 t 0 109.0" fill="none" stroke="#8A7052" stroke-width="1.2" stroke-linejoin="round" stroke-linecap="round" opacity="0.4"/><rect x="658" y="148" width="26" height="230" rx="2" fill="#A88C66" stroke="#2F2E3F" stroke-width="2.5" stroke-linejoin="round" stroke-linecap="round"/><rect x="660" y="150" width="7.28" height="226" rx="1" fill="#D8BF9A" stroke="none" opacity="0.7"/><rect x="675.68" y="150" width="7.28" height="226" rx="1" fill="#8A7052" stroke="none" opacity="0.45"/><path d="M 664.5 151.0 q 2.6 57.5 0 115.0 t 0 109.0" fill="none" stroke="#8A7052" stroke-width="1.2" stroke-linejoin="round" stroke-linecap="round" opacity="0.4"/><path d="M 677.5 151.0 q 2.6 57.5 0 115.0 t 0 109.0" fill="none" stroke="#8A7052" stroke-width="1.2" stroke-linejoin="round" stroke-linecap="round" opacity="0.4"/><rect x="828" y="148" width="26" height="230" rx="2" fill="#A88C66" stroke="#2F2E3F" stroke-width="2.5" stroke-linejoin="round" stroke-linecap="round"/><rect x="830" y="150" width="7.28" height="226" rx="1" fill="#D8BF9A" stroke="none" opacity="0.7"/><rect x="845.68" y="150" width="7.28" height="226" rx="1" fill="#8A7052" stroke="none" opacity="0.45"/><path d="M 834.5 151.0 q 2.6 57.5 0 115.0 t 0 109.0" fill="none" stroke="#8A7052" stroke-width="1.2" stroke-linejoin="round" stroke-linecap="round" opacity="0.4"/><path d="M 847.5 151.0 q 2.6 57.5 0 115.0 t 0 109.0" fill="none" stroke="#8A7052" stroke-width="1.2" stroke-linejoin="round" stroke-linecap="round" opacity="0.4"/><rect x="952" y="148" width="26" height="230" rx="2" fill="#A88C66" stroke="#2F2E3F" stroke-width="2.5" stroke-linejoin="round" stroke-linecap="round"/><rect x="954" y="150" width="7.28" height="226" rx="1" fill="#D8BF9A" stroke="none" opacity="0.7"/><rect x="969.68" y="150" width="7.28" height="226" rx="1" fill="#8A7052" stroke="none" opacity="0.45"/><path d="M 958.5 151.0 q 2.6 57.5 0 115.0 t 0 109.0" fill="none" stroke="#8A7052" stroke-width="1.2" stroke-linejoin="round" stroke-linecap="round" opacity="0.4"/><path d="M 971.5 151.0 q 2.6 57.5 0 115.0 t 0 109.0" fill="none" stroke="#8A7052" stroke-width="1.2" stroke-linejoin="round" stroke-linecap="round" opacity="0.4"/><rect x="-4" y="130" width="1004" height="26" rx="2" fill="#8A7052" stroke="#2F2E3F" stroke-width="2.5" stroke-linejoin="round" stroke-linecap="round"/><rect x="-2" y="132" width="1000" height="7.28" rx="1" fill="#A88C66" stroke="none" opacity="0.7"/><rect x="-2" y="148.2" width="1000" height="6.76" rx="1" fill="#6F5A41" stroke="none" opacity="0.45"/><path d="M -1.0 136.5 q 251.0 2.1 502.0 0 t 496.0 0" fill="none" stroke="#6F5A41" stroke-width="1.2" stroke-linejoin="round" stroke-linecap="round" opacity="0.4"/><path d="M -1.0 149.5 q 251.0 2.1 502.0 0 t 496.0 0" fill="none" stroke="#6F5A41" stroke-width="1.2" stroke-linejoin="round" stroke-linecap="round" opacity="0.4"/><circle cx="43" cy="143" r="3.2" fill="#8A7052" stroke="#2F2E3F" stroke-width="1.4" stroke-linejoin="round" stroke-linecap="round"/><circle cx="213" cy="143" r="3.2" fill="#8A7052" stroke="#2F2E3F" stroke-width="1.4" stroke-linejoin="round" stroke-linecap="round"/><circle cx="501" cy="143" r="3.2" fill="#8A7052" stroke="#2F2E3F" stroke-width="1.4" stroke-linejoin="round" stroke-linecap="round"/><circle cx="671" cy="143" r="3.2" fill="#8A7052" stroke="#2F2E3F" stroke-width="1.4" stroke-linejoin="round" stroke-linecap="round"/><circle cx="841" cy="143" r="3.2" fill="#8A7052" stroke="#2F2E3F" stroke-width="1.4" stroke-linejoin="round" stroke-linecap="round"/><circle cx="965" cy="143" r="3.2" fill="#8A7052" stroke="#2F2E3F" stroke-width="1.4" stroke-linejoin="round" stroke-linecap="round"/><rect x="0" y="380" width="1000" height="92" fill="#F3EDE4" stroke="none"/><rect x="0" y="440" width="1000" height="32" fill="#E2D9CE" stroke="none" opacity="0.7"/><rect x="-4" y="370" width="1004" height="16" rx="2" fill="#8A7052" stroke="#2F2E3F" stroke-width="2.4" stroke-linejoin="round" stroke-linecap="round"/><rect x="-2" y="372" width="1000" height="4.48" rx="1" fill="#A88C66" stroke="none" opacity="0.7"/><rect x="-2" y="381.2" width="1000" height="4.16" rx="1" fill="#6F5A41" stroke="none" opacity="0.45"/><path d="M -1.0 374.0 q 251.0 1.3 502.0 0 t 496.0 0" fill="none" stroke="#6F5A41" stroke-width="1.2" stroke-linejoin="round" stroke-linecap="round" opacity="0.4"/><path d="M -1.0 382.0 q 251.0 1.3 502.0 0 t 496.0 0" fill="none" stroke="#6F5A41" stroke-width="1.2" stroke-linejoin="round" stroke-linecap="round" opacity="0.4"/><path d="M 176 410 Q 180 396 200 398 Q 220 392 236 404 Q 240 420 220 422 Q 198 428 176 410 Z" fill="#E7CDBE" stroke="#C9A99A" stroke-width="1.4" stroke-linejoin="round" stroke-linecap="round"/><rect x="184" y="402" width="17" height="7" rx="1" fill="#D99A88" stroke="#B9806F" stroke-width="1" stroke-linejoin="round" stroke-linecap="round"/><rect x="204" y="402" width="17" height="7" rx="1" fill="#E2A795" stroke="#B9806F" stroke-width="1" stroke-linejoin="round" stroke-linecap="round"/><rect x="194" y="411" width="17" height="7" rx="1" fill="#D99A88" stroke="#B9806F" stroke-width="1" stroke-linejoin="round" stroke-linecap="round"/><rect x="214" y="411" width="17" height="7" rx="1" fill="#E2A795" stroke="#B9806F" stroke-width="1" stroke-linejoin="round" stroke-linecap="round"/><rect x="224" y="402" width="17" height="7" rx="1" fill="#D99A88" stroke="#B9806F" stroke-width="1" stroke-linejoin="round" stroke-linecap="round"/><path d="M 900 402 Q 904 388 924 390 Q 944 384 960 396 Q 964 412 944 414 Q 922 420 900 402 Z" fill="#E7CDBE" stroke="#C9A99A" stroke-width="1.4" stroke-linejoin="round" stroke-linecap="round"/><rect x="908" y="394" width="17" height="7" rx="1" fill="#D99A88" stroke="#B9806F" stroke-width="1" stroke-linejoin="round" stroke-linecap="round"/><rect x="928" y="394" width="17" height="7" rx="1" fill="#E2A795" stroke="#B9806F" stroke-width="1" stroke-linejoin="round" stroke-linecap="round"/><rect x="918" y="403" width="17" height="7" rx="1" fill="#D99A88" stroke="#B9806F" stroke-width="1" stroke-linejoin="round" stroke-linecap="round"/><rect x="938" y="403" width="17" height="7" rx="1" fill="#E2A795" stroke="#B9806F" stroke-width="1" stroke-linejoin="round" stroke-linecap="round"/><rect x="948" y="394" width="17" height="7" rx="1" fill="#D99A88" stroke="#B9806F" stroke-width="1" stroke-linejoin="round" stroke-linecap="round"/></g>
<g id="podlaha" data-box="-609.5 468.1 2366.7 233.8"><rect x="0" y="470" width="1000" height="230" fill="#D5B98F" stroke="none"/><path d="M -216 470 L -152 470 L -425.8 700 L -516.7 700 Z" fill="#CCAF85" stroke="none"/><path d="M -88 470 L -24 470 L -244.1 700 L -335.0 700 Z" fill="#CCAF85" stroke="none"/><path d="M 40 470 L 104 470 L -62.3 700 L -153.2 700 Z" fill="#CCAF85" stroke="none"/><path d="M 168 470 L 232 470 L 119.4 700 L 28.6 700 Z" fill="#CCAF85" stroke="none"/><path d="M 296 470 L 360 470 L 301.2 700 L 210.3 700 Z" fill="#CCAF85" stroke="none"/><path d="M 424 470 L 488 470 L 483.0 700 L 392.1 700 Z" fill="#CCAF85" stroke="none"/><path d="M 552 470 L 616 470 L 664.7 700 L 573.8 700 Z" fill="#CCAF85" stroke="none"/><path d="M 680 470 L 744 470 L 846.5 700 L 755.6 700 Z" fill="#CCAF85" stroke="none"/><path d="M 808 470 L 872 470 L 1028.2 700 L 937.4 700 Z" fill="#CCAF85" stroke="none"/><path d="M 936 470 L 1000 470 L 1210.0 700 L 1119.1 700 Z" fill="#CCAF85" stroke="none"/><path d="M 1064 470 L 1128 470 L 1391.8 700 L 1300.9 700 Z" fill="#CCAF85" stroke="none"/><path d="M 1192 470 L 1256 470 L 1573.5 700 L 1482.6 700 Z" fill="#CCAF85" stroke="none"/><path d="M 1320 470 L 1384 470 L 1755.3 700 L 1664.4 700 Z" fill="#CCAF85" stroke="none"/><path d="M -280 470 L -607.6 700" fill="none" stroke="#AF916B" stroke-width="1.8" stroke-linejoin="round" stroke-linecap="round" opacity="0.85"/><path d="M -216 470 L -516.7 700" fill="none" stroke="#AF916B" stroke-width="1.8" stroke-linejoin="round" stroke-linecap="round" opacity="0.85"/><path d="M -152 470 L -425.8 700" fill="none" stroke="#AF916B" stroke-width="1.8" stroke-linejoin="round" stroke-linecap="round" opacity="0.85"/><path d="M -88 470 L -335.0 700" fill="none" stroke="#AF916B" stroke-width="1.8" stroke-linejoin="round" stroke-linecap="round" opacity="0.85"/><path d="M -24 470 L -244.1 700" fill="none" stroke="#AF916B" stroke-width="1.8" stroke-linejoin="round" stroke-linecap="round" opacity="0.85"/><path d="M 40 470 L -153.2 700" fill="none" stroke="#AF916B" stroke-width="1.8" stroke-linejoin="round" stroke-linecap="round" opacity="0.85"/><path d="M 104 470 L -62.3 700" fill="none" stroke="#AF916B" stroke-width="1.8" stroke-linejoin="round" stroke-linecap="round" opacity="0.85"/><path d="M 168 470 L 28.6 700" fill="none" stroke="#AF916B" stroke-width="1.8" stroke-linejoin="round" stroke-linecap="round" opacity="0.85"/><path d="M 232 470 L 119.4 700" fill="none" stroke="#AF916B" stroke-width="1.8" stroke-linejoin="round" stroke-linecap="round" opacity="0.85"/><path d="M 296 470 L 210.3 700" fill="none" stroke="#AF916B" stroke-width="1.8" stroke-linejoin="round" stroke-linecap="round" opacity="0.85"/><path d="M 360 470 L 301.2 700" fill="none" stroke="#AF916B" stroke-width="1.8" stroke-linejoin="round" stroke-linecap="round" opacity="0.85"/><path d="M 424 470 L 392.1 700" fill="none" stroke="#AF916B" stroke-width="1.8" stroke-linejoin="round" stroke-linecap="round" opacity="0.85"/><path d="M 488 470 L 483.0 700" fill="none" stroke="#AF916B" stroke-width="1.8" stroke-linejoin="round" stroke-linecap="round" opacity="0.85"/><path d="M 552 470 L 573.8 700" fill="none" stroke="#AF916B" stroke-width="1.8" stroke-linejoin="round" stroke-linecap="round" opacity="0.85"/><path d="M 616 470 L 664.7 700" fill="none" stroke="#AF916B" stroke-width="1.8" stroke-linejoin="round" stroke-linecap="round" opacity="0.85"/><path d="M 680 470 L 755.6 700" fill="none" stroke="#AF916B" stroke-width="1.8" stroke-linejoin="round" stroke-linecap="round" opacity="0.85"/><path d="M 744 470 L 846.5 700" fill="none" stroke="#AF916B" stroke-width="1.8" stroke-linejoin="round" stroke-linecap="round" opacity="0.85"/><path d="M 808 470 L 937.4 700" fill="none" stroke="#AF916B" stroke-width="1.8" stroke-linejoin="round" stroke-linecap="round" opacity="0.85"/><path d="M 872 470 L 1028.2 700" fill="none" stroke="#AF916B" stroke-width="1.8" stroke-linejoin="round" stroke-linecap="round" opacity="0.85"/><path d="M 936 470 L 1119.1 700" fill="none" stroke="#AF916B" stroke-width="1.8" stroke-linejoin="round" stroke-linecap="round" opacity="0.85"/><path d="M 1000 470 L 1210.0 700" fill="none" stroke="#AF916B" stroke-width="1.8" stroke-linejoin="round" stroke-linecap="round" opacity="0.85"/><path d="M 1064 470 L 1300.9 700" fill="none" stroke="#AF916B" stroke-width="1.8" stroke-linejoin="round" stroke-linecap="round" opacity="0.85"/><path d="M 1128 470 L 1391.8 700" fill="none" stroke="#AF916B" stroke-width="1.8" stroke-linejoin="round" stroke-linecap="round" opacity="0.85"/><path d="M 1192 470 L 1482.6 700" fill="none" stroke="#AF916B" stroke-width="1.8" stroke-linejoin="round" stroke-linecap="round" opacity="0.85"/><path d="M 1256 470 L 1573.5 700" fill="none" stroke="#AF916B" stroke-width="1.8" stroke-linejoin="round" stroke-linecap="round" opacity="0.85"/><path d="M 1320 470 L 1664.4 700" fill="none" stroke="#AF916B" stroke-width="1.8" stroke-linejoin="round" stroke-linecap="round" opacity="0.85"/><path d="M 1384 470 L 1755.3 700" fill="none" stroke="#AF916B" stroke-width="1.8" stroke-linejoin="round" stroke-linecap="round" opacity="0.85"/><path d="M -18.91 540.13 L 53.29 540.13" stroke="#AF916B" stroke-width="1.6" stroke-linejoin="round" stroke-linecap="round" opacity="0.8"/><circle cx="-11.06" cy="535.64" r="1.68" fill="#8E7556" stroke="none"/><circle cx="45.43" cy="535.64" r="1.68" fill="#8E7556" stroke="none"/><circle cx="-11.06" cy="544.62" r="1.68" fill="#8E7556" stroke="none"/><circle cx="45.43" cy="544.62" r="1.68" fill="#8E7556" stroke="none"/><path d="M -22.69 645.2 L 61.78 645.2" stroke="#AF916B" stroke-width="1.6" stroke-linejoin="round" stroke-linecap="round" opacity="0.8"/><circle cx="-13.56" cy="639.98" r="1.96" fill="#8E7556" stroke="none"/><circle cx="52.65" cy="639.98" r="1.96" fill="#8E7556" stroke="none"/><circle cx="-13.56" cy="650.42" r="1.96" fill="#8E7556" stroke="none"/><circle cx="52.65" cy="650.42" r="1.96" fill="#8E7556" stroke="none"/><path d="M 101.15 580.26 L 178.04 580.26" stroke="#AF916B" stroke-width="1.6" stroke-linejoin="round" stroke-linecap="round" opacity="0.8"/><circle cx="109.49" cy="575.5" r="1.79" fill="#8E7556" stroke="none"/><circle cx="169.7" cy="575.5" r="1.79" fill="#8E7556" stroke="none"/><circle cx="109.49" cy="585.03" r="1.79" fill="#8E7556" stroke="none"/><circle cx="169.7" cy="585.03" r="1.79" fill="#8E7556" stroke="none"/><ellipse cx="164.47" cy="534.85" rx="7.15" ry="2.86" fill="#C3A57C" stroke="none" opacity="0.9"/><ellipse cx="164.47" cy="534.85" rx="3.1" ry="1.31" fill="#9C7F5C" stroke="none" opacity="0.8"/><path d="M 209.82 515.33 L 279.11 515.33" stroke="#AF916B" stroke-width="1.6" stroke-linejoin="round" stroke-linecap="round" opacity="0.8"/><circle cx="217.37" cy="511.01" r="1.62" fill="#8E7556" stroke="none"/><circle cx="271.56" cy="511.01" r="1.62" fill="#8E7556" stroke="none"/><circle cx="217.37" cy="519.64" r="1.62" fill="#8E7556" stroke="none"/><circle cx="271.56" cy="519.64" r="1.62" fill="#8E7556" stroke="none"/><path d="M 239.97 620.39 L 321.55 620.39" stroke="#AF916B" stroke-width="1.6" stroke-linejoin="round" stroke-linecap="round" opacity="0.8"/><circle cx="248.81" cy="615.35" r="1.89" fill="#8E7556" stroke="none"/><circle cx="312.72" cy="615.35" r="1.89" fill="#8E7556" stroke="none"/><circle cx="248.81" cy="625.44" r="1.89" fill="#8E7556" stroke="none"/><circle cx="312.72" cy="625.44" r="1.89" fill="#8E7556" stroke="none"/><path d="M 338.15 555.46 L 412.14 555.46" stroke="#AF916B" stroke-width="1.6" stroke-linejoin="round" stroke-linecap="round" opacity="0.8"/><circle cx="346.19" cy="550.87" r="1.72" fill="#8E7556" stroke="none"/><circle cx="404.1" cy="550.87" r="1.72" fill="#8E7556" stroke="none"/><circle cx="346.19" cy="560.05" r="1.72" fill="#8E7556" stroke="none"/><circle cx="404.1" cy="560.05" r="1.72" fill="#8E7556" stroke="none"/><ellipse cx="384.68" cy="507.13" rx="6.89" ry="2.76" fill="#C3A57C" stroke="none" opacity="0.9"/><ellipse cx="384.68" cy="507.13" rx="2.99" ry="1.26" fill="#9C7F5C" stroke="none" opacity="0.8"/><path d="M 397.56 660.53 L 483.82 660.53" stroke="#AF916B" stroke-width="1.6" stroke-linejoin="round" stroke-linecap="round" opacity="0.8"/><circle cx="406.88" cy="655.2" r="2" fill="#8E7556" stroke="none"/><circle cx="474.51" cy="655.2" r="2" fill="#8E7556" stroke="none"/><circle cx="406.88" cy="665.85" r="2" fill="#8E7556" stroke="none"/><circle cx="474.51" cy="665.85" r="2" fill="#8E7556" stroke="none"/><path d="M 485.25 595.59 L 563.93 595.59" stroke="#AF916B" stroke-width="1.6" stroke-linejoin="round" stroke-linecap="round" opacity="0.8"/><circle cx="493.78" cy="590.72" r="1.83" fill="#8E7556" stroke="none"/><circle cx="555.4" cy="590.72" r="1.83" fill="#8E7556" stroke="none"/><circle cx="493.78" cy="600.47" r="1.83" fill="#8E7556" stroke="none"/><circle cx="555.4" cy="600.47" r="1.83" fill="#8E7556" stroke="none"/><path d="M 557.76 530.66 L 628.85 530.66" stroke="#AF916B" stroke-width="1.6" stroke-linejoin="round" stroke-linecap="round" opacity="0.8"/><circle cx="565.5" cy="526.24" r="1.66" fill="#8E7556" stroke="none"/><circle cx="621.11" cy="526.24" r="1.66" fill="#8E7556" stroke="none"/><circle cx="565.5" cy="535.08" r="1.66" fill="#8E7556" stroke="none"/><circle cx="621.11" cy="535.08" r="1.66" fill="#8E7556" stroke="none"/><ellipse cx="614.59" cy="669.41" rx="6.63" ry="2.65" fill="#C3A57C" stroke="none" opacity="0.9"/><ellipse cx="614.59" cy="669.41" rx="2.87" ry="1.22" fill="#9C7F5C" stroke="none" opacity="0.8"/><path d="M 651.1 635.72 L 734.47 635.72" stroke="#AF916B" stroke-width="1.6" stroke-linejoin="round" stroke-linecap="round" opacity="0.8"/><circle cx="660.12" cy="630.57" r="1.93" fill="#8E7556" stroke="none"/><circle cx="725.46" cy="630.57" r="1.93" fill="#8E7556" stroke="none"/><circle cx="660.12" cy="640.88" r="1.93" fill="#8E7556" stroke="none"/><circle cx="725.46" cy="640.88" r="1.93" fill="#8E7556" stroke="none"/><path d="M 713.13 570.79 L 788.91 570.79" stroke="#AF916B" stroke-width="1.6" stroke-linejoin="round" stroke-linecap="round" opacity="0.8"/><circle cx="721.36" cy="566.09" r="1.76" fill="#8E7556" stroke="none"/><circle cx="780.68" cy="566.09" r="1.76" fill="#8E7556" stroke="none"/><circle cx="721.36" cy="575.49" r="1.76" fill="#8E7556" stroke="none"/><circle cx="780.68" cy="575.49" r="1.76" fill="#8E7556" stroke="none"/><path d="M 759.98 505.86 L 828.17 505.86" stroke="#AF916B" stroke-width="1.6" stroke-linejoin="round" stroke-linecap="round" opacity="0.8"/><circle cx="767.41" cy="501.61" r="1.59" fill="#8E7556" stroke="none"/><circle cx="820.73" cy="501.61" r="1.59" fill="#8E7556" stroke="none"/><circle cx="767.41" cy="510.1" r="1.59" fill="#8E7556" stroke="none"/><circle cx="820.73" cy="510.1" r="1.59" fill="#8E7556" stroke="none"/><ellipse cx="862.53" cy="641.69" rx="6.37" ry="2.55" fill="#C3A57C" stroke="none" opacity="0.9"/><ellipse cx="862.53" cy="641.69" rx="2.76" ry="1.17" fill="#9C7F5C" stroke="none" opacity="0.8"/><path d="M 887.26 610.92 L 967.73 610.92" stroke="#AF916B" stroke-width="1.6" stroke-linejoin="round" stroke-linecap="round" opacity="0.8"/><circle cx="895.97" cy="605.94" r="1.87" fill="#8E7556" stroke="none"/><circle cx="959.01" cy="605.94" r="1.87" fill="#8E7556" stroke="none"/><circle cx="895.97" cy="615.9" r="1.87" fill="#8E7556" stroke="none"/><circle cx="959.01" cy="615.9" r="1.87" fill="#8E7556" stroke="none"/><path d="M 923.62 545.99 L 996.5 545.99" stroke="#AF916B" stroke-width="1.6" stroke-linejoin="round" stroke-linecap="round" opacity="0.8"/><circle cx="931.54" cy="541.46" r="1.7" fill="#8E7556" stroke="none"/><circle cx="988.57" cy="541.46" r="1.7" fill="#8E7556" stroke="none"/><circle cx="931.54" cy="550.52" r="1.7" fill="#8E7556" stroke="none"/><circle cx="988.57" cy="550.52" r="1.7" fill="#8E7556" stroke="none"/><rect x="0" y="470" width="1000" height="14" fill="#9C8366" stroke="none" opacity="0.22"/><ellipse cx="60.21" cy="486.45" rx="34" ry="4" fill="#CFC6BC" stroke="none" opacity="0.45"/><ellipse cx="140.75" cy="491.39" rx="34" ry="4" fill="#CFC6BC" stroke="none" opacity="0.45"/><ellipse cx="251.29" cy="488.33" rx="34" ry="4" fill="#CFC6BC" stroke="none" opacity="0.45"/><ellipse cx="331.84" cy="493.28" rx="34" ry="4" fill="#CFC6BC" stroke="none" opacity="0.45"/><ellipse cx="412.38" cy="490.22" rx="34" ry="4" fill="#CFC6BC" stroke="none" opacity="0.45"/><ellipse cx="522.92" cy="487.17" rx="34" ry="4" fill="#CFC6BC" stroke="none" opacity="0.45"/><ellipse cx="603.46" cy="492.11" rx="34" ry="4" fill="#CFC6BC" stroke="none" opacity="0.45"/><ellipse cx="684" cy="489.06" rx="34" ry="4" fill="#CFC6BC" stroke="none" opacity="0.45"/><ellipse cx="794.54" cy="486" rx="34" ry="4" fill="#CFC6BC" stroke="none" opacity="0.45"/><ellipse cx="875.08" cy="490.94" rx="34" ry="4" fill="#CFC6BC" stroke="none" opacity="0.45"/><ellipse cx="985.62" cy="487.89" rx="34" ry="4" fill="#CFC6BC" stroke="none" opacity="0.45"/></g>
<g id="lišta" data-box="-2 450 1004 23.8"><rect x="0" y="452" width="1000" height="20" fill="#A88C66" stroke="none"/><path d="M 0 452 L 1000 452" stroke="#2F2E3F" stroke-width="2" stroke-linejoin="round" stroke-linecap="round"/><rect x="0" y="453" width="1000" height="4" fill="#D8BF9A" stroke="none" opacity="0.7"/><rect x="0" y="466" width="1000" height="6" fill="#8A7052" stroke="none" opacity="0.6"/><path d="M 0 472 L 1000 472" stroke="#8E7556" stroke-width="1.6" stroke-linejoin="round" stroke-linecap="round" opacity="0.7"/></g>
<g id="dvířka levá" data-box="-2.25 127.75 18.5 574.5"><rect x="0" y="130" width="14" height="242" fill="#D8BF9A" stroke="#2F2E3F" stroke-width="2.5" stroke-linejoin="round" stroke-linecap="round"/><rect x="0" y="372" width="14" height="178" fill="#6F5A41" stroke="none" opacity="0.35"/><path d="M 14 372 L 14 550" stroke="#2F2E3F" stroke-width="2" stroke-linejoin="round" stroke-linecap="round" opacity="0.4"/><rect x="0" y="550" width="14" height="150" fill="#D8BF9A" stroke="#2F2E3F" stroke-width="2.5" stroke-linejoin="round" stroke-linecap="round"/></g>
<g id="štít pravý" data-box="983.75 127.75 18.5 574.5"><rect x="986" y="130" width="14" height="570" fill="#D8BF9A" stroke="#2F2E3F" stroke-width="2.5" stroke-linejoin="round" stroke-linecap="round"/></g>
<g id="byliny" data-box="573.19 153 228.09 112.45"><path d="M 604 156 L 604 186" stroke="#8A7052" stroke-width="1.8" stroke-linejoin="round" stroke-linecap="round"/><circle cx="604" cy="157" r="2.4" fill="#8A7052" stroke="#2F2E3F" stroke-width="1.2" stroke-linejoin="round" stroke-linecap="round"/><path d="M 604 192 L 629.4 244.1" fill="none" stroke="#8E9B74" stroke-width="1.8" stroke-linejoin="round" stroke-linecap="round"/><path d="M 615.44 215.46 Q 614.32 211.31 610.44 209.46 Q 611.56 213.61 615.44 215.46 Z" fill="#9DAA86" stroke="#2F2E3F" stroke-width="0.9" stroke-linejoin="round" stroke-linecap="round"/><path d="M 621.8 228.49 Q 620.68 224.34 616.8 222.49 Q 617.92 226.64 621.8 228.49 Z" fill="#9DAA86" stroke="#2F2E3F" stroke-width="0.9" stroke-linejoin="round" stroke-linecap="round"/><ellipse cx="629.43" cy="246.13" rx="2.4" ry="3" fill="#C9B8E8" stroke="#2F2E3F" stroke-width="0.9" stroke-linejoin="round" stroke-linecap="round"/><ellipse cx="630.19" cy="250.63" rx="2.4" ry="3" fill="#B9AECB" stroke="#2F2E3F" stroke-width="0.9" stroke-linejoin="round" stroke-linecap="round"/><ellipse cx="630.95" cy="255.13" rx="2.4" ry="3" fill="#B7A9D6" stroke="#2F2E3F" stroke-width="0.9" stroke-linejoin="round" stroke-linecap="round"/><path d="M 604 192 L 623.4 246.7" fill="none" stroke="#8E9B74" stroke-width="1.8" stroke-linejoin="round" stroke-linecap="round"/><path d="M 612.71 216.6 Q 616.6 214.76 617.71 210.6 Q 613.83 212.45 612.71 216.6 Z" fill="#9DAA86" stroke="#2F2E3F" stroke-width="0.9" stroke-linejoin="round" stroke-linecap="round"/><path d="M 617.55 230.27 Q 621.44 228.42 622.55 224.27 Q 618.67 226.12 617.55 230.27 Z" fill="#9DAA86" stroke="#2F2E3F" stroke-width="0.9" stroke-linejoin="round" stroke-linecap="round"/><ellipse cx="623.36" cy="248.67" rx="2.4" ry="3" fill="#B9AECB" stroke="#2F2E3F" stroke-width="0.9" stroke-linejoin="round" stroke-linecap="round"/><ellipse cx="623.94" cy="253.17" rx="2.4" ry="3" fill="#B7A9D6" stroke="#2F2E3F" stroke-width="0.9" stroke-linejoin="round" stroke-linecap="round"/><ellipse cx="624.52" cy="257.67" rx="2.4" ry="3" fill="#C9B8E8" stroke="#2F2E3F" stroke-width="0.9" stroke-linejoin="round" stroke-linecap="round"/><path d="M 604 192 L 617.0 248.5" fill="none" stroke="#8E9B74" stroke-width="1.8" stroke-linejoin="round" stroke-linecap="round"/><path d="M 609.87 217.43 Q 608.75 213.28 604.87 211.43 Q 605.99 215.58 609.87 217.43 Z" fill="#9DAA86" stroke="#2F2E3F" stroke-width="0.9" stroke-linejoin="round" stroke-linecap="round"/><path d="M 613.13 231.56 Q 612.02 227.41 608.13 225.56 Q 609.25 229.71 613.13 231.56 Z" fill="#9DAA86" stroke="#2F2E3F" stroke-width="0.9" stroke-linejoin="round" stroke-linecap="round"/><ellipse cx="617.05" cy="250.51" rx="2.4" ry="3" fill="#B7A9D6" stroke="#2F2E3F" stroke-width="0.9" stroke-linejoin="round" stroke-linecap="round"/><ellipse cx="617.44" cy="255.01" rx="2.4" ry="3" fill="#C9B8E8" stroke="#2F2E3F" stroke-width="0.9" stroke-linejoin="round" stroke-linecap="round"/><ellipse cx="617.83" cy="259.51" rx="2.4" ry="3" fill="#B9AECB" stroke="#2F2E3F" stroke-width="0.9" stroke-linejoin="round" stroke-linecap="round"/><path d="M 604 192 L 610.6 249.6" fill="none" stroke="#8E9B74" stroke-width="1.8" stroke-linejoin="round" stroke-linecap="round"/><path d="M 606.95 217.93 Q 610.84 216.08 611.95 211.93 Q 608.07 213.78 606.95 217.93 Z" fill="#9DAA86" stroke="#2F2E3F" stroke-width="0.9" stroke-linejoin="round" stroke-linecap="round"/><path d="M 608.6 232.34 Q 612.48 230.49 613.6 226.34 Q 609.71 228.19 608.6 232.34 Z" fill="#9DAA86" stroke="#2F2E3F" stroke-width="0.9" stroke-linejoin="round" stroke-linecap="round"/><ellipse cx="610.57" cy="251.63" rx="2.4" ry="3" fill="#C9B8E8" stroke="#2F2E3F" stroke-width="0.9" stroke-linejoin="round" stroke-linecap="round"/><ellipse cx="610.76" cy="256.13" rx="2.4" ry="3" fill="#B9AECB" stroke="#2F2E3F" stroke-width="0.9" stroke-linejoin="round" stroke-linecap="round"/><ellipse cx="610.96" cy="260.63" rx="2.4" ry="3" fill="#B7A9D6" stroke="#2F2E3F" stroke-width="0.9" stroke-linejoin="round" stroke-linecap="round"/><path d="M 604 192 L 604.0 250.0" fill="none" stroke="#8E9B74" stroke-width="1.8" stroke-linejoin="round" stroke-linecap="round"/><path d="M 604 218.1 Q 602.88 213.95 599 212.1 Q 600.12 216.25 604 218.1 Z" fill="#9DAA86" stroke="#2F2E3F" stroke-width="0.9" stroke-linejoin="round" stroke-linecap="round"/><path d="M 604 232.6 Q 602.88 228.45 599 226.6 Q 600.12 230.75 604 232.6 Z" fill="#9DAA86" stroke="#2F2E3F" stroke-width="0.9" stroke-linejoin="round" stroke-linecap="round"/><ellipse cx="604" cy="252" rx="2.4" ry="3" fill="#B9AECB" stroke="#2F2E3F" stroke-width="0.9" stroke-linejoin="round" stroke-linecap="round"/><ellipse cx="604" cy="256.5" rx="2.4" ry="3" fill="#B7A9D6" stroke="#2F2E3F" stroke-width="0.9" stroke-linejoin="round" stroke-linecap="round"/><ellipse cx="604" cy="261" rx="2.4" ry="3" fill="#C9B8E8" stroke="#2F2E3F" stroke-width="0.9" stroke-linejoin="round" stroke-linecap="round"/><path d="M 604 192 L 597.4 249.6" fill="none" stroke="#8E9B74" stroke-width="1.8" stroke-linejoin="round" stroke-linecap="round"/><path d="M 601.05 217.93 Q 604.93 216.08 606.05 211.93 Q 602.16 213.78 601.05 217.93 Z" fill="#9DAA86" stroke="#2F2E3F" stroke-width="0.9" stroke-linejoin="round" stroke-linecap="round"/><path d="M 599.4 232.34 Q 603.29 230.49 604.4 226.34 Q 600.52 228.19 599.4 232.34 Z" fill="#9DAA86" stroke="#2F2E3F" stroke-width="0.9" stroke-linejoin="round" stroke-linecap="round"/><ellipse cx="597.43" cy="251.63" rx="2.4" ry="3" fill="#B7A9D6" stroke="#2F2E3F" stroke-width="0.9" stroke-linejoin="round" stroke-linecap="round"/><ellipse cx="597.24" cy="256.13" rx="2.4" ry="3" fill="#C9B8E8" stroke="#2F2E3F" stroke-width="0.9" stroke-linejoin="round" stroke-linecap="round"/><ellipse cx="597.04" cy="260.63" rx="2.4" ry="3" fill="#B9AECB" stroke="#2F2E3F" stroke-width="0.9" stroke-linejoin="round" stroke-linecap="round"/><path d="M 604 192 L 591.0 248.5" fill="none" stroke="#8E9B74" stroke-width="1.8" stroke-linejoin="round" stroke-linecap="round"/><path d="M 598.13 217.43 Q 597.01 213.28 593.13 211.43 Q 594.25 215.58 598.13 217.43 Z" fill="#9DAA86" stroke="#2F2E3F" stroke-width="0.9" stroke-linejoin="round" stroke-linecap="round"/><path d="M 594.87 231.56 Q 593.75 227.41 589.87 225.56 Q 590.98 229.71 594.87 231.56 Z" fill="#9DAA86" stroke="#2F2E3F" stroke-width="0.9" stroke-linejoin="round" stroke-linecap="round"/><ellipse cx="590.95" cy="250.51" rx="2.4" ry="3" fill="#C9B8E8" stroke="#2F2E3F" stroke-width="0.9" stroke-linejoin="round" stroke-linecap="round"/><ellipse cx="590.56" cy="255.01" rx="2.4" ry="3" fill="#B9AECB" stroke="#2F2E3F" stroke-width="0.9" stroke-linejoin="round" stroke-linecap="round"/><ellipse cx="590.17" cy="259.51" rx="2.4" ry="3" fill="#B7A9D6" stroke="#2F2E3F" stroke-width="0.9" stroke-linejoin="round" stroke-linecap="round"/><path d="M 604 192 L 584.6 246.7" fill="none" stroke="#8E9B74" stroke-width="1.8" stroke-linejoin="round" stroke-linecap="round"/><path d="M 595.29 216.6 Q 599.17 214.76 600.29 210.6 Q 596.4 212.45 595.29 216.6 Z" fill="#9DAA86" stroke="#2F2E3F" stroke-width="0.9" stroke-linejoin="round" stroke-linecap="round"/><path d="M 590.45 230.27 Q 594.33 228.42 595.45 224.27 Q 591.56 226.12 590.45 230.27 Z" fill="#9DAA86" stroke="#2F2E3F" stroke-width="0.9" stroke-linejoin="round" stroke-linecap="round"/><ellipse cx="584.64" cy="248.67" rx="2.4" ry="3" fill="#B9AECB" stroke="#2F2E3F" stroke-width="0.9" stroke-linejoin="round" stroke-linecap="round"/><ellipse cx="584.06" cy="253.17" rx="2.4" ry="3" fill="#B7A9D6" stroke="#2F2E3F" stroke-width="0.9" stroke-linejoin="round" stroke-linecap="round"/><ellipse cx="583.48" cy="257.67" rx="2.4" ry="3" fill="#C9B8E8" stroke="#2F2E3F" stroke-width="0.9" stroke-linejoin="round" stroke-linecap="round"/><path d="M 604 192 L 578.6 244.1" fill="none" stroke="#8E9B74" stroke-width="1.8" stroke-linejoin="round" stroke-linecap="round"/><path d="M 592.56 215.46 Q 591.44 211.31 587.56 209.46 Q 588.68 213.61 592.56 215.46 Z" fill="#9DAA86" stroke="#2F2E3F" stroke-width="0.9" stroke-linejoin="round" stroke-linecap="round"/><path d="M 586.2 228.49 Q 585.08 224.34 581.2 222.49 Q 582.32 226.64 586.2 228.49 Z" fill="#9DAA86" stroke="#2F2E3F" stroke-width="0.9" stroke-linejoin="round" stroke-linecap="round"/><ellipse cx="578.57" cy="246.13" rx="2.4" ry="3" fill="#B7A9D6" stroke="#2F2E3F" stroke-width="0.9" stroke-linejoin="round" stroke-linecap="round"/><ellipse cx="577.81" cy="250.63" rx="2.4" ry="3" fill="#C9B8E8" stroke="#2F2E3F" stroke-width="0.9" stroke-linejoin="round" stroke-linecap="round"/><ellipse cx="577.05" cy="255.13" rx="2.4" ry="3" fill="#B9AECB" stroke="#2F2E3F" stroke-width="0.9" stroke-linejoin="round" stroke-linecap="round"/><rect x="597" y="186" width="14" height="9" rx="2" fill="#EFA79A" stroke="#2F2E3F" stroke-width="1.4" stroke-linejoin="round" stroke-linecap="round"/><path d="M 600 195 q -4 6 -8 8 M 608 195 q 4 6 8 8" fill="none" stroke="#EFA79A" stroke-width="2.4" stroke-linejoin="round" stroke-linecap="round"/><path d="M 770 156 L 770 186" stroke="#8A7052" stroke-width="1.8" stroke-linejoin="round" stroke-linecap="round"/><circle cx="770" cy="157" r="2.4" fill="#8A7052" stroke="#2F2E3F" stroke-width="1.2" stroke-linejoin="round" stroke-linecap="round"/><path d="M 770 192 L 795.4 244.1" fill="none" stroke="#8E9B74" stroke-width="1.8" stroke-linejoin="round" stroke-linecap="round"/><path d="M 781.44 215.46 Q 780.32 211.31 776.44 209.46 Q 777.56 213.61 781.44 215.46 Z" fill="#A9B58A" stroke="#2F2E3F" stroke-width="0.9" stroke-linejoin="round" stroke-linecap="round"/><path d="M 787.8 228.49 Q 786.68 224.34 782.8 222.49 Q 783.92 226.64 787.8 228.49 Z" fill="#A9B58A" stroke="#2F2E3F" stroke-width="0.9" stroke-linejoin="round" stroke-linecap="round"/><circle cx="798.03" cy="247.13" r="1.9" fill="#FBF6E6" stroke="#2F2E3F" stroke-width="0.7" stroke-linejoin="round" stroke-linecap="round"/><circle cx="796.23" cy="249.6" r="1.9" fill="#F1E6C2" stroke="#2F2E3F" stroke-width="0.7" stroke-linejoin="round" stroke-linecap="round"/><circle cx="793.32" cy="248.66" r="1.9" fill="#FBF6E6" stroke="#2F2E3F" stroke-width="0.7" stroke-linejoin="round" stroke-linecap="round"/><circle cx="793.32" cy="245.6" r="1.9" fill="#F1E6C2" stroke="#2F2E3F" stroke-width="0.7" stroke-linejoin="round" stroke-linecap="round"/><circle cx="796.23" cy="244.66" r="1.9" fill="#FBF6E6" stroke="#2F2E3F" stroke-width="0.7" stroke-linejoin="round" stroke-linecap="round"/><circle cx="795.43" cy="247.13" r="1.8" fill="#F2CF7A" stroke="#2F2E3F" stroke-width="0.8" stroke-linejoin="round" stroke-linecap="round"/><path d="M 770 192 L 789.4 246.7" fill="none" stroke="#8E9B74" stroke-width="1.8" stroke-linejoin="round" stroke-linecap="round"/><path d="M 778.71 216.6 Q 782.6 214.76 783.71 210.6 Q 779.83 212.45 778.71 216.6 Z" fill="#A9B58A" stroke="#2F2E3F" stroke-width="0.9" stroke-linejoin="round" stroke-linecap="round"/><path d="M 783.55 230.27 Q 787.44 228.42 788.55 224.27 Q 784.67 226.12 783.55 230.27 Z" fill="#A9B58A" stroke="#2F2E3F" stroke-width="0.9" stroke-linejoin="round" stroke-linecap="round"/><circle cx="791.96" cy="249.67" r="1.9" fill="#F1E6C2" stroke="#2F2E3F" stroke-width="0.7" stroke-linejoin="round" stroke-linecap="round"/><circle cx="790.16" cy="252.15" r="1.9" fill="#FBF6E6" stroke="#2F2E3F" stroke-width="0.7" stroke-linejoin="round" stroke-linecap="round"/><circle cx="787.26" cy="251.2" r="1.9" fill="#F1E6C2" stroke="#2F2E3F" stroke-width="0.7" stroke-linejoin="round" stroke-linecap="round"/><circle cx="787.26" cy="248.14" r="1.9" fill="#FBF6E6" stroke="#2F2E3F" stroke-width="0.7" stroke-linejoin="round" stroke-linecap="round"/><circle cx="790.16" cy="247.2" r="1.9" fill="#F1E6C2" stroke="#2F2E3F" stroke-width="0.7" stroke-linejoin="round" stroke-linecap="round"/><circle cx="789.36" cy="249.67" r="1.8" fill="#F2CF7A" stroke="#2F2E3F" stroke-width="0.8" stroke-linejoin="round" stroke-linecap="round"/><path d="M 770 192 L 783.0 248.5" fill="none" stroke="#8E9B74" stroke-width="1.8" stroke-linejoin="round" stroke-linecap="round"/><path d="M 775.87 217.43 Q 774.75 213.28 770.87 211.43 Q 771.99 215.58 775.87 217.43 Z" fill="#A9B58A" stroke="#2F2E3F" stroke-width="0.9" stroke-linejoin="round" stroke-linecap="round"/><path d="M 779.13 231.56 Q 778.02 227.41 774.13 225.56 Q 775.25 229.71 779.13 231.56 Z" fill="#A9B58A" stroke="#2F2E3F" stroke-width="0.9" stroke-linejoin="round" stroke-linecap="round"/><circle cx="785.65" cy="251.51" r="1.9" fill="#FBF6E6" stroke="#2F2E3F" stroke-width="0.7" stroke-linejoin="round" stroke-linecap="round"/><circle cx="783.85" cy="253.99" r="1.9" fill="#F1E6C2" stroke="#2F2E3F" stroke-width="0.7" stroke-linejoin="round" stroke-linecap="round"/><circle cx="780.94" cy="253.04" r="1.9" fill="#FBF6E6" stroke="#2F2E3F" stroke-width="0.7" stroke-linejoin="round" stroke-linecap="round"/><circle cx="780.94" cy="249.99" r="1.9" fill="#F1E6C2" stroke="#2F2E3F" stroke-width="0.7" stroke-linejoin="round" stroke-linecap="round"/><circle cx="783.85" cy="249.04" r="1.9" fill="#FBF6E6" stroke="#2F2E3F" stroke-width="0.7" stroke-linejoin="round" stroke-linecap="round"/><circle cx="783.05" cy="251.51" r="1.8" fill="#F2CF7A" stroke="#2F2E3F" stroke-width="0.8" stroke-linejoin="round" stroke-linecap="round"/><path d="M 770 192 L 776.6 249.6" fill="none" stroke="#8E9B74" stroke-width="1.8" stroke-linejoin="round" stroke-linecap="round"/><path d="M 772.95 217.93 Q 776.84 216.08 777.95 211.93 Q 774.07 213.78 772.95 217.93 Z" fill="#A9B58A" stroke="#2F2E3F" stroke-width="0.9" stroke-linejoin="round" stroke-linecap="round"/><path d="M 774.6 232.34 Q 778.48 230.49 779.6 226.34 Q 775.71 228.19 774.6 232.34 Z" fill="#A9B58A" stroke="#2F2E3F" stroke-width="0.9" stroke-linejoin="round" stroke-linecap="round"/><circle cx="779.17" cy="252.63" r="1.9" fill="#F1E6C2" stroke="#2F2E3F" stroke-width="0.7" stroke-linejoin="round" stroke-linecap="round"/><circle cx="777.37" cy="255.1" r="1.9" fill="#FBF6E6" stroke="#2F2E3F" stroke-width="0.7" stroke-linejoin="round" stroke-linecap="round"/><circle cx="774.46" cy="254.16" r="1.9" fill="#F1E6C2" stroke="#2F2E3F" stroke-width="0.7" stroke-linejoin="round" stroke-linecap="round"/><circle cx="774.46" cy="251.1" r="1.9" fill="#FBF6E6" stroke="#2F2E3F" stroke-width="0.7" stroke-linejoin="round" stroke-linecap="round"/><circle cx="777.37" cy="250.15" r="1.9" fill="#F1E6C2" stroke="#2F2E3F" stroke-width="0.7" stroke-linejoin="round" stroke-linecap="round"/><circle cx="776.57" cy="252.63" r="1.8" fill="#F2CF7A" stroke="#2F2E3F" stroke-width="0.8" stroke-linejoin="round" stroke-linecap="round"/><path d="M 770 192 L 770.0 250.0" fill="none" stroke="#8E9B74" stroke-width="1.8" stroke-linejoin="round" stroke-linecap="round"/><path d="M 770 218.1 Q 768.88 213.95 765 212.1 Q 766.12 216.25 770 218.1 Z" fill="#A9B58A" stroke="#2F2E3F" stroke-width="0.9" stroke-linejoin="round" stroke-linecap="round"/><path d="M 770 232.6 Q 768.88 228.45 765 226.6 Q 766.12 230.75 770 232.6 Z" fill="#A9B58A" stroke="#2F2E3F" stroke-width="0.9" stroke-linejoin="round" stroke-linecap="round"/><circle cx="772.6" cy="253" r="1.9" fill="#FBF6E6" stroke="#2F2E3F" stroke-width="0.7" stroke-linejoin="round" stroke-linecap="round"/><circle cx="770.8" cy="255.47" r="1.9" fill="#F1E6C2" stroke="#2F2E3F" stroke-width="0.7" stroke-linejoin="round" stroke-linecap="round"/><circle cx="767.9" cy="254.53" r="1.9" fill="#FBF6E6" stroke="#2F2E3F" stroke-width="0.7" stroke-linejoin="round" stroke-linecap="round"/><circle cx="767.9" cy="251.47" r="1.9" fill="#F1E6C2" stroke="#2F2E3F" stroke-width="0.7" stroke-linejoin="round" stroke-linecap="round"/><circle cx="770.8" cy="250.53" r="1.9" fill="#FBF6E6" stroke="#2F2E3F" stroke-width="0.7" stroke-linejoin="round" stroke-linecap="round"/><circle cx="770" cy="253" r="1.8" fill="#F2CF7A" stroke="#2F2E3F" stroke-width="0.8" stroke-linejoin="round" stroke-linecap="round"/><path d="M 770 192 L 763.4 249.6" fill="none" stroke="#8E9B74" stroke-width="1.8" stroke-linejoin="round" stroke-linecap="round"/><path d="M 767.05 217.93 Q 770.93 216.08 772.05 211.93 Q 768.16 213.78 767.05 217.93 Z" fill="#A9B58A" stroke="#2F2E3F" stroke-width="0.9" stroke-linejoin="round" stroke-linecap="round"/><path d="M 765.4 232.34 Q 769.29 230.49 770.4 226.34 Q 766.52 228.19 765.4 232.34 Z" fill="#A9B58A" stroke="#2F2E3F" stroke-width="0.9" stroke-linejoin="round" stroke-linecap="round"/><circle cx="766.03" cy="252.63" r="1.9" fill="#F1E6C2" stroke="#2F2E3F" stroke-width="0.7" stroke-linejoin="round" stroke-linecap="round"/><circle cx="764.24" cy="255.1" r="1.9" fill="#FBF6E6" stroke="#2F2E3F" stroke-width="0.7" stroke-linejoin="round" stroke-linecap="round"/><circle cx="761.33" cy="254.16" r="1.9" fill="#F1E6C2" stroke="#2F2E3F" stroke-width="0.7" stroke-linejoin="round" stroke-linecap="round"/><circle cx="761.33" cy="251.1" r="1.9" fill="#FBF6E6" stroke="#2F2E3F" stroke-width="0.7" stroke-linejoin="round" stroke-linecap="round"/><circle cx="764.24" cy="250.15" r="1.9" fill="#F1E6C2" stroke="#2F2E3F" stroke-width="0.7" stroke-linejoin="round" stroke-linecap="round"/><circle cx="763.43" cy="252.63" r="1.8" fill="#F2CF7A" stroke="#2F2E3F" stroke-width="0.8" stroke-linejoin="round" stroke-linecap="round"/><path d="M 770 192 L 757.0 248.5" fill="none" stroke="#8E9B74" stroke-width="1.8" stroke-linejoin="round" stroke-linecap="round"/><path d="M 764.13 217.43 Q 763.01 213.28 759.13 211.43 Q 760.25 215.58 764.13 217.43 Z" fill="#A9B58A" stroke="#2F2E3F" stroke-width="0.9" stroke-linejoin="round" stroke-linecap="round"/><path d="M 760.87 231.56 Q 759.75 227.41 755.87 225.56 Q 756.98 229.71 760.87 231.56 Z" fill="#A9B58A" stroke="#2F2E3F" stroke-width="0.9" stroke-linejoin="round" stroke-linecap="round"/><circle cx="759.55" cy="251.51" r="1.9" fill="#FBF6E6" stroke="#2F2E3F" stroke-width="0.7" stroke-linejoin="round" stroke-linecap="round"/><circle cx="757.76" cy="253.99" r="1.9" fill="#F1E6C2" stroke="#2F2E3F" stroke-width="0.7" stroke-linejoin="round" stroke-linecap="round"/><circle cx="754.85" cy="253.04" r="1.9" fill="#FBF6E6" stroke="#2F2E3F" stroke-width="0.7" stroke-linejoin="round" stroke-linecap="round"/><circle cx="754.85" cy="249.99" r="1.9" fill="#F1E6C2" stroke="#2F2E3F" stroke-width="0.7" stroke-linejoin="round" stroke-linecap="round"/><circle cx="757.76" cy="249.04" r="1.9" fill="#FBF6E6" stroke="#2F2E3F" stroke-width="0.7" stroke-linejoin="round" stroke-linecap="round"/><circle cx="756.95" cy="251.51" r="1.8" fill="#F2CF7A" stroke="#2F2E3F" stroke-width="0.8" stroke-linejoin="round" stroke-linecap="round"/><path d="M 770 192 L 750.6 246.7" fill="none" stroke="#8E9B74" stroke-width="1.8" stroke-linejoin="round" stroke-linecap="round"/><path d="M 761.29 216.6 Q 765.17 214.76 766.29 210.6 Q 762.4 212.45 761.29 216.6 Z" fill="#A9B58A" stroke="#2F2E3F" stroke-width="0.9" stroke-linejoin="round" stroke-linecap="round"/><path d="M 756.45 230.27 Q 760.33 228.42 761.45 224.27 Q 757.56 226.12 756.45 230.27 Z" fill="#A9B58A" stroke="#2F2E3F" stroke-width="0.9" stroke-linejoin="round" stroke-linecap="round"/><circle cx="753.24" cy="249.67" r="1.9" fill="#F1E6C2" stroke="#2F2E3F" stroke-width="0.7" stroke-linejoin="round" stroke-linecap="round"/><circle cx="751.44" cy="252.15" r="1.9" fill="#FBF6E6" stroke="#2F2E3F" stroke-width="0.7" stroke-linejoin="round" stroke-linecap="round"/><circle cx="748.54" cy="251.2" r="1.9" fill="#F1E6C2" stroke="#2F2E3F" stroke-width="0.7" stroke-linejoin="round" stroke-linecap="round"/><circle cx="748.54" cy="248.14" r="1.9" fill="#FBF6E6" stroke="#2F2E3F" stroke-width="0.7" stroke-linejoin="round" stroke-linecap="round"/><circle cx="751.44" cy="247.2" r="1.9" fill="#F1E6C2" stroke="#2F2E3F" stroke-width="0.7" stroke-linejoin="round" stroke-linecap="round"/><circle cx="750.64" cy="249.67" r="1.8" fill="#F2CF7A" stroke="#2F2E3F" stroke-width="0.8" stroke-linejoin="round" stroke-linecap="round"/><path d="M 770 192 L 744.6 244.1" fill="none" stroke="#8E9B74" stroke-width="1.8" stroke-linejoin="round" stroke-linecap="round"/><path d="M 758.56 215.46 Q 757.44 211.31 753.56 209.46 Q 754.68 213.61 758.56 215.46 Z" fill="#A9B58A" stroke="#2F2E3F" stroke-width="0.9" stroke-linejoin="round" stroke-linecap="round"/><path d="M 752.2 228.49 Q 751.08 224.34 747.2 222.49 Q 748.32 226.64 752.2 228.49 Z" fill="#A9B58A" stroke="#2F2E3F" stroke-width="0.9" stroke-linejoin="round" stroke-linecap="round"/><circle cx="747.17" cy="247.13" r="1.9" fill="#FBF6E6" stroke="#2F2E3F" stroke-width="0.7" stroke-linejoin="round" stroke-linecap="round"/><circle cx="745.38" cy="249.6" r="1.9" fill="#F1E6C2" stroke="#2F2E3F" stroke-width="0.7" stroke-linejoin="round" stroke-linecap="round"/><circle cx="742.47" cy="248.66" r="1.9" fill="#FBF6E6" stroke="#2F2E3F" stroke-width="0.7" stroke-linejoin="round" stroke-linecap="round"/><circle cx="742.47" cy="245.6" r="1.9" fill="#F1E6C2" stroke="#2F2E3F" stroke-width="0.7" stroke-linejoin="round" stroke-linecap="round"/><circle cx="745.38" cy="244.66" r="1.9" fill="#FBF6E6" stroke="#2F2E3F" stroke-width="0.7" stroke-linejoin="round" stroke-linecap="round"/><circle cx="744.57" cy="247.13" r="1.8" fill="#F2CF7A" stroke="#2F2E3F" stroke-width="0.8" stroke-linejoin="round" stroke-linecap="round"/><rect x="763" y="186" width="14" height="9" rx="2" fill="#EFA79A" stroke="#2F2E3F" stroke-width="1.4" stroke-linejoin="round" stroke-linecap="round"/><path d="M 766 195 q -4 6 -8 8 M 774 195 q 4 6 8 8" fill="none" stroke="#EFA79A" stroke-width="2.4" stroke-linejoin="round" stroke-linecap="round"/></g>
<rect id="@slot krabice" x="511" y="470" width="320" height="90" fill="#FF8C3D" opacity="0.2"/>
<rect id="@slot křeslo" x="0" y="490" width="200" height="40" fill="#FF8C3D" opacity="0.2"/>
<rect id="@slot truhla" x="345" y="490" width="220" height="40" fill="#FF8C3D" opacity="0.2"/>
<rect id="@slot kufr" x="40" y="610" width="200" height="40" fill="#FF8C3D" opacity="0.2"/>
<rect id="@slot střešní okno" x="235" y="160" width="240" height="200" fill="#FF8C3D" opacity="0.2"/>
<rect id="@slot lampa" x="786" y="490" width="80" height="40" fill="#FF8C3D" opacity="0.2"/>
<rect id="@slot koberec" x="440" y="600" width="440" height="40" fill="#FF8C3D" opacity="0.2"/>
<rect id="@slot pavučina" x="20" y="158" width="120" height="120" fill="#FF8C3D" opacity="0.2"/>
<rect id="@slot poklop" x="205" y="470" width="152" height="66" fill="#FF8C3D" opacity="0.2"/>
<rect id="@slot koník" x="858" y="480" width="124" height="40" fill="#FF8C3D" opacity="0.2"/>
</svg>
