<svg xmlns="http://www.w3.org/2000/svg" viewBox="0 0 700 700" width="700" height="700">
<g id="stěna"><rect x="0" y="0" width="700" height="470" fill="#EEF2F7" stroke="none"/><rect x="0" y="0" width="700" height="36" fill="#C9DAF0" stroke="none" opacity="0.6"/></g>
<g id="kachličky"><rect x="0" y="210" width="30" height="30" fill="#E3EDF8" stroke="none"/><rect x="30" y="210" width="30" height="30" fill="#F2F6FB" stroke="none"/><rect x="60" y="210" width="30" height="30" fill="#E3EDF8" stroke="none"/><rect x="90" y="210" width="30" height="30" fill="#F2F6FB" stroke="none"/><rect x="120" y="210" width="30" height="30" fill="#E3EDF8" stroke="none"/><rect x="150" y="210" width="30" height="30" fill="#F2F6FB" stroke="none"/><rect x="180" y="210" width="30" height="30" fill="#E3EDF8" stroke="none"/><rect x="210" y="210" width="30" height="30" fill="#F2F6FB" stroke="none"/><rect x="240" y="210" width="30" height="30" fill="#E3EDF8" stroke="none"/><rect x="270" y="210" width="30" height="30" fill="#F2F6FB" stroke="none"/><rect x="300" y="210" width="30" height="30" fill="#E3EDF8" stroke="none"/><rect x="330" y="210" width="30" height="30" fill="#F2F6FB" stroke="none"/><rect x="360" y="210" width="30" height="30" fill="#E3EDF8" stroke="none"/><rect x="390" y="210" width="30" height="30" fill="#F2F6FB" stroke="none"/><rect x="420" y="210" width="30" height="30" fill="#E3EDF8" stroke="none"/><rect x="450" y="210" width="30" height="30" fill="#F2F6FB" stroke="none"/><rect x="480" y="210" width="30" height="30" fill="#E3EDF8" stroke="none"/><rect x="510" y="210" width="30" height="30" fill="#F2F6FB" stroke="none"/><rect x="540" y="210" width="30" height="30" fill="#E3EDF8" stroke="none"/><rect x="570" y="210" width="30" height="30" fill="#F2F6FB" stroke="none"/><rect x="600" y="210" width="30" height="30" fill="#E3EDF8" stroke="none"/><rect x="630" y="210" width="30" height="30" fill="#F2F6FB" stroke="none"/><rect x="660" y="210" width="30" height="30" fill="#E3EDF8" stroke="none"/><rect x="690" y="210" width="30" height="30" fill="#F2F6FB" stroke="none"/><rect x="-30" y="240" width="30" height="30" fill="#E3EDF8" stroke="none"/><rect x="0" y="240" width="30" height="30" fill="#F2F6FB" stroke="none"/><rect x="30" y="240" width="30" height="30" fill="#E3EDF8" stroke="none"/><rect x="60" y="240" width="30" height="30" fill="#F2F6FB" stroke="none"/><rect x="90" y="240" width="30" height="30" fill="#E3EDF8" stroke="none"/><rect x="120" y="240" width="30" height="30" fill="#F2F6FB" stroke="none"/><rect x="150" y="240" width="30" height="30" fill="#E3EDF8" stroke="none"/><rect x="180" y="240" width="30" height="30" fill="#F2F6FB" stroke="none"/><rect x="210" y="240" width="30" height="30" fill="#E3EDF8" stroke="none"/><rect x="240" y="240" width="30" height="30" fill="#F2F6FB" stroke="none"/><rect x="270" y="240" width="30" height="30" fill="#E3EDF8" stroke="none"/><rect x="300" y="240" width="30" height="30" fill="#F2F6FB" stroke="none"/><rect x="330" y="240" width="30" height="30" fill="#E3EDF8" stroke="none"/><rect x="360" y="240" width="30" height="30" fill="#F2F6FB" stroke="none"/><rect x="390" y="240" width="30" height="30" fill="#E3EDF8" stroke="none"/><rect x="420" y="240" width="30" height="30" fill="#F2F6FB" stroke="none"/><rect x="450" y="240" width="30" height="30" fill="#E3EDF8" stroke="none"/><rect x="480" y="240" width="30" height="30" fill="#F2F6FB" stroke="none"/><rect x="510" y="240" width="30" height="30" fill="#E3EDF8" stroke="none"/><rect x="540" y="240" width="30" height="30" fill="#F2F6FB" stroke="none"/><rect x="570" y="240" width="30" height="30" fill="#E3EDF8" stroke="none"/><rect x="600" y="240" width="30" height="30" fill="#F2F6FB" stroke="none"/><rect x="630" y="240" width="30" height="30" fill="#E3EDF8" stroke="none"/><rect x="660" y="240" width="30" height="30" fill="#F2F6FB" stroke="none"/><rect x="690" y="240" width="30" height="30" fill="#E3EDF8" stroke="none"/><rect x="0" y="270" width="30" height="30" fill="#E3EDF8" stroke="none"/><rect x="30" y="270" width="30" height="30" fill="#F2F6FB" stroke="none"/><rect x="60" y="270" width="30" height="30" fill="#E3EDF8" stroke="none"/><rect x="90" y="270" width="30" height="30" fill="#F2F6FB" stroke="none"/><rect x="120" y="270" width="30" height="30" fill="#E3EDF8" stroke="none"/><rect x="150" y="270" width="30" height="30" fill="#F2F6FB" stroke="none"/><rect x="180" y="270" width="30" height="30" fill="#E3EDF8" stroke="none"/><rect x="210" y="270" width="30" height="30" fill="#F2F6FB" stroke="none"/><rect x="240" y="270" width="30" height="30" fill="#E3EDF8" stroke="none"/><rect x="270" y="270" width="30" height="30" fill="#F2F6FB" stroke="none"/><rect x="300" y="270" width="30" height="30" fill="#E3EDF8" stroke="none"/><rect x="330" y="270" width="30" height="30" fill="#F2F6FB" stroke="none"/><rect x="360" y="270" width="30" height="30" fill="#E3EDF8" stroke="none"/><rect x="390" y="270" width="30" height="30" fill="#F2F6FB" stroke="none"/><rect x="420" y="270" width="30" height="30" fill="#E3EDF8" stroke="none"/><rect x="450" y="270" width="30" height="30" fill="#F2F6FB" stroke="none"/><rect x="480" y="270" width="30" height="30" fill="#E3EDF8" stroke="none"/><rect x="510" y="270" width="30" height="30" fill="#F2F6FB" stroke="none"/><rect x="540" y="270" width="30" height="30" fill="#E3EDF8" stroke="none"/><rect x="570" y="270" width="30" height="30" fill="#F2F6FB" stroke="none"/><rect x="600" y="270" width="30" height="30" fill="#E3EDF8" stroke="none"/><rect x="630" y="270" width="30" height="30" fill="#F2F6FB" stroke="none"/><rect x="660" y="270" width="30" height="30" fill="#E3EDF8" stroke="none"/><rect x="690" y="270" width="30" height="30" fill="#F2F6FB" stroke="none"/><rect x="-30" y="300" width="30" height="30" fill="#E3EDF8" stroke="none"/><rect x="0" y="300" width="30" height="30" fill="#F2F6FB" stroke="none"/><rect x="30" y="300" width="30" height="30" fill="#E3EDF8" stroke="none"/><rect x="60" y="300" width="30" height="30" fill="#F2F6FB" stroke="none"/><rect x="90" y="300" width="30" height="30" fill="#E3EDF8" stroke="none"/><rect x="120" y="300" width="30" height="30" fill="#F2F6FB" stroke="none"/><rect x="150" y="300" width="30" height="30" fill="#E3EDF8" stroke="none"/><rect x="180" y="300" width="30" height="30" fill="#F2F6FB" stroke="none"/><rect x="210" y="300" width="30" height="30" fill="#E3EDF8" stroke="none"/><rect x="240" y="300" width="30" height="30" fill="#F2F6FB" stroke="none"/><rect x="270" y="300" width="30" height="30" fill="#E3EDF8" stroke="none"/><rect x="300" y="300" width="30" height="30" fill="#F2F6FB" stroke="none"/><rect x="330" y="300" width="30" height="30" fill="#E3EDF8" stroke="none"/><rect x="360" y="300" width="30" height="30" fill="#F2F6FB" stroke="none"/><rect x="390" y="300" width="30" height="30" fill="#E3EDF8" stroke="none"/><rect x="420" y="300" width="30" height="30" fill="#F2F6FB" stroke="none"/><rect x="450" y="300" width="30" height="30" fill="#E3EDF8" stroke="none"/><rect x="480" y="300" width="30" height="30" fill="#F2F6FB" stroke="none"/><rect x="510" y="300" width="30" height="30" fill="#E3EDF8" stroke="none"/><rect x="540" y="300" width="30" height="30" fill="#F2F6FB" stroke="none"/><rect x="570" y="300" width="30" height="30" fill="#E3EDF8" stroke="none"/><rect x="600" y="300" width="30" height="30" fill="#F2F6FB" stroke="none"/><rect x="630" y="300" width="30" height="30" fill="#E3EDF8" stroke="none"/><rect x="660" y="300" width="30" height="30" fill="#F2F6FB" stroke="none"/><rect x="690" y="300" width="30" height="30" fill="#E3EDF8" stroke="none"/><rect x="0" y="330" width="30" height="30" fill="#E3EDF8" stroke="none"/><rect x="30" y="330" width="30" height="30" fill="#F2F6FB" stroke="none"/><rect x="60" y="330" width="30" height="30" fill="#E3EDF8" stroke="none"/><rect x="90" y="330" width="30" height="30" fill="#F2F6FB" stroke="none"/><rect x="120" y="330" width="30" height="30" fill="#E3EDF8" stroke="none"/><rect x="150" y="330" width="30" height="30" fill="#F2F6FB" stroke="none"/><rect x="180" y="330" width="30" height="30" fill="#E3EDF8" stroke="none"/><rect x="210" y="330" width="30" height="30" fill="#F2F6FB" stroke="none"/><rect x="240" y="330" width="30" height="30" fill="#E3EDF8" stroke="none"/><rect x="270" y="330" width="30" height="30" fill="#F2F6FB" stroke="none"/><rect x="300" y="330" width="30" height="30" fill="#E3EDF8" stroke="none"/><rect x="330" y="330" width="30" height="30" fill="#F2F6FB" stroke="none"/><rect x="360" y="330" width="30" height="30" fill="#E3EDF8" stroke="none"/><rect x="390" y="330" width="30" height="30" fill="#F2F6FB" stroke="none"/><rect x="420" y="330" width="30" height="30" fill="#E3EDF8" stroke="none"/><rect x="450" y="330" width="30" height="30" fill="#F2F6FB" stroke="none"/><rect x="480" y="330" width="30" height="30" fill="#E3EDF8" stroke="none"/><rect x="510" y="330" width="30" height="30" fill="#F2F6FB" stroke="none"/><rect x="540" y="330" width="30" height="30" fill="#E3EDF8" stroke="none"/><rect x="570" y="330" width="30" height="30" fill="#F2F6FB" stroke="none"/><rect x="600" y="330" width="30" height="30" fill="#E3EDF8" stroke="none"/><rect x="630" y="330" width="30" height="30" fill="#F2F6FB" stroke="none"/><rect x="660" y="330" width="30" height="30" fill="#E3EDF8" stroke="none"/><rect x="690" y="330" width="30" height="30" fill="#F2F6FB" stroke="none"/><rect x="-30" y="360" width="30" height="30" fill="#E3EDF8" stroke="none"/><rect x="0" y="360" width="30" height="30" fill="#F2F6FB" stroke="none"/><rect x="30" y="360" width="30" height="30" fill="#E3EDF8" stroke="none"/><rect x="60" y="360" width="30" height="30" fill="#F2F6FB" stroke="none"/><rect x="90" y="360" width="30" height="30" fill="#E3EDF8" stroke="none"/><rect x="120" y="360" width="30" height="30" fill="#F2F6FB" stroke="none"/><rect x="150" y="360" width="30" height="30" fill="#E3EDF8" stroke="none"/><rect x="180" y="360" width="30" height="30" fill="#F2F6FB" stroke="none"/><rect x="210" y="360" width="30" height="30" fill="#E3EDF8" stroke="none"/><rect x="240" y="360" width="30" height="30" fill="#F2F6FB" stroke="none"/><rect x="270" y="360" width="30" height="30" fill="#E3EDF8" stroke="none"/><rect x="300" y="360" width="30" height="30" fill="#F2F6FB" stroke="none"/><rect x="330" y="360" width="30" height="30" fill="#E3EDF8" stroke="none"/><rect x="360" y="360" width="30" height="30" fill="#F2F6FB" stroke="none"/><rect x="390" y="360" width="30" height="30" fill="#E3EDF8" stroke="none"/><rect x="420" y="360" width="30" height="30" fill="#F2F6FB" stroke="none"/><rect x="450" y="360" width="30" height="30" fill="#E3EDF8" stroke="none"/><rect x="480" y="360" width="30" height="30" fill="#F2F6FB" stroke="none"/><rect x="510" y="360" width="30" height="30" fill="#E3EDF8" stroke="none"/><rect x="540" y="360" width="30" height="30" fill="#F2F6FB" stroke="none"/><rect x="570" y="360" width="30" height="30" fill="#E3EDF8" stroke="none"/><rect x="600" y="360" width="30" height="30" fill="#F2F6FB" stroke="none"/><rect x="630" y="360" width="30" height="30" fill="#E3EDF8" stroke="none"/><rect x="660" y="360" width="30" height="30" fill="#F2F6FB" stroke="none"/><rect x="690" y="360" width="30" height="30" fill="#E3EDF8" stroke="none"/><rect x="0" y="390" width="30" height="30" fill="#E3EDF8" stroke="none"/><rect x="30" y="390" width="30" height="30" fill="#F2F6FB" stroke="none"/><rect x="60" y="390" width="30" height="30" fill="#E3EDF8" stroke="none"/><rect x="90" y="390" width="30" height="30" fill="#F2F6FB" stroke="none"/><rect x="120" y="390" width="30" height="30" fill="#E3EDF8" stroke="none"/><rect x="150" y="390" width="30" height="30" fill="#F2F6FB" stroke="none"/><rect x="180" y="390" width="30" height="30" fill="#E3EDF8" stroke="none"/><rect x="210" y="390" width="30" height="30" fill="#F2F6FB" stroke="none"/><rect x="240" y="390" width="30" height="30" fill="#E3EDF8" stroke="none"/><rect x="270" y="390" width="30" height="30" fill="#F2F6FB" stroke="none"/><rect x="300" y="390" width="30" height="30" fill="#E3EDF8" stroke="none"/><rect x="330" y="390" width="30" height="30" fill="#F2F6FB" stroke="none"/><rect x="360" y="390" width="30" height="30" fill="#E3EDF8" stroke="none"/><rect x="390" y="390" width="30" height="30" fill="#F2F6FB" stroke="none"/><rect x="420" y="390" width="30" height="30" fill="#E3EDF8" stroke="none"/><rect x="450" y="390" width="30" height="30" fill="#F2F6FB" stroke="none"/><rect x="480" y="390" width="30" height="30" fill="#E3EDF8" stroke="none"/><rect x="510" y="390" width="30" height="30" fill="#F2F6FB" stroke="none"/><rect x="540" y="390" width="30" height="30" fill="#E3EDF8" stroke="none"/><rect x="570" y="390" width="30" height="30" fill="#F2F6FB" stroke="none"/><rect x="600" y="390" width="30" height="30" fill="#E3EDF8" stroke="none"/><rect x="630" y="390" width="30" height="30" fill="#F2F6FB" stroke="none"/><rect x="660" y="390" width="30" height="30" fill="#E3EDF8" stroke="none"/><rect x="690" y="390" width="30" height="30" fill="#F2F6FB" stroke="none"/><rect x="-30" y="420" width="30" height="20" fill="#E3EDF8" stroke="none"/><rect x="0" y="420" width="30" height="20" fill="#F2F6FB" stroke="none"/><rect x="30" y="420" width="30" height="20" fill="#E3EDF8" stroke="none"/><rect x="60" y="420" width="30" height="20" fill="#F2F6FB" stroke="none"/><rect x="90" y="420" width="30" height="20" fill="#E3EDF8" stroke="none"/><rect x="120" y="420" width="30" height="20" fill="#F2F6FB" stroke="none"/><rect x="150" y="420" width="30" height="20" fill="#E3EDF8" stroke="none"/><rect x="180" y="420" width="30" height="20" fill="#F2F6FB" stroke="none"/><rect x="210" y="420" width="30" height="20" fill="#E3EDF8" stroke="none"/><rect x="240" y="420" width="30" height="20" fill="#F2F6FB" stroke="none"/><rect x="270" y="420" width="30" height="20" fill="#E3EDF8" stroke="none"/><rect x="300" y="420" width="30" height="20" fill="#F2F6FB" stroke="none"/><rect x="330" y="420" width="30" height="20" fill="#E3EDF8" stroke="none"/><rect x="360" y="420" width="30" height="20" fill="#F2F6FB" stroke="none"/><rect x="390" y="420" width="30" height="20" fill="#E3EDF8" stroke="none"/><rect x="420" y="420" width="30" height="20" fill="#F2F6FB" stroke="none"/><rect x="450" y="420" width="30" height="20" fill="#E3EDF8" stroke="none"/><rect x="480" y="420" width="30" height="20" fill="#F2F6FB" stroke="none"/><rect x="510" y="420" width="30" height="20" fill="#E3EDF8" stroke="none"/><rect x="540" y="420" width="30" height="20" fill="#F2F6FB" stroke="none"/><rect x="570" y="420" width="30" height="20" fill="#E3EDF8" stroke="none"/><rect x="600" y="420" width="30" height="20" fill="#F2F6FB" stroke="none"/><rect x="630" y="420" width="30" height="20" fill="#E3EDF8" stroke="none"/><rect x="660" y="420" width="30" height="20" fill="#F2F6FB" stroke="none"/><rect x="690" y="420" width="30" height="20" fill="#E3EDF8" stroke="none"/><rect x="0" y="190" width="700" height="20" fill="#F2CF7A" stroke="none"/><path d="M 0 190 L 700 190" stroke="#8A7052" stroke-width="1.5" stroke-linejoin="round" stroke-linecap="round" opacity="0.6"/><path d="M 0 210 L 700 210" stroke="#8A7052" stroke-width="1.5" stroke-linejoin="round" stroke-linecap="round" opacity="0.6"/><circle cx="10" cy="200" r="5.5" fill="none" stroke="#8A7052" stroke-width="2.2" stroke-linejoin="round" stroke-linecap="round" opacity="0.8"/><circle cx="30" cy="200" r="5.5" fill="none" stroke="#8A7052" stroke-width="2.2" stroke-linejoin="round" stroke-linecap="round" opacity="0.8"/><circle cx="50" cy="200" r="5.5" fill="none" stroke="#8A7052" stroke-width="2.2" stroke-linejoin="round" stroke-linecap="round" opacity="0.8"/><circle cx="70" cy="200" r="5.5" fill="none" stroke="#8A7052" stroke-width="2.2" stroke-linejoin="round" stroke-linecap="round" opacity="0.8"/><circle cx="90" cy="200" r="5.5" fill="none" stroke="#8A7052" stroke-width="2.2" stroke-linejoin="round" stroke-linecap="round" opacity="0.8"/><circle cx="110" cy="200" r="5.5" fill="none" stroke="#8A7052" stroke-width="2.2" stroke-linejoin="round" stroke-linecap="round" opacity="0.8"/><circle cx="130" cy="200" r="5.5" fill="none" stroke="#8A7052" stroke-width="2.2" stroke-linejoin="round" stroke-linecap="round" opacity="0.8"/><circle cx="150" cy="200" r="5.5" fill="none" stroke="#8A7052" stroke-width="2.2" stroke-linejoin="round" stroke-linecap="round" opacity="0.8"/><circle cx="170" cy="200" r="5.5" fill="none" stroke="#8A7052" stroke-width="2.2" stroke-linejoin="round" stroke-linecap="round" opacity="0.8"/><circle cx="190" cy="200" r="5.5" fill="none" stroke="#8A7052" stroke-width="2.2" stroke-linejoin="round" stroke-linecap="round" opacity="0.8"/><circle cx="210" cy="200" r="5.5" fill="none" stroke="#8A7052" stroke-width="2.2" stroke-linejoin="round" stroke-linecap="round" opacity="0.8"/><circle cx="230" cy="200" r="5.5" fill="none" stroke="#8A7052" stroke-width="2.2" stroke-linejoin="round" stroke-linecap="round" opacity="0.8"/><circle cx="250" cy="200" r="5.5" fill="none" stroke="#8A7052" stroke-width="2.2" stroke-linejoin="round" stroke-linecap="round" opacity="0.8"/><circle cx="270" cy="200" r="5.5" fill="none" stroke="#8A7052" stroke-width="2.2" stroke-linejoin="round" stroke-linecap="round" opacity="0.8"/><circle cx="290" cy="200" r="5.5" fill="none" stroke="#8A7052" stroke-width="2.2" stroke-linejoin="round" stroke-linecap="round" opacity="0.8"/><circle cx="310" cy="200" r="5.5" fill="none" stroke="#8A7052" stroke-width="2.2" stroke-linejoin="round" stroke-linecap="round" opacity="0.8"/><circle cx="330" cy="200" r="5.5" fill="none" stroke="#8A7052" stroke-width="2.2" stroke-linejoin="round" stroke-linecap="round" opacity="0.8"/><circle cx="350" cy="200" r="5.5" fill="none" stroke="#8A7052" stroke-width="2.2" stroke-linejoin="round" stroke-linecap="round" opacity="0.8"/><circle cx="370" cy="200" r="5.5" fill="none" stroke="#8A7052" stroke-width="2.2" stroke-linejoin="round" stroke-linecap="round" opacity="0.8"/><circle cx="390" cy="200" r="5.5" fill="none" stroke="#8A7052" stroke-width="2.2" stroke-linejoin="round" stroke-linecap="round" opacity="0.8"/><circle cx="410" cy="200" r="5.5" fill="none" stroke="#8A7052" stroke-width="2.2" stroke-linejoin="round" stroke-linecap="round" opacity="0.8"/><circle cx="430" cy="200" r="5.5" fill="none" stroke="#8A7052" stroke-width="2.2" stroke-linejoin="round" stroke-linecap="round" opacity="0.8"/><circle cx="450" cy="200" r="5.5" fill="none" stroke="#8A7052" stroke-width="2.2" stroke-linejoin="round" stroke-linecap="round" opacity="0.8"/><circle cx="470" cy="200" r="5.5" fill="none" stroke="#8A7052" stroke-width="2.2" stroke-linejoin="round" stroke-linecap="round" opacity="0.8"/><circle cx="490" cy="200" r="5.5" fill="none" stroke="#8A7052" stroke-width="2.2" stroke-linejoin="round" stroke-linecap="round" opacity="0.8"/><circle cx="510" cy="200" r="5.5" fill="none" stroke="#8A7052" stroke-width="2.2" stroke-linejoin="round" stroke-linecap="round" opacity="0.8"/><circle cx="530" cy="200" r="5.5" fill="none" stroke="#8A7052" stroke-width="2.2" stroke-linejoin="round" stroke-linecap="round" opacity="0.8"/><circle cx="550" cy="200" r="5.5" fill="none" stroke="#8A7052" stroke-width="2.2" stroke-linejoin="round" stroke-linecap="round" opacity="0.8"/><circle cx="570" cy="200" r="5.5" fill="none" stroke="#8A7052" stroke-width="2.2" stroke-linejoin="round" stroke-linecap="round" opacity="0.8"/><circle cx="590" cy="200" r="5.5" fill="none" stroke="#8A7052" stroke-width="2.2" stroke-linejoin="round" stroke-linecap="round" opacity="0.8"/><circle cx="610" cy="200" r="5.5" fill="none" stroke="#8A7052" stroke-width="2.2" stroke-linejoin="round" stroke-linecap="round" opacity="0.8"/><circle cx="630" cy="200" r="5.5" fill="none" stroke="#8A7052" stroke-width="2.2" stroke-linejoin="round" stroke-linecap="round" opacity="0.8"/><circle cx="650" cy="200" r="5.5" fill="none" stroke="#8A7052" stroke-width="2.2" stroke-linejoin="round" stroke-linecap="round" opacity="0.8"/><circle cx="670" cy="200" r="5.5" fill="none" stroke="#8A7052" stroke-width="2.2" stroke-linejoin="round" stroke-linecap="round" opacity="0.8"/><circle cx="690" cy="200" r="5.5" fill="none" stroke="#8A7052" stroke-width="2.2" stroke-linejoin="round" stroke-linecap="round" opacity="0.8"/></g>
<g id="podlaha"><rect x="0" y="470" width="700" height="230" fill="#E9EDF2" stroke="none"/><path d="M 0 508 L 700 508" stroke="#D4DAE3" stroke-width="2" stroke-linejoin="round" stroke-linecap="round"/><path d="M 0 549.8 L 700 549.8" stroke="#D4DAE3" stroke-width="2" stroke-linejoin="round" stroke-linecap="round"/><path d="M 0 595.4 L 700 595.4" stroke="#D4DAE3" stroke-width="2" stroke-linejoin="round" stroke-linecap="round"/><path d="M 0 641 L 700 641" stroke="#D4DAE3" stroke-width="2" stroke-linejoin="round" stroke-linecap="round"/><path d="M 40 470 L -37.5 700" stroke="#DDE2EA" stroke-width="1.5" stroke-linejoin="round" stroke-linecap="round"/><path d="M 170 470 L 125 700" stroke="#DDE2EA" stroke-width="1.5" stroke-linejoin="round" stroke-linecap="round"/><path d="M 300 470 L 287.5 700" stroke="#DDE2EA" stroke-width="1.5" stroke-linejoin="round" stroke-linecap="round"/><path d="M 430 470 L 450 700" stroke="#DDE2EA" stroke-width="1.5" stroke-linejoin="round" stroke-linecap="round"/><path d="M 560 470 L 612.5 700" stroke="#DDE2EA" stroke-width="1.5" stroke-linejoin="round" stroke-linecap="round"/><path d="M 690 470 L 775 700" stroke="#DDE2EA" stroke-width="1.5" stroke-linejoin="round" stroke-linecap="round"/><path d="M 820 470 L 937.5 700" stroke="#DDE2EA" stroke-width="1.5" stroke-linejoin="round" stroke-linecap="round"/></g>
<g id="lišta"><rect x="0" y="440" width="700" height="26" fill="#F6F4F9" stroke="none"/><rect x="0" y="462" width="700" height="4" fill="#D9CDEB" stroke="none"/><rect x="0" y="466" width="700" height="6" fill="#DCD4E8" stroke="none" opacity="0.7"/></g>
<g id="zeď levá"><rect x="0" y="0" width="14" height="700" fill="#C9DAF0" stroke="#2F2E3F" stroke-width="2.5" stroke-linejoin="round" stroke-linecap="round"/></g>
<g id="průchod pravý"><rect x="686" y="0" width="14" height="150" fill="#F0E6DC" stroke="none"/><path d="M 686 0 L 686 152" stroke="#2F2E3F" stroke-width="3" stroke-linejoin="round" stroke-linecap="round"/><path d="M 686 150 L 700 150" stroke="#2F2E3F" stroke-width="3" stroke-linejoin="round" stroke-linecap="round"/><rect x="686" y="150" width="14" height="324" fill="#6F5A41" stroke="none" opacity="0.3"/><path d="M 686 150 L 686 470" stroke="#2F2E3F" stroke-width="2" stroke-linejoin="round" stroke-linecap="round" opacity="0.4"/></g>
<rect id="@slot vana" x="431" y="480" width="250" height="40" fill="#FF8C3D" opacity="0.2"/>
<rect id="@slot umyvadlo" x="210" y="470" width="96" height="50" fill="#FF8C3D" opacity="0.2"/>
<rect id="@slot pračka" x="48" y="480" width="104" height="40" fill="#FF8C3D" opacity="0.2"/>
<rect id="@slot záchod" x="298" y="480" width="88" height="40" fill="#FF8C3D" opacity="0.2"/>
<rect id="@slot papír" x="384" y="380" width="60" height="80" fill="#FF8C3D" opacity="0.2"/>
<rect id="@slot rohož" x="444" y="545" width="224" height="30" fill="#FF8C3D" opacity="0.2"/>
<rect id="@slot police" x="436" y="212" width="240" height="140" fill="#FF8C3D" opacity="0.2"/>
<rect id="@slot okno" x="476" y="40" width="160" height="130" fill="#FF8C3D" opacity="0.2"/>
</svg>
